SplineFontDB: 3.0
FontName: Verdandi-Modern-Bold
FullName: Verdandi Modern Bold
FamilyName: Verdandi Modern
Weight: Bold
Copyright: Copyright \\\\050URW\\\\051++,Copyright 1999 by \\\\050URW\\\\051++ Design & Development; Cyrillic glyphs added by Valek Filippov \\\\050C\\\\051 2001-2002
Version: 1.100
ItalicAngle: 0
UnderlinePosition: -13
UnderlineWidth: 90
Ascent: 860
Descent: 140
sfntRevision: 0x0001199a
LayerCount: 2
Layer: 0 0 "Back"  1
Layer: 1 0 "Fore"  0
XUID: [1021 64 7236 28515]
FSType: 4
OS2Version: 4
OS2_WeightWidthSlopeOnly: 0
OS2_UseTypoMetrics: 1
CreationTime: 1286379183
ModificationTime: 1395923203
PfmFamily: 17
TTFWeight: 700
TTFWidth: 5
LineGap: 0
VLineGap: 0
Panose: 0 0 8 0 0 0 0 0 0 0
OS2TypoAscent: 860
OS2TypoAOffset: 0
OS2TypoDescent: -140
OS2TypoDOffset: 0
OS2TypoLinegap: 0
OS2WinAscent: 1080
OS2WinAOffset: 0
OS2WinDescent: 420
OS2WinDOffset: 0
HheadAscent: 860
HheadAOffset: 0
HheadDescent: -140
HheadDOffset: 0
OS2Vendor: 'UKWN'
OS2CodePages: 20000097.00000000
OS2UnicodeRanges: 00000287.00000000.00000000.00000000
Lookup: 4 0 1 "'liga' Standard Ligatures lookup 1"  {"'liga' Standard Ligatures lookup 1-1"  } ['liga' ('DFLT' <'dflt' > 'cyrl' <'dflt' > 'grek' <'dflt' > 'latn' <'dflt' > ) ]
Lookup: 4 0 1 "CCMP"  {"CCMP"  } ['ccmp' ('DFLT' <'dflt' > 'cyrl' <'dflt' > 'grek' <'dflt' > 'latn' <'dflt' > ) ]
Lookup: 260 0 0 "'mark' Mark Positioning lookup 1"  {"Major marks"  } ['mark' ('DFLT' <'dflt' > 'cyrl' <'dflt' > 'grek' <'dflt' > 'latn' <'dflt' > ) ]
Lookup: 258 0 0 "'kern' Horizontal Kerning in Latin lookup 0"  {"'kern' Horizontal Kerning in Latin lookup 0 subtable"  } ['kern' ('DFLT' <'dflt' > 'latn' <'dflt' > ) ]
MarkAttachClasses: 1
DEI: 91125
LangName: 1033 "" "" "Bold" "" "" "Version 1.001;PS 1.06;hotconv 1.0.50;makeotf.lib2.0.16970 DEVELOPMENT" "" "Please refer to the Copyright section for the font trademark attribution notices." 
GaspTable: 1 65535 11 1
Encoding: UnicodeBmp
UnicodeInterp: none
NameList: Adobe Glyph List
DisplaySize: -36

StartChar: .notdef
Encoding: 65536 -1 0
Width: 500
Flags: MW
LayerCount: 2
Fore
SplineSet
0 0 m 1
 0 700 l 1
 500 700 l 1
 500 0 l 1
 0 0 l 1
250 395 m 1
 420 650 l 1
 80 650 l 1
 250 395 l 1
280 350 m 1
 450 95 l 1
 450 605 l 1
 280 350 l 1
80 50 m 1
 420 50 l 1
 250 305 l 1
 80 50 l 1
50 605 m 1
 50 95 l 1
 220 350 l 1
 50 605 l 1
EndSplineSet
EndChar

StartChar: exclam
Encoding: 33 33 2
Width: 296
Flags: MW
LayerCount: 2
Fore
SplineSet
177 228 m 1
 124 228 l 1
 118 373 111 416 71 548 c 0
 62 578 57 611 57 637 c 0
 57 700 92 737 151 737 c 0
 209 737 244 700 244 637 c 0
 244 598 242 589 210 479 c 0
 191 414 181 337 177 228 c 1
150 172 m 0
 202 172 244 130 244 79 c 0
 244 27 202 -15 149 -15 c 0
 99 -15 57 28 57 79 c 0
 57 130 99 172 150 172 c 0
EndSplineSet
EndChar

StartChar: numbersign
Encoding: 35 35 4
Width: 574
Flags: MW
LayerCount: 2
Fore
SplineSet
135 220 m 1
 41 220 l 1
 41 303 l 1
 147 303 l 1
 163 411 l 1
 67 411 l 1
 67 494 l 1
 174 494 l 1
 204 700 l 1
 294 700 l 1
 264 494 l 1
 350 494 l 1
 379 700 l 1
 469 700 l 1
 440 494 l 1
 533 494 l 1
 533 411 l 1
 428 411 l 1
 413 303 l 1
 507 303 l 1
 507 220 l 1
 401 220 l 1
 369 0 l 1
 279 0 l 1
 311 220 l 1
 225 220 l 1
 193 0 l 1
 103 0 l 1
 135 220 l 1
253 411 m 1
 237 303 l 1
 322 303 l 1
 338 411 l 1
 253 411 l 1
EndSplineSet
EndChar

StartChar: dollar
Encoding: 36 36 5
Width: 574
Flags: MW
LayerCount: 2
Fore
SplineSet
319 433 m 1
 345 425 l 2
 489 381 549 318 549 211 c 0
 549 86 466 5 319 -12 c 1
 319 -137 l 1
 261 -137 l 1
 261 -14 l 1
 238 -12 224 -11 206 -7 c 0
 90 16 25 73 25 153 c 0
 25 208 61 247 111 247 c 0
 157 247 192 216 192 174 c 0
 192 147 178 117 157 100 c 0
 152 95 150 93 150 89 c 0
 150 67 202 45 261 41 c 1
 261 279 l 1
 227 290 l 1
 100 329 45 386 45 480 c 0
 45 565 91 638 168 675 c 0
 194 688 213 693 261 699 c 1
 261 801 l 1
 319 801 l 1
 319 700 l 1
 453 691 538 636 538 557 c 0
 538 505 502 467 451 467 c 0
 408 467 375 498 375 538 c 0
 375 556 381 574 392 592 c 0
 397 599 398 602 398 607 c 0
 398 627 370 641 319 646 c 1
 319 433 l 1
261 451 m 1
 261 645 l 1
 197 634 165 603 165 549 c 0
 165 502 192 472 248 455 c 2
 261 451 l 1
319 261 m 1
 319 44 l 1
 339 46 350 49 362 54 c 0
 400 69 424 107 424 149 c 0
 424 204 394 238 329 258 c 2
 319 261 l 1
EndSplineSet
EndChar

StartChar: percent
Encoding: 37 37 6
Width: 833
Flags: MW
LayerCount: 2
Fore
SplineSet
651 722 m 1
 237 0 l 1
 186 0 l 1
 535 612 l 1
 493 598 469 594 433 594 c 0
 408 594 393 596 367 603 c 1
 369 589 370 581 370 573 c 0
 370 515 342 443 299 392 c 0
 255 339 207 315 150 315 c 0
 73 315 17 369 17 443 c 0
 17 512 63 603 123 655 c 0
 163 689 209 708 252 708 c 0
 293 708 320 694 346 660 c 1
 373 647 401 641 438 641 c 0
 512 641 561 664 605 722 c 1
 651 722 l 1
266 658 m 1
 229 645 217 633 181 569 c 0
 137 492 121 451 121 416 c 0
 121 384 142 362 172 362 c 0
 248 362 330 476 330 581 c 0
 330 595 328 606 324 620 c 1
 298 629 283 639 266 658 c 1
699 407 m 0
 770 407 821 355 821 283 c 0
 821 223 791 147 745 89 c 0
 707 42 654 14 601 14 c 0
 523 14 466 67 466 140 c 0
 466 197 493 266 535 319 c 1
 582 376 639 407 699 407 c 0
724 355 m 0
 696 355 671 334 641 285 c 0
 590 202 569 151 569 114 c 0
 569 84 592 61 620 61 c 0
 697 61 781 175 781 279 c 0
 781 321 756 355 724 355 c 0
EndSplineSet
EndChar

StartChar: ampersand
Encoding: 38 38 7
Width: 852
Flags: MW
LayerCount: 2
Fore
SplineSet
797 408 m 1
 797 354 l 1
 726 352 703 336 664 260 c 1
 637 211 629 197 601 159 c 1
 635 114 667 93 703 93 c 0
 737 93 760 122 772 177 c 1
 822 166 l 1
 818 129 809 103 792 74 c 0
 754 11 708 -15 638 -15 c 0
 576 -15 524 7 480 51 c 1
 417 6 349 -16 269 -16 c 0
 194 -16 132 6 93 47 c 0
 58 84 39 130 39 179 c 0
 39 254 81 319 158 365 c 0
 183 380 203 390 241 407 c 1
 212 467 202 503 202 551 c 0
 202 600 225 651 261 684 c 0
 300 719 353 737 418 737 c 0
 527 737 600 679 600 594 c 0
 600 551 579 510 543 481 c 0
 511 456 486 442 425 417 c 1
 476 330 541 232 565 206 c 1
 599 247 613 277 613 305 c 0
 613 339 587 353 524 354 c 1
 524 408 l 1
 797 408 l 1
265 357 m 1
 228 334 209 301 209 258 c 0
 209 231 217 201 232 171 c 0
 266 102 314 67 374 67 c 0
 399 67 416 72 440 89 c 1
 366 179 308 268 265 357 c 1
397 464 m 1
 406 468 408 469 413 471 c 0
 463 496 490 538 490 589 c 0
 490 644 457 685 412 685 c 0
 372 685 342 652 342 610 c 0
 342 572 357 533 397 464 c 1
EndSplineSet
EndChar

StartChar: quotesingle
Encoding: 39 39 8
Width: 241
Flags: MW
LayerCount: 2
Fore
SplineSet
143 416 m 1
 97 416 l 1
 55 635 l 2
 53 647 52 657 52 668 c 0
 52 707 81 737 120 737 c 0
 159 737 188 707 188 667 c 0
 188 658 187 647 185 635 c 2
 143 416 l 1
EndSplineSet
EndChar

StartChar: parenleft
Encoding: 40 40 9
Width: 389
Flags: MW
LayerCount: 2
Fore
SplineSet
338 -68 m 1
 338 -118 l 1
 265 -80 220 -43 173 17 c 0
 107 101 72 204 72 310 c 0
 72 424 113 533 188 621 c 0
 233 673 271 702 338 737 c 1
 338 687 l 1
 284 649 259 618 236 558 c 0
 210 493 197 407 197 309 c 0
 197 201 214 108 244 41 c 1
 267 -7 289 -34 338 -68 c 1
EndSplineSet
EndChar

StartChar: parenright
Encoding: 41 41 10
Width: 389
Flags: MW
LayerCount: 2
Fore
SplineSet
50 687 m 1
 50 737 l 1
 123 699 168 662 215 602 c 0
 281 518 316 415 316 309 c 0
 316 195 275 86 200 -2 c 0
 155 -54 117 -83 50 -118 c 1
 50 -68 l 1
 104 -30 129 1 152 61 c 0
 178 126 191 212 191 310 c 0
 191 418 174 511 144 578 c 1
 121 626 99 653 50 687 c 1
EndSplineSet
EndChar

StartChar: asterisk
Encoding: 42 42 11
Width: 500
Flags: MW
LayerCount: 2
Fore
SplineSet
239 495 m 1
 223 485 l 2
 194 468 186 459 159 419 c 0
 144 396 125 384 103 384 c 0
 77 384 56 405 56 430 c 0
 56 451 69 470 89 479 c 0
 102 484 105 485 144 487 c 0
 169 489 189 495 210 507 c 2
 226 517 l 1
 210 526 l 2
 179 543 171 545 120 548 c 0
 81 551 56 573 56 604 c 0
 56 629 77 650 104 650 c 0
 117 650 133 644 144 634 c 0
 152 626 152 626 172 596 c 0
 187 575 200 562 223 549 c 1
 239 539 l 1
 239 558 l 2
 239 590 237 597 213 647 c 0
 206 660 203 673 203 684 c 0
 203 713 225 737 251 737 c 0
 278 737 300 713 300 683 c 0
 300 669 299 665 280 625 c 0
 268 602 264 583 264 558 c 2
 264 539 l 1
 280 549 l 2
 310 567 316 573 344 615 c 0
 360 639 378 650 400 650 c 0
 426 650 447 630 447 604 c 0
 447 583 434 565 414 555 c 0
 402 550 399 550 359 546 c 1
 333 545 316 539 293 526 c 2
 277 517 l 1
 293 508 l 2
 324 491 333 489 382 486 c 0
 421 483 447 460 447 429 c 0
 447 404 427 385 402 385 c 0
 375 385 364 394 331 439 c 0
 317 459 301 473 280 485 c 2
 264 495 l 1
 264 476 l 2
 264 444 266 436 289 387 c 0
 296 374 299 361 299 351 c 0
 299 321 278 297 251 297 c 0
 225 297 203 321 203 350 c 0
 203 365 205 370 223 409 c 1
 235 432 239 450 239 476 c 2
 239 495 l 1
EndSplineSet
EndChar

StartChar: plus
Encoding: 43 43 12
Width: 606
Flags: MW
LayerCount: 2
Fore
SplineSet
246 195 m 1
 51 195 l 1
 51 310 l 1
 246 310 l 1
 246 505 l 1
 361 505 l 1
 361 310 l 1
 555 310 l 1
 555 195 l 1
 361 195 l 1
 361 0 l 1
 246 0 l 1
 246 195 l 1
EndSplineSet
EndChar

StartChar: comma
Encoding: 44 44 13
Width: 278
Flags: MW
LayerCount: 2
Fore
SplineSet
67 -186 m 1
 40 -145 l 1
 102 -102 139 -54 139 -16 c 0
 139 -12 138 -10 135 -10 c 2
 131 -10 l 1
 129 -11 127 -11 123 -11 c 0
 75 -11 39 26 39 75 c 0
 39 130 81 173 135 173 c 0
 195 173 236 124 236 52 c 0
 236 -37 178 -119 67 -186 c 1
EndSplineSet
EndChar

StartChar: hyphen
Encoding: 45 45 14
Width: 333
Flags: MW
LayerCount: 2
Fore
SplineSet
42 310 m 1
 291 310 l 1
 291 180 l 1
 42 180 l 1
 42 310 l 1
EndSplineSet
EndChar

StartChar: period
Encoding: 46 46 15
Width: 278
Flags: MW
LayerCount: 2
Fore
SplineSet
139 173 m 0
 191 173 233 131 233 79 c 0
 233 27 191 -15 138 -15 c 0
 87 -15 45 28 45 79 c 0
 45 131 87 173 139 173 c 0
EndSplineSet
EndChar

StartChar: slash
Encoding: 47 47 16
Width: 278
Flags: MW
LayerCount: 2
Fore
SplineSet
228 737 m 1
 302 737 l 1
 51 -15 l 1
 -23 -15 l 1
 228 737 l 1
EndSplineSet
EndChar

StartChar: zero
Encoding: 48 48 17
Width: 574
Flags: MW
LayerCount: 2
Fore
SplineSet
287 708 m 0
 354 708 413 678 460 621 c 1
 519 547 546 460 546 342 c 0
 546 139 434 -14 287 -14 c 0
 137 -14 27 139 27 347 c 0
 27 555 137 708 287 708 c 0
286 656 m 0
 251 656 227 635 216 595 c 0
 207 561 199 449 199 347 c 0
 199 229 208 121 220 88 c 0
 232 56 255 38 286 38 c 0
 320 38 344 59 355 99 c 0
 364 133 372 243 372 345 c 0
 372 465 364 573 351 606 c 1
 340 638 316 656 286 656 c 0
EndSplineSet
EndChar

StartChar: one
Encoding: 49 49 18
Width: 574
Flags: MW
LayerCount: 2
Fore
SplineSet
371 708 m 1
 371 144 l 2
 371 81 371 77 378 69 c 0
 386 58 408 54 459 54 c 2
 491 54 l 1
 491 0 l 1
 92 0 l 1
 92 54 l 1
 124 54 l 2
 177 54 198 58 207 69 c 0
 214 77 214 82 214 144 c 2
 214 499 l 2
 214 582 214 582 125 583 c 1
 83 583 l 1
 83 639 l 1
 201 641 274 661 336 708 c 1
 371 708 l 1
EndSplineSet
EndChar

StartChar: two
Encoding: 50 50 19
Width: 574
Flags: MW
LayerCount: 2
Fore
SplineSet
477 266 m 1
 531 266 l 1
 508 -4 l 1
 478 -1 464 0 447 0 c 2
 71 0 l 2
 57 0 45 -1 19 -4 c 1
 19 43 l 1
 69 115 108 161 220 279 c 0
 326 392 358 451 358 534 c 0
 358 608 318 651 248 651 c 0
 198 651 144 617 144 585 c 0
 144 577 149 571 160 566 c 0
 206 544 225 519 225 476 c 0
 225 424 192 391 140 391 c 0
 80 391 41 436 41 506 c 0
 41 620 146 708 282 708 c 0
 423 708 528 627 528 520 c 0
 528 473 508 420 474 375 c 0
 445 338 414 315 275 225 c 0
 236 199 210 180 175 150 c 1
 368 150 l 1
 431 151 433 151 443 158 c 0
 451 163 457 176 466 216 c 2
 477 266 l 1
EndSplineSet
EndChar

StartChar: three
Encoding: 51 51 20
Width: 574
Flags: MW
LayerCount: 2
Fore
SplineSet
351 368 m 1
 404 361 428 354 456 338 c 0
 502 311 530 256 530 193 c 0
 530 129 500 68 454 36 c 0
 408 4 339 -14 266 -14 c 0
 122 -14 24 55 24 156 c 0
 24 212 61 251 114 251 c 0
 164 251 201 215 201 168 c 0
 201 140 194 127 164 98 c 0
 157 92 154 86 154 80 c 0
 154 59 198 38 240 38 c 0
 314 38 356 96 356 196 c 0
 356 290 325 338 263 338 c 0
 259 338 243 336 213 333 c 0
 207 332 201 332 197 332 c 0
 176 332 161 348 161 370 c 0
 161 391 174 403 197 403 c 0
 209 403 215 402 238 397 c 0
 254 394 265 392 273 392 c 0
 320 392 350 446 350 532 c 0
 350 610 313 656 250 656 c 0
 212 656 174 637 174 618 c 0
 174 614 176 611 181 606 c 0
 210 579 221 558 221 531 c 0
 221 484 188 452 140 452 c 0
 88 452 49 491 49 543 c 0
 49 581 70 623 102 652 c 0
 144 689 204 708 276 708 c 0
 418 708 512 637 512 531 c 0
 512 454 465 400 377 375 c 0
 370 373 363 371 351 368 c 1
EndSplineSet
EndChar

StartChar: four
Encoding: 52 52 21
Width: 574
Flags: MW
LayerCount: 2
Fore
SplineSet
446 248 m 1
 546 248 l 1
 546 181 l 1
 446 181 l 1
 446 144 l 2
 446 81 446 77 453 68 c 0
 461 59 484 54 525 54 c 2
 536 54 l 1
 536 0 l 1
 195 0 l 1
 195 54 l 1
 206 54 l 2
 251 54 274 58 282 68 c 0
 289 77 289 81 289 144 c 2
 289 181 l 1
 19 181 l 1
 19 255 l 1
 383 708 l 1
 452 708 l 1
 448 634 446 578 446 556 c 2
 446 248 l 1
289 248 m 1
 289 498 l 1
 92 248 l 1
 289 248 l 1
EndSplineSet
EndChar

StartChar: five
Encoding: 53 53 22
Width: 574
Flags: MW
LayerCount: 2
Fore
SplineSet
157 551 m 1
 142 422 l 1
 208 452 239 460 286 460 c 0
 430 460 535 364 535 234 c 0
 535 87 423 -14 259 -14 c 0
 121 -14 31 51 31 151 c 0
 31 213 69 253 127 253 c 0
 178 253 212 220 212 171 c 0
 212 137 197 118 158 99 c 0
 149 94 146 91 146 85 c 0
 146 64 189 43 234 43 c 0
 314 43 357 108 357 229 c 0
 357 337 319 392 244 392 c 0
 203 392 163 379 133 354 c 1
 134 348 135 342 135 338 c 0
 135 316 116 298 94 298 c 0
 73 298 57 314 57 335 c 0
 57 351 61 358 83 380 c 1
 96 553 102 628 106 708 c 1
 168 695 218 691 301 691 c 0
 379 691 449 697 482 705 c 0
 488 707 494 708 498 708 c 0
 503 708 506 703 506 697 c 0
 506 675 491 638 472 613 c 0
 434 564 366 536 283 536 c 0
 244 536 204 541 157 551 c 1
EndSplineSet
EndChar

StartChar: six
Encoding: 54 54 23
Width: 574
Flags: MW
LayerCount: 2
Fore
SplineSet
202 361 m 1
 244 409 284 427 348 427 c 0
 466 427 549 343 549 223 c 0
 549 86 442 -14 295 -14 c 0
 213 -14 146 17 97 77 c 0
 50 135 29 206 29 306 c 0
 29 425 56 517 115 594 c 0
 173 671 247 708 342 708 c 0
 457 708 530 654 530 568 c 0
 530 513 494 478 437 478 c 0
 385 478 349 510 349 555 c 0
 349 575 356 597 369 614 c 0
 376 623 377 627 377 633 c 0
 377 647 359 656 334 656 c 0
 266 656 221 579 207 437 c 0
 205 418 202 373 202 361 c 1
296 352 m 1
 292 352 l 2
 256 352 227 326 216 284 c 0
 211 261 208 229 208 194 c 0
 208 91 239 33 293 33 c 0
 346 33 375 96 375 212 c 0
 375 302 348 350 296 352 c 1
EndSplineSet
EndChar

StartChar: seven
Encoding: 55 55 24
Width: 574
Flags: MW
LayerCount: 2
Fore
SplineSet
546 708 m 1
 546 666 l 1
 397 349 378 281 378 97 c 0
 378 25 342 -14 279 -14 c 0
 223 -14 187 25 187 84 c 0
 187 125 203 174 240 246 c 0
 245 256 287 323 367 447 c 1
 435 548 l 1
 351 546 307 545 303 545 c 0
 273 545 222 547 189 548 c 0
 182 549 176 549 171 549 c 0
 136 549 129 536 110 448 c 2
 100 403 l 1
 45 409 l 1
 79 708 l 1
 178 697 226 694 318 694 c 0
 421 694 483 698 546 708 c 1
EndSplineSet
EndChar

StartChar: eight
Encoding: 56 56 25
Width: 574
Flags: MW
LayerCount: 2
Fore
SplineSet
403 411 m 1
 500 372 546 309 546 215 c 0
 546 78 437 -14 276 -14 c 0
 124 -14 27 55 27 163 c 0
 27 221 54 267 104 293 c 0
 121 302 134 306 165 316 c 1
 86 358 49 416 49 495 c 0
 49 624 149 708 304 708 c 0
 433 708 521 645 521 553 c 0
 521 507 499 466 460 439 c 0
 446 429 431 422 403 411 c 1
352 436 m 1
 354 438 l 1
 380 461 396 501 396 542 c 0
 396 612 354 656 287 656 c 0
 225 656 179 615 179 560 c 0
 179 516 210 475 255 458 c 0
 274 451 306 442 347 432 c 1
 349 433 349 433 350 435 c 1
 352 436 l 1
219 289 m 1
 172 250 157 220 157 166 c 0
 157 86 206 38 287 38 c 0
 365 38 422 87 422 155 c 0
 422 206 398 233 335 255 c 0
 310 263 261 277 219 289 c 1
EndSplineSet
EndChar

StartChar: nine
Encoding: 57 57 26
Width: 574
Flags: MW
LayerCount: 2
Fore
SplineSet
369 329 m 1
 327 282 285 263 223 263 c 0
 109 263 25 350 25 468 c 0
 25 607 130 708 275 708 c 0
 359 708 432 671 483 603 c 0
 525 546 545 477 545 386 c 0
 545 277 519 181 469 107 c 1
 417 28 334 -14 231 -14 c 0
 118 -14 45 36 45 114 c 0
 45 172 85 214 140 214 c 0
 190 214 224 181 224 133 c 0
 224 111 222 105 204 76 c 0
 200 70 198 64 198 58 c 0
 198 46 210 38 232 38 c 0
 312 38 356 108 367 251 c 0
 369 275 369 285 369 329 c 1
283 656 m 0
 227 656 198 600 198 491 c 0
 198 441 204 405 215 381 c 0
 227 356 254 338 282 338 c 0
 333 338 365 394 365 482 c 0
 365 528 356 582 343 611 c 0
 331 640 309 656 283 656 c 0
EndSplineSet
EndChar

StartChar: colon
Encoding: 58 58 27
Width: 278
Flags: MW
LayerCount: 2
Fore
SplineSet
150 172 m 0
 202 172 244 130 244 79 c 0
 244 27 202 -15 149 -15 c 0
 99 -15 57 28 57 79 c 0
 57 130 99 172 150 172 c 0
150 481 m 0
 202 481 244 439 244 388 c 0
 244 336 202 294 149 294 c 0
 99 294 57 337 57 388 c 0
 57 439 99 481 150 481 c 0
EndSplineSet
EndChar

StartChar: semicolon
Encoding: 59 59 28
Width: 278
Flags: MW
LayerCount: 2
Fore
SplineSet
75 -185 m 1
 48 -145 l 1
 110 -101 147 -54 147 -16 c 0
 147 -12 146 -10 143 -10 c 2
 139 -10 l 1
 137 -11 135 -11 131 -11 c 0
 83 -11 47 26 47 75 c 0
 47 131 89 174 143 174 c 0
 203 174 244 125 244 53 c 0
 244 -36 186 -118 75 -185 c 1
145 481 m 0
 197 481 239 439 239 388 c 0
 239 336 197 294 144 294 c 0
 94 294 52 337 52 388 c 0
 52 439 94 481 145 481 c 0
EndSplineSet
EndChar

StartChar: less
Encoding: 60 60 29
Width: 606
Flags: MW
LayerCount: 2
Fore
SplineSet
558 404 m 1
 230 253 l 1
 558 100 l 1
 558 -25 l 1
 49 207 l 1
 49 297 l 1
 558 529 l 1
 558 404 l 1
EndSplineSet
EndChar

StartChar: greater
Encoding: 62 62 31
Width: 606
Flags: MW
LayerCount: 2
Fore
SplineSet
48 404 m 1
 48 529 l 1
 557 297 l 1
 557 207 l 1
 48 -25 l 1
 48 100 l 1
 376 253 l 1
 48 404 l 1
EndSplineSet
EndChar

StartChar: question
Encoding: 63 63 32
Width: 500
Flags: MW
LayerCount: 2
Fore
SplineSet
254 228 m 1
 200 228 l 1
 198 244 197 260 197 270 c 0
 197 315 205 335 260 433 c 0
 285 478 300 529 300 570 c 0
 300 640 266 680 206 680 c 0
 175 680 153 669 153 655 c 0
 153 648 154 647 172 633 c 0
 193 617 204 595 204 568 c 0
 204 521 169 488 118 488 c 0
 63 488 23 527 23 581 c 0
 23 673 116 737 248 737 c 0
 388 737 476 668 476 559 c 0
 476 511 456 465 421 435 c 0
 414 429 405 422 328 363 c 0
 266 315 257 298 254 228 c 1
EndSplineSet
Refer: 367 803 S 1 0 0 1 90 0 2
EndChar

StartChar: at
Encoding: 64 64 33
Width: 747
Flags: MW
LayerCount: 2
Fore
SplineSet
644 190 m 1
 713 190 l 1
 698 153 681 130 649 98 c 0
 573 21 488 -15 387 -15 c 0
 185 -15 24 152 24 362 c 0
 24 570 186 737 389 737 c 0
 574 737 722 599 722 426 c 0
 722 281 606 148 480 148 c 0
 434 148 403 170 403 204 c 0
 403 207 404 213 405 220 c 1
 378 169 342 145 292 145 c 0
 217 145 160 210 160 294 c 0
 160 357 186 431 228 488 c 0
 268 542 326 573 385 573 c 0
 429 573 453 559 478 522 c 1
 490 556 l 1
 594 556 l 1
 502 268 l 2
 498 253 495 240 495 231 c 0
 495 217 503 209 519 209 c 0
 538 209 561 220 583 239 c 0
 632 280 658 343 658 419 c 0
 658 568 545 676 388 676 c 0
 216 676 88 543 88 366 c 0
 88 185 219 46 389 46 c 0
 496 46 587 97 644 190 c 1
406 521 m 0
 375 521 347 497 320 448 c 0
 285 386 263 312 263 256 c 0
 263 218 280 197 309 197 c 0
 341 197 370 226 393 280 c 0
 420 343 453 450 453 476 c 0
 453 500 432 521 406 521 c 0
EndSplineSet
EndChar

StartChar: A
Encoding: 65 65 34
Width: 759
Flags: MW
LayerCount: 2
Fore
SplineSet
351 737 m 1
 427 737 l 1
 684 117 l 2
 705 66 721 56 778 54 c 1
 778 0 l 1
 427 0 l 1
 427 54 l 1
 444 55 l 1
 489 55 502 61 502 79 c 0
 502 87 498 102 490 120 c 2
 452 218 l 1
 203 218 l 1
 187 180 l 2
 174 151 171 140 171 123 c 0
 171 77 199 58 271 54 c 1
 271 0 l 1
 -18 0 l 1
 -18 54 l 1
 41 60 78 99 124 207 c 2
 351 737 l 1
330 524 m 1
 229 285 l 1
 427 285 l 1
 330 524 l 1
EndSplineSet
EndChar

StartChar: B
Encoding: 66 66 35
Width: 778
Flags: MW
LayerCount: 2
Fore
SplineSet
17 722 m 1
 403 722 l 2
 522 722 569 714 624 682 c 1
 673 655 703 602 703 545 c 0
 703 485 671 437 611 408 c 0
 583 395 555 388 506 380 c 1
 558 373 588 365 622 349 c 0
 696 316 736 259 736 189 c 0
 736 122 694 59 630 30 c 1
 579 8 526 0 422 0 c 2
 17 0 l 1
 17 54 l 1
 32 54 l 2
 84 54 105 58 114 69 c 0
 121 77 121 81 121 144 c 2
 121 578 l 2
 121 642 121 645 114 654 c 0
 105 664 84 668 32 668 c 2
 17 668 l 1
 17 722 l 1
301 398 m 1
 350 398 l 2
 412 398 446 406 473 428 c 0
 505 453 522 492 522 541 c 0
 522 624 475 668 387 668 c 2
 357 668 l 2
 338 668 323 664 313 655 c 0
 303 647 301 639 301 610 c 2
 301 398 l 1
301 343 m 1
 301 118 l 2
 301 85 301 82 304 74 c 0
 310 60 327 54 362 54 c 2
 392 54 l 2
 440 54 473 63 498 84 c 0
 527 108 545 152 545 200 c 0
 545 252 524 296 490 319 c 0
 462 337 433 343 370 343 c 2
 301 343 l 1
EndSplineSet
EndChar

StartChar: C
Encoding: 67 67 36
Width: 778
Flags: MW
LayerCount: 2
Fore
SplineSet
698 733 m 1
 708 447 l 1
 655 441 l 1
 610 608 537 685 426 685 c 0
 303 685 239 577 239 370 c 0
 239 150 303 47 439 47 c 0
 554 47 634 126 661 265 c 1
 723 250 l 1
 685 71 583 -15 406 -15 c 0
 289 -15 204 19 135 95 c 0
 71 166 40 248 40 352 c 0
 40 576 198 737 418 737 c 0
 489 737 535 724 601 684 c 1
 655 733 l 1
 698 733 l 1
EndSplineSet
EndChar

StartChar: D
Encoding: 68 68 37
Width: 833
Flags: MW
LayerCount: 2
Fore
SplineSet
123 144 m 2
 123 578 l 2
 123 641 123 645 116 653 c 0
 107 664 86 668 34 668 c 2
 19 668 l 1
 19 722 l 1
 375 722 l 2
 516 722 590 708 650 668 c 0
 744 607 793 503 793 369 c 0
 793 232 744 123 655 61 c 0
 593 18 513 0 387 0 c 2
 19 0 l 1
 19 54 l 1
 34 54 l 2
 86 54 107 58 116 69 c 0
 123 77 123 81 123 144 c 2
363 54 m 2
 384 54 l 2
 451 54 510 79 540 122 c 1
 573 167 594 264 594 371 c 0
 594 571 527 668 388 668 c 2
 363 668 l 2
 315 668 303 656 303 608 c 2
 303 119 l 2
 303 66 314 54 363 54 c 2
EndSplineSet
EndChar

StartChar: E
Encoding: 69 69 38
Width: 759
Flags: MW
LayerCount: 2
Fore
SplineSet
687 722 m 5
 693 462 l 5
 641 462 l 5
 626 514 604 564 583 594 c 4
 549 641 488 668 414 668 c 6
 386 668 l 6
 345 668 321 661 310 646 c 4
 302 634 300 623 300 582 c 6
 300 401 l 5
 317 401 l 6
 395 401 444 451 455 543 c 5
 509 543 l 5
 509 204 l 5
 455 204 l 5
 444 296 395 346 317 346 c 6
 300 346 l 5
 300 124 l 6
 300 91 303 80 316 68 c 4
 328 56 341 54 390 54 c 6
 420 54 l 6
 541 54 612 119 654 269 c 5
 707 269 l 5
 695 0 l 5
 16 0 l 5
 16 54 l 5
 31 54 l 6
 83 54 104 58 113 69 c 4
 120 77 120 81 120 144 c 6
 120 578 l 6
 120 641 120 645 113 653 c 4
 104 664 83 668 31 668 c 6
 16 668 l 5
 16 722 l 5
 687 722 l 5
EndSplineSet
EndChar

StartChar: F
Encoding: 70 70 39
Width: 722
Flags: MW
LayerCount: 2
Fore
SplineSet
684 722 m 1
 690 462 l 1
 638 462 l 1
 623 515 601 565 580 594 c 0
 546 641 485 668 411 668 c 2
 392 668 l 2
 351 668 327 661 316 646 c 0
 308 634 306 623 306 582 c 2
 306 401 l 1
 323 401 l 2
 402 401 450 450 461 543 c 1
 515 543 l 1
 515 204 l 1
 461 204 l 1
 450 296 402 346 323 346 c 2
 306 346 l 1
 306 144 l 2
 306 81 306 77 313 69 c 0
 322 58 343 54 396 54 c 2
 422 54 l 1
 422 0 l 1
 22 0 l 1
 22 54 l 1
 37 54 l 2
 89 54 110 58 119 69 c 0
 126 77 126 81 126 144 c 2
 126 578 l 2
 126 641 126 645 119 653 c 0
 110 664 89 668 37 668 c 2
 22 668 l 1
 22 722 l 1
 684 722 l 1
EndSplineSet
EndChar

StartChar: G
Encoding: 71 71 40
Width: 833
Flags: MW
LayerCount: 2
Fore
SplineSet
719 733 m 1
 728 446 l 1
 675 446 l 1
 642 598 555 685 437 685 c 0
 378 685 325 657 296 610 c 0
 259 550 239 462 239 356 c 0
 239 262 253 181 280 123 c 0
 305 69 355 37 416 37 c 0
 505 37 564 98 564 192 c 2
 564 206 l 2
 564 279 560 282 473 282 c 2
 462 282 l 1
 462 336 l 1
 817 336 l 1
 817 282 l 1
 760 281 744 278 735 268 c 0
 728 260 728 255 728 192 c 2
 728 -14 l 1
 675 -14 l 1
 626 84 l 1
 597 54 581 41 556 26 c 0
 510 0 449 -15 388 -15 c 0
 181 -15 39 134 39 350 c 0
 39 460 70 544 138 616 c 1
 212 696 310 737 425 737 c 0
 497 737 546 723 616 683 c 1
 675 733 l 1
 719 733 l 1
EndSplineSet
EndChar

StartChar: H
Encoding: 72 72 41
Width: 870
Flags: MW
LayerCount: 2
Fore
SplineSet
565 339 m 1
 304 339 l 1
 304 144 l 2
 304 80 304 77 311 69 c 0
 320 58 342 54 394 54 c 2
 409 54 l 1
 409 0 l 1
 20 0 l 1
 20 54 l 1
 35 54 l 2
 87 54 108 58 117 69 c 0
 124 77 124 81 124 144 c 2
 124 577 l 2
 124 641 124 645 117 653 c 0
 108 664 87 668 35 668 c 2
 20 668 l 1
 20 722 l 1
 409 722 l 1
 409 668 l 1
 394 668 l 2
 342 668 320 664 311 653 c 0
 304 645 304 641 304 577 c 2
 304 399 l 1
 565 399 l 1
 565 577 l 2
 565 640 565 645 558 653 c 0
 549 664 528 668 476 668 c 2
 461 668 l 1
 461 722 l 1
 850 722 l 1
 850 668 l 1
 835 668 l 2
 783 668 761 664 752 653 c 0
 745 645 745 641 745 577 c 2
 745 144 l 2
 745 80 745 77 752 69 c 0
 761 58 783 54 835 54 c 2
 850 54 l 1
 850 0 l 1
 461 0 l 1
 461 54 l 1
 476 54 l 2
 528 54 549 58 558 69 c 0
 565 77 565 81 565 144 c 2
 565 339 l 1
EndSplineSet
EndChar

StartChar: I
Encoding: 73 73 42
Width: 444
Flags: MW
LayerCount: 2
Fore
SplineSet
132 144 m 2
 132 578 l 2
 132 641 132 645 125 653 c 0
 116 664 95 668 43 668 c 2
 28 668 l 1
 28 722 l 1
 417 722 l 1
 417 668 l 1
 402 668 l 2
 350 668 328 664 319 653 c 0
 312 645 312 642 312 578 c 2
 312 144 l 2
 312 80 312 77 319 69 c 0
 328 58 350 54 402 54 c 2
 417 54 l 1
 417 0 l 1
 28 0 l 1
 28 54 l 1
 43 54 l 2
 95 54 116 58 125 69 c 0
 132 77 132 81 132 144 c 2
EndSplineSet
EndChar

StartChar: J
Encoding: 74 74 43
Width: 648
Flags: MW
LayerCount: 2
Fore
SplineSet
534 578 m 2
 534 280 l 2
 534 161 509 96 446 46 c 0
 395 5 328 -15 246 -15 c 0
 96 -15 4 60 4 182 c 0
 4 268 56 330 128 330 c 0
 188 330 231 287 231 228 c 0
 231 174 192 134 139 134 c 0
 131 134 124 135 115 137 c 0
 110 138 106 139 103 139 c 0
 92 139 84 131 84 120 c 0
 84 81 140 46 202 46 c 0
 254 46 302 69 327 105 c 0
 347 135 354 173 354 245 c 2
 354 578 l 2
 354 642 354 645 347 653 c 0
 338 664 317 668 265 668 c 2
 250 668 l 1
 250 722 l 1
 639 722 l 1
 639 668 l 1
 624 668 l 2
 572 668 550 664 541 653 c 0
 534 645 534 642 534 578 c 2
EndSplineSet
EndChar

StartChar: K
Encoding: 75 75 44
Width: 815
Flags: MW
LayerCount: 2
Fore
SplineSet
383 338 m 1
 299 250 l 1
 299 144 l 2
 299 81 299 77 306 69 c 0
 315 58 337 54 389 54 c 2
 404 54 l 1
 404 0 l 1
 15 0 l 1
 15 54 l 1
 30 54 l 2
 82 54 103 58 112 69 c 0
 119 77 119 81 119 144 c 2
 119 578 l 2
 119 641 119 645 112 653 c 0
 103 664 82 668 30 668 c 2
 15 668 l 1
 15 722 l 1
 404 722 l 1
 404 668 l 1
 389 668 l 2
 337 668 315 664 306 653 c 0
 299 645 299 641 299 578 c 2
 299 344 l 1
 520 578 l 2
 538 598 553 622 553 633 c 0
 553 656 527 668 478 668 c 2
 454 668 l 1
 454 722 l 1
 791 722 l 1
 791 668 l 1
 725 664 675 635 588 550 c 1
 505 463 l 1
 713 131 l 2
 759 59 763 57 818 54 c 1
 818 0 l 1
 454 0 l 1
 454 54 l 1
 467 54 l 2
 513 54 535 61 535 77 c 0
 535 86 531 95 523 109 c 2
 383 338 l 1
EndSplineSet
EndChar

StartChar: L
Encoding: 76 76 45
Width: 722
Flags: MW
LayerCount: 2
Fore
SplineSet
648 269 m 1
 701 269 l 1
 689 0 l 1
 19 0 l 1
 19 54 l 1
 34 54 l 2
 86 54 107 58 116 69 c 0
 123 77 123 81 123 145 c 2
 123 578 l 2
 123 641 123 645 116 653 c 0
 107 664 86 668 34 668 c 2
 19 668 l 1
 19 722 l 1
 415 722 l 1
 415 668 l 1
 393 668 l 2
 340 668 319 664 310 653 c 0
 303 645 303 641 303 578 c 2
 303 124 l 2
 303 91 306 80 319 68 c 0
 331 56 344 54 393 54 c 2
 414 54 l 2
 485 54 542 80 583 129 c 0
 610 162 628 200 648 269 c 1
EndSplineSet
EndChar

StartChar: M
Encoding: 77 77 46
Width: 981
Flags: MW
LayerCount: 2
Fore
SplineSet
338 722 m 1
 493 292 l 1
 639 722 l 1
 965 722 l 1
 965 668 l 1
 954 668 l 2
 901 668 880 664 871 653 c 0
 864 645 864 640 864 578 c 2
 864 144 l 2
 864 82 864 77 871 69 c 0
 880 58 901 54 954 54 c 2
 965 54 l 1
 965 0 l 1
 583 0 l 1
 583 54 l 1
 594 54 l 2
 647 54 668 58 677 69 c 0
 684 77 684 81 684 144 c 2
 684 643 l 1
 463 0 l 1
 411 0 l 1
 184 633 l 1
 184 217 l 2
 184 128 189 103 210 81 c 0
 226 64 254 55 294 54 c 1
 294 0 l 1
 9 0 l 1
 9 54 l 1
 48 55 75 64 91 81 c 0
 112 103 117 129 117 217 c 2
 117 578 l 2
 117 641 117 645 110 653 c 0
 101 664 80 668 27 668 c 2
 16 668 l 1
 16 722 l 1
 338 722 l 1
EndSplineSet
EndChar

StartChar: N
Encoding: 78 78 47
Width: 833
Flags: MW
LayerCount: 2
Fore
SplineSet
270 722 m 1
 656 270 l 1
 656 505 l 2
 656 593 651 619 630 641 c 0
 614 658 587 667 548 668 c 1
 548 722 l 1
 833 722 l 1
 833 668 l 1
 793 667 765 658 749 641 c 0
 728 619 723 594 723 505 c 2
 723 -7 l 1
 656 -7 l 1
 191 546 l 1
 191 217 l 2
 191 129 196 104 217 82 c 0
 233 65 258 57 301 55 c 1
 301 1 l 1
 16 1 l 1
 16 55 l 1
 59 57 82 65 98 82 c 0
 119 104 124 129 124 217 c 2
 124 611 l 1
 99 647 63 666 18 667 c 1
 18 722 l 1
 270 722 l 1
EndSplineSet
EndChar

StartChar: O
Encoding: 79 79 48
Width: 833
Flags: MW
LayerCount: 2
Fore
SplineSet
417 737 m 0
 515 737 593 710 660 652 c 0
 743 581 794 467 794 351 c 0
 794 234 746 132 660 63 c 0
 593 10 514 -15 412 -15 c 0
 195 -15 39 138 39 350 c 0
 39 467 89 580 173 652 c 0
 238 709 320 737 417 737 c 0
418 685 m 0
 359 685 319 663 290 614 c 0
 256 557 239 477 239 369 c 0
 239 264 257 176 290 114 c 0
 318 62 360 37 418 37 c 0
 532 37 594 147 594 350 c 0
 594 458 576 548 543 608 c 0
 514 659 472 685 418 685 c 0
EndSplineSet
EndChar

StartChar: P
Encoding: 80 80 49
Width: 759
Flags: MW
LayerCount: 2
Fore
SplineSet
308 310 m 1
 308 144 l 2
 308 80 308 77 315 68 c 0
 324 58 345 54 398 54 c 2
 420 54 l 1
 420 0 l 1
 24 0 l 1
 24 54 l 1
 39 54 l 2
 91 54 112 58 121 68 c 0
 128 77 128 80 128 144 c 2
 128 577 l 2
 128 641 128 644 121 653 c 0
 112 663 91 667 39 667 c 2
 24 667 l 1
 24 722 l 1
 421 722 l 2
 521 722 580 712 634 687 c 0
 698 657 735 596 735 521 c 0
 735 381 629 310 420 310 c 2
 308 310 l 1
308 365 m 1
 366 365 l 2
 495 365 542 407 542 522 c 0
 542 622 498 667 403 667 c 2
 363 667 l 2
 318 667 308 656 308 607 c 2
 308 365 l 1
EndSplineSet
EndChar

StartChar: Q
Encoding: 81 81 50
Width: 833
Flags: MW
LayerCount: 2
Fore
SplineSet
472 -25 m 2
 472 -10 l 1
 448 -14 433 -15 409 -15 c 0
 297 -15 206 25 134 107 c 0
 71 178 38 266 38 363 c 0
 38 575 201 737 416 737 c 0
 624 737 790 571 790 363 c 0
 790 234 726 114 620 44 c 1
 657 -68 674 -95 705 -95 c 0
 736 -95 749 -74 754 -18 c 1
 808 -18 l 1
 808 -26 l 2
 808 -122 738 -188 636 -188 c 0
 532 -188 472 -129 472 -25 c 2
565 175 m 1
 581 217 590 290 590 370 c 0
 590 455 576 533 551 591 c 0
 524 653 477 685 414 685 c 0
 298 685 238 581 238 379 c 0
 238 296 245 232 259 189 c 1
 271 220 279 235 295 250 c 0
 321 275 361 290 403 290 c 0
 454 290 503 268 535 231 c 0
 548 215 554 203 565 175 c 1
474 53 m 1
 476 75 477 90 477 100 c 0
 477 186 445 233 387 233 c 0
 335 233 299 191 299 132 c 0
 299 75 344 37 411 37 c 0
 435 37 448 40 474 53 c 1
EndSplineSet
EndChar

StartChar: R
Encoding: 82 82 51
Width: 815
Flags: MW
LayerCount: 2
Fore
SplineSet
304 347 m 1
 304 145 l 2
 304 81 304 78 311 69 c 0
 320 59 342 55 394 55 c 2
 420 55 l 1
 420 1 l 1
 20 1 l 1
 20 55 l 1
 35 55 l 2
 87 55 108 59 117 69 c 0
 124 78 124 81 124 145 c 2
 124 578 l 2
 124 642 124 645 117 654 c 0
 108 664 87 668 35 668 c 2
 20 668 l 1
 20 722 l 1
 447 722 l 2
 539 722 606 710 644 686 c 0
 696 652 725 601 725 541 c 0
 725 476 690 421 629 390 c 0
 604 378 578 371 525 361 c 1
 612 332 650 287 665 197 c 1
 672 159 l 2
 674 145 676 135 676 131 c 0
 681 99 682 92 688 84 c 0
 694 75 706 69 717 69 c 0
 747 69 762 101 763 164 c 1
 817 164 l 1
 817 152 l 2
 817 46 755 -15 647 -15 c 0
 560 -15 504 26 487 104 c 0
 484 120 479 162 473 229 c 1
 469 286 465 298 449 317 c 0
 431 337 403 347 360 347 c 2
 304 347 l 1
304 402 m 1
 359 402 l 2
 492 402 534 434 534 536 c 0
 534 627 492 668 399 668 c 2
 375 668 l 2
 311 668 304 661 304 604 c 2
 304 402 l 1
EndSplineSet
EndChar

StartChar: S
Encoding: 83 83 52
Width: 667
Flags: MW
LayerCount: 2
Fore
SplineSet
588 729 m 1
 601 470 l 1
 548 470 l 1
 489 612 406 685 302 685 c 0
 223 685 167 641 167 580 c 0
 167 539 190 510 235 494 c 0
 260 485 260 485 337 470 c 1
 385 459 l 1
 558 421 633 350 633 223 c 0
 633 83 525 -15 369 -15 c 0
 289 -15 225 6 164 52 c 1
 102 -7 l 1
 57 -7 l 1
 51 276 l 1
 102 276 l 1
 157 126 256 37 369 37 c 0
 456 37 513 84 513 154 c 0
 513 189 497 219 469 234 c 0
 445 247 425 252 361 264 c 2
 299 276 l 1
 142 305 52 392 52 514 c 0
 52 647 157 737 311 737 c 0
 381 737 435 721 491 683 c 1
 543 729 l 1
 588 729 l 1
EndSplineSet
EndChar

StartChar: T
Encoding: 84 84 53
Width: 722
Flags: MW
LayerCount: 2
Fore
SplineSet
692 722 m 1
 707 451 l 1
 654 451 l 1
 639 532 623 574 595 611 c 0
 563 652 530 670 487 670 c 0
 457 670 451 663 451 629 c 2
 451 144 l 2
 451 81 451 77 458 69 c 0
 467 58 488 54 541 54 c 2
 563 54 l 1
 563 0 l 1
 159 0 l 1
 159 54 l 1
 181 54 l 2
 234 54 255 58 264 69 c 0
 271 77 271 81 271 144 c 2
 271 629 l 2
 271 663 265 670 235 670 c 0
 189 670 151 647 119 599 c 0
 95 564 81 525 68 451 c 1
 15 451 l 1
 30 722 l 1
 692 722 l 1
EndSplineSet
EndChar

StartChar: U
Encoding: 85 85 54
Width: 833
Flags: MW
LayerCount: 2
Fore
SplineSet
299 578 m 2
 299 258 l 2
 299 185 310 136 332 109 c 1
 360 77 403 60 460 60 c 0
 543 60 601 92 630 155 c 0
 643 183 647 222 647 304 c 2
 647 505 l 2
 647 594 642 619 621 641 c 0
 605 658 578 667 539 668 c 1
 539 722 l 1
 824 722 l 1
 824 668 l 1
 784 667 756 658 740 641 c 0
 719 619 714 593 714 505 c 2
 714 304 l 2
 714 186 706 141 678 96 c 0
 629 19 552 -15 424 -15 c 0
 283 -15 186 25 145 100 c 0
 126 135 119 177 119 261 c 2
 119 578 l 2
 119 641 119 645 112 653 c 0
 103 664 82 668 30 668 c 2
 15 668 l 1
 15 722 l 1
 404 722 l 1
 404 668 l 1
 389 668 l 2
 337 668 315 664 306 653 c 0
 299 645 299 641 299 578 c 2
EndSplineSet
EndChar

StartChar: V
Encoding: 86 86 55
Width: 759
Flags: MW
LayerCount: 2
Fore
SplineSet
429 206 m 1
 571 562 l 2
 577 577 580 589 580 600 c 0
 580 624 567 646 545 657 c 0
 531 665 515 668 483 668 c 1
 483 722 l 1
 778 722 l 1
 778 668 l 1
 717 662 672 621 640 541 c 2
 411 -15 l 1
 323 -15 l 1
 80 599 l 2
 57 657 41 668 -18 668 c 1
 -18 722 l 1
 344 722 l 1
 344 668 l 1
 323 668 l 2
 279 668 261 661 261 643 c 0
 261 637 264 626 270 610 c 2
 429 206 l 1
EndSplineSet
EndChar

StartChar: W
Encoding: 87 87 56
Width: 981
Flags: MW
LayerCount: 2
Fore
SplineSet
711 258 m 1
 798 543 l 2
 809 579 811 590 811 604 c 0
 811 628 798 649 777 659 c 0
 764 665 750 667 721 668 c 1
 721 722 l 1
 973 722 l 1
 973 668 l 1
 913 656 894 633 865 534 c 1
 691 -15 l 1
 618 -15 l 1
 493 392 l 1
 361 -15 l 1
 286 -15 l 1
 82 610 l 2
 66 658 53 668 8 668 c 2
 6 668 l 1
 6 722 l 1
 316 722 l 1
 316 668 l 1
 269 666 257 661 257 643 c 0
 257 636 259 626 265 609 c 2
 381 251 l 1
 461 502 l 1
 425 615 l 1
 410 658 400 666 361 668 c 1
 361 722 l 1
 657 722 l 1
 657 668 l 1
 610 665 598 660 598 641 c 0
 598 635 599 629 604 614 c 2
 711 258 l 1
EndSplineSet
EndChar

StartChar: X
Encoding: 88 88 57
Width: 722
Flags: MW
LayerCount: 2
Fore
SplineSet
431 413 m 1
 608 155 l 2
 670 65 682 56 735 54 c 1
 735 0 l 1
 375 0 l 1
 375 54 l 1
 425 55 441 61 441 78 c 0
 441 88 436 102 428 112 c 2
 319 268 l 1
 231 156 l 2
 218 140 211 122 211 106 c 0
 211 71 243 56 319 54 c 1
 319 0 l 1
 -12 0 l 1
 -12 54 l 1
 46 56 74 73 132 144 c 2
 279 325 l 1
 74 617 l 2
 46 657 32 665 -12 668 c 1
 -12 722 l 1
 346 722 l 1
 346 668 l 1
 287 666 278 663 278 644 c 0
 278 636 281 628 288 618 c 2
 393 467 l 1
 463 553 l 2
 487 581 497 601 497 617 c 0
 497 650 464 668 401 668 c 1
 401 722 l 1
 709 722 l 1
 709 668 l 1
 657 664 622 644 577 591 c 1
 431 413 l 1
EndSplineSet
EndChar

StartChar: Y
Encoding: 89 89 58
Width: 722
Flags: MW
LayerCount: 2
Fore
SplineSet
420 396 m 1
 520 574 l 2
 528 590 534 608 534 620 c 0
 534 649 505 668 461 668 c 2
 440 668 l 1
 440 722 l 1
 735 722 l 1
 735 668 l 1
 679 664 639 637 601 575 c 1
 451 318 l 1
 451 144 l 2
 451 81 451 77 458 69 c 0
 467 58 488 54 541 54 c 2
 563 54 l 1
 563 0 l 1
 159 0 l 1
 159 54 l 1
 181 54 l 2
 234 54 255 58 264 69 c 0
 271 77 271 82 271 144 c 2
 271 305 l 1
 67 632 l 2
 48 661 33 668 -12 668 c 1
 -12 722 l 1
 348 722 l 1
 348 668 l 1
 332 668 l 2
 294 668 276 661 276 646 c 0
 276 637 278 631 288 615 c 2
 420 396 l 1
EndSplineSet
EndChar

StartChar: Z
Encoding: 90 90 59
Width: 667
Flags: MW
LayerCount: 2
Fore
SplineSet
634 722 m 1
 634 666 l 1
 233 55 l 1
 322 55 l 2
 393 55 421 59 452 75 c 0
 516 107 563 180 581 276 c 1
 634 276 l 1
 618 0 l 1
 24 0 l 1
 24 58 l 1
 425 667 l 1
 351 667 l 2
 245 667 198 648 154 586 c 0
 132 556 117 524 100 470 c 1
 49 470 l 1
 61 722 l 1
 634 722 l 1
EndSplineSet
EndChar

StartChar: bracketleft
Encoding: 91 91 60
Width: 389
Flags: MW
LayerCount: 2
Fore
SplineSet
339 722 m 1
 339 672 l 1
 207 672 l 1
 207 -58 l 1
 339 -58 l 1
 339 -108 l 1
 84 -108 l 1
 84 722 l 1
 339 722 l 1
EndSplineSet
EndChar

StartChar: backslash
Encoding: 92 92 61
Width: 606
Flags: MW
LayerCount: 2
Fore
SplineSet
124 737 m 1
 555 0 l 1
 481 0 l 1
 50 737 l 1
 124 737 l 1
EndSplineSet
EndChar

StartChar: bracketright
Encoding: 93 93 62
Width: 389
Flags: MW
LayerCount: 2
Fore
SplineSet
31 -108 m 1
 31 -58 l 1
 163 -58 l 1
 163 672 l 1
 31 672 l 1
 31 722 l 1
 286 722 l 1
 286 -108 l 1
 31 -108 l 1
EndSplineSet
EndChar

StartChar: asciicircum
Encoding: 94 94 63
Width: 606
Flags: MW
LayerCount: 2
Fore
SplineSet
554 318 m 1
 435 318 l 1
 304 568 l 1
 171 318 l 1
 52 318 l 1
 261 722 l 1
 346 722 l 1
 554 318 l 1
EndSplineSet
EndChar

StartChar: underscore
Encoding: 95 95 64
Width: 500
Flags: MW
LayerCount: 2
Fore
SplineSet
0 -58 m 1
 500 -58 l 1
 500 -148 l 1
 0 -148 l 1
 0 -58 l 1
EndSplineSet
EndChar

StartChar: grave
Encoding: 96 96 65
Width: 333
Flags: MW
LayerCount: 2
Fore
SplineSet
249 545 m 1
 185 545 l 1
 38 632 l 2
 14 646 2 664 2 684 c 0
 2 712 27 734 59 734 c 0
 76 734 92 728 107 716 c 0
 113 712 113 712 136 683 c 2
 249 545 l 1
EndSplineSet
EndChar

StartChar: a
Encoding: 97 97 66
Width: 611
Flags: MW
LayerCount: 2
Fore
SplineSet
516 318 m 2
 516 142 l 2
 516 84 521 70 543 70 c 0
 550 70 553 71 562 77 c 0
 570 82 576 84 582 84 c 0
 591 84 597 78 597 68 c 0
 597 25 544 -15 487 -15 c 0
 436 -15 398 11 381 56 c 1
 328 4 276 -15 190 -15 c 0
 93 -15 36 28 36 102 c 0
 36 162 70 202 143 232 c 0
 190 251 225 260 326 282 c 0
 335 283 348 286 359 289 c 1
 359 341 l 2
 359 410 337 436 277 436 c 0
 237 436 203 421 203 404 c 0
 203 399 203 398 212 387 c 0
 221 375 226 361 226 349 c 0
 226 312 190 284 144 284 c 0
 98 284 63 316 63 359 c 0
 63 437 153 488 291 488 c 0
 369 488 432 472 469 442 c 0
 504 414 516 383 516 318 c 2
359 235 m 1
 306 223 l 2
 234 206 203 176 203 123 c 0
 203 80 228 53 267 53 c 0
 323 53 359 102 359 179 c 2
 359 235 l 1
EndSplineSet
EndChar

StartChar: b
Encoding: 98 98 67
Width: 648
Flags: MW
LayerCount: 2
Fore
SplineSet
240 737 m 1
 240 413 l 1
 281 465 328 488 395 488 c 0
 522 488 612 387 612 245 c 0
 612 91 508 -15 356 -15 c 0
 281 -15 230 9 183 66 c 1
 118 -14 l 1
 69 -14 l 1
 79 41 83 109 83 206 c 2
 83 578 l 2
 83 667 80 671 19 671 c 2
 0 671 l 1
 0 722 l 1
 240 737 l 1
345 413 m 0
 275 413 239 345 239 212 c 0
 239 99 274 37 340 37 c 0
 405 37 439 104 439 233 c 0
 439 353 408 413 345 413 c 0
EndSplineSet
EndChar

StartChar: c
Encoding: 99 99 68
Width: 556
Flags: MW
LayerCount: 2
Fore
SplineSet
475 177 m 1
 527 160 l 1
 512 113 496 83 467 53 c 1
 423 5 374 -15 300 -15 c 0
 139 -15 31 83 31 229 c 0
 31 380 151 488 317 488 c 0
 438 488 516 434 516 352 c 0
 516 301 481 267 426 267 c 0
 378 267 344 297 344 340 c 0
 344 359 348 368 365 389 c 0
 374 400 376 405 376 408 c 0
 376 424 352 436 323 436 c 0
 248 436 204 366 204 247 c 0
 204 123 251 53 332 53 c 0
 373 53 413 72 437 104 c 0
 452 124 461 140 475 177 c 1
EndSplineSet
EndChar

StartChar: d
Encoding: 100 100 69
Width: 667
Flags: MW
LayerCount: 2
Fore
SplineSet
568 737 m 1
 568 122 l 2
 568 92 571 80 580 72 c 0
 588 65 591 65 627 65 c 2
 654 65 l 1
 654 11 l 1
 420 0 l 1
 420 72 l 1
 379 12 328 -15 256 -15 c 0
 126 -15 37 84 37 229 c 0
 37 375 137 488 265 488 c 0
 328 488 373 467 411 421 c 1
 411 578 l 2
 411 667 408 671 347 671 c 2
 315 671 l 1
 315 722 l 1
 568 737 l 1
311 420 m 0
 247 420 210 350 210 231 c 0
 210 117 246 53 309 53 c 0
 371 53 413 128 413 237 c 0
 413 348 373 420 311 420 c 0
EndSplineSet
EndChar

StartChar: e
Encoding: 101 101 70
Width: 574
Flags: MW
LayerCount: 2
Fore
SplineSet
540 228 m 1
 205 228 l 1
 206 171 213 140 230 113 c 0
 255 75 295 53 341 53 c 0
 406 53 451 86 491 164 c 1
 540 144 l 1
 496 37 419 -15 302 -15 c 0
 226 -15 159 7 113 46 c 0
 63 89 32 161 32 232 c 0
 32 298 59 364 104 411 c 0
 154 462 221 488 301 488 c 0
 447 488 540 393 540 244 c 2
 540 228 l 1
206 283 m 1
 356 283 l 2
 376 283 383 291 383 315 c 0
 383 394 355 436 304 436 c 0
 244 436 206 378 206 283 c 1
EndSplineSet
EndChar

StartChar: f
Encoding: 102 102 71
Width: 389
Flags: MW
LayerCount: 2
Fore
SplineSet
383 473 m 1
 383 413 l 1
 258 413 l 1
 258 144 l 1
 258 97 l 2
 258 57 269 50 333 50 c 2
 351 50 l 1
 351 0 l 1
 21 0 l 1
 21 50 l 1
 25 50 l 2
 90 50 101 57 101 97 c 2
 101 144 l 1
 101 413 l 1
 14 413 l 1
 14 473 l 1
 101 473 l 1
 101 486 l 2
 101 634 188 733 319 733 c 0
 402 733 464 686 464 624 c 0
 464 577 430 542 384 542 c 0
 342 542 309 572 309 611 c 0
 309 630 319 652 334 664 c 0
 338 668 339 670 339 673 c 0
 339 677 332 681 323 681 c 0
 303 681 280 664 270 641 c 0
 260 619 258 597 258 530 c 2
 258 473 l 1
 383 473 l 1
EndSplineSet
EndChar

StartChar: g
Encoding: 103 103 72
Width: 611
Flags: MW
LayerCount: 2
Fore
SplineSet
263 97 m 2
 332 97 l 2
 404 97 448 93 481 82 c 1
 531 67 564 20 564 -36 c 0
 564 -143 460 -202 274 -202 c 0
 111 -202 30 -170 30 -104 c 0
 30 -57 69 -25 136 -15 c 1
 78 1 45 34 45 78 c 0
 45 130 83 162 161 176 c 1
 89 201 51 250 51 317 c 0
 51 416 150 488 287 488 c 0
 338 488 383 478 421 459 c 1
 465 514 504 538 549 538 c 0
 593 538 623 512 623 473 c 0
 623 437 596 409 561 409 c 0
 534 409 507 431 507 454 c 2
 507 458 l 2
 507 462 505 463 502 463 c 0
 490 463 478 453 465 435 c 1
 509 399 525 369 525 322 c 0
 525 261 491 210 433 183 c 0
 395 165 358 159 292 159 c 2
 274 159 l 2
 216 159 198 151 198 126 c 0
 198 102 210 97 263 97 c 2
290 436 m 0
 239 436 213 399 213 326 c 0
 213 294 218 265 229 243 c 1
 240 218 259 207 289 207 c 0
 336 207 363 249 363 320 c 0
 363 396 338 436 290 436 c 0
328 -43 m 2
 197 -43 l 1
 172 -54 160 -70 160 -92 c 0
 160 -129 204 -150 281 -150 c 0
 384 -150 434 -130 434 -89 c 0
 434 -76 428 -62 419 -56 c 0
 402 -45 390 -43 328 -43 c 2
EndSplineSet
EndChar

StartChar: h
Encoding: 104 104 73
Width: 685
Flags: MW
LayerCount: 2
Fore
SplineSet
256 737 m 1
 256 396 l 1
 298 460 350 488 426 488 c 0
 478 488 522 471 549 440 c 1
 576 411 587 373 587 311 c 2
 587 144 l 1
 587 98 l 2
 587 57 598 51 662 51 c 2
 666 51 l 1
 666 0 l 1
 361 0 l 1
 361 51 l 1
 420 51 430 58 430 97 c 2
 430 144 l 1
 430 297 l 2
 430 361 405 395 359 395 c 0
 322 395 287 372 271 336 c 0
 260 312 256 286 256 241 c 2
 256 144 l 1
 256 98 l 2
 256 57 266 51 324 51 c 1
 324 0 l 1
 19 0 l 1
 19 51 l 1
 23 51 l 2
 88 51 99 57 99 97 c 2
 99 144 l 1
 99 574 l 1
 98 669 97 671 35 671 c 2
 16 671 l 1
 16 722 l 1
 256 737 l 1
EndSplineSet
EndChar

StartChar: i
Encoding: 105 105 74
Width: 370
Flags: HMW
LayerCount: 2
Fore
SplineSet
182 737 m 0
 230 737 270 697 270 649 c 0
 270 599 230 560 180 560 c 0
 133 560 93 601 93 649 c 0
 93 697 133 737 182 737 c 0
EndSplineSet
Refer: 241 305 S 1 0 0 1 0 0 2
EndChar

StartChar: j
Encoding: 106 106 75
Width: 352
Flags: HMW
LayerCount: 2
Fore
SplineSet
184 737 m 0
 232 737 272 697 272 649 c 0
 272 599 232 560 182 560 c 0
 135 560 95 601 95 649 c 0
 95 697 135 737 184 737 c 0
EndSplineSet
Refer: 345 567 S 1 0 0 1 0 0 2
EndChar

StartChar: k
Encoding: 107 107 76
Width: 667
Flags: MW
LayerCount: 2
Fore
SplineSet
252 737 m 1
 252 246 l 1
 376 354 l 2
 394 370 401 382 401 394 c 0
 401 412 379 422 341 422 c 2
 329 422 l 1
 329 473 l 1
 623 473 l 1
 623 422 l 1
 600 422 l 2
 562 422 533 410 492 375 c 2
 415 311 l 1
 572 115 l 1
 616 58 625 51 660 51 c 1
 660 0 l 1
 354 0 l 1
 354 51 l 1
 364 51 l 2
 390 51 403 58 403 71 c 0
 403 80 398 92 390 102 c 2
 298 213 l 1
 252 172 l 1
 252 144 l 1
 252 98 l 2
 252 58 262 51 320 51 c 1
 320 0 l 1
 15 0 l 1
 15 51 l 1
 19 51 l 2
 84 51 95 57 95 97 c 2
 95 144 l 1
 95 578 l 2
 95 667 92 671 31 671 c 2
 12 671 l 1
 12 722 l 1
 252 737 l 1
EndSplineSet
EndChar

StartChar: l
Encoding: 108 108 77
Width: 352
Flags: MW
LayerCount: 2
Fore
SplineSet
256 737 m 1
 256 144 l 1
 256 97 l 2
 256 72 259 64 271 58 c 0
 278 54 305 51 324 51 c 2
 331 51 l 1
 331 0 l 1
 19 0 l 1
 19 51 l 1
 23 51 l 2
 88 51 99 57 99 97 c 2
 99 144 l 1
 99 578 l 2
 99 667 96 671 35 671 c 2
 16 671 l 1
 16 722 l 1
 256 737 l 1
EndSplineSet
EndChar

StartChar: m
Encoding: 109 109 78
Width: 963
Flags: MW
LayerCount: 2
Fore
SplineSet
248 473 m 1
 248 394 l 1
 288 457 341 488 408 488 c 0
 475 488 528 454 549 398 c 1
 596 462 642 488 706 488 c 0
 795 488 863 425 863 343 c 2
 863 144 l 1
 863 97 l 2
 863 58 874 51 938 51 c 2
 942 51 l 1
 942 0 l 1
 648 0 l 1
 648 51 l 1
 699 52 706 58 706 97 c 2
 706 144 l 1
 706 306 l 2
 706 368 689 395 651 395 c 0
 595 395 560 349 560 278 c 2
 560 144 l 1
 560 97 l 2
 560 58 567 52 618 51 c 1
 618 0 l 1
 346 0 l 1
 346 51 l 1
 396 52 403 58 403 98 c 2
 403 144 l 1
 403 302 l 2
 403 368 387 395 348 395 c 0
 293 395 257 349 257 278 c 2
 257 144 l 1
 257 97 l 2
 257 58 264 52 315 51 c 1
 315 0 l 1
 20 0 l 1
 20 51 l 1
 25 51 l 2
 89 51 100 57 100 98 c 2
 100 144 l 1
 100 321 l 2
 100 410 97 415 36 415 c 2
 20 415 l 1
 20 466 l 1
 248 473 l 1
EndSplineSet
EndChar

StartChar: n
Encoding: 110 110 79
Width: 685
Flags: MW
LayerCount: 2
Fore
SplineSet
249 473 m 1
 249 385 l 1
 298 459 348 488 427 488 c 0
 479 488 524 471 551 440 c 1
 578 411 589 373 589 311 c 2
 589 144 l 1
 589 98 l 2
 589 57 600 51 664 51 c 2
 668 51 l 1
 668 0 l 1
 363 0 l 1
 363 51 l 1
 422 51 432 58 432 97 c 2
 432 144 l 1
 432 297 l 2
 432 361 406 395 359 395 c 0
 323 395 288 372 272 336 c 1
 260 312 256 286 256 241 c 2
 256 144 l 1
 256 97 l 2
 256 58 266 51 325 51 c 1
 325 0 l 1
 20 0 l 1
 20 51 l 1
 24 51 l 2
 88 51 99 57 99 98 c 2
 99 144 l 1
 99 318 l 2
 99 411 96 415 35 415 c 2
 20 415 l 1
 20 466 l 1
 249 473 l 1
EndSplineSet
EndChar

StartChar: o
Encoding: 111 111 80
Width: 611
Flags: MW
LayerCount: 2
Fore
SplineSet
308 488 m 0
 460 488 579 376 579 234 c 0
 579 91 462 -15 304 -15 c 0
 146 -15 31 91 31 236 c 0
 31 380 149 488 308 488 c 0
306 436 m 0
 239 436 204 368 204 236 c 0
 204 104 238 37 305 37 c 0
 369 37 406 108 406 235 c 0
 406 287 398 344 386 377 c 0
 373 412 341 436 306 436 c 0
EndSplineSet
EndChar

StartChar: p
Encoding: 112 112 81
Width: 667
Flags: MW
LayerCount: 2
Fore
SplineSet
254 473 m 1
 254 409 l 1
 299 466 342 488 410 488 c 0
 538 488 632 387 632 249 c 0
 632 99 530 -15 396 -15 c 0
 339 -15 294 6 254 50 c 1
 254 -58 l 1
 254 -105 l 2
 254 -145 265 -152 330 -152 c 2
 341 -152 l 1
 341 -202 l 1
 18 -202 l 1
 18 -152 l 1
 22 -152 l 2
 86 -152 97 -145 97 -105 c 2
 97 -58 l 1
 97 318 l 1
 96 413 95 415 33 415 c 2
 18 415 l 1
 18 466 l 1
 254 473 l 1
366 413 m 0
 293 413 253 347 253 229 c 0
 253 116 291 53 358 53 c 0
 421 53 459 120 459 232 c 0
 459 350 426 413 366 413 c 0
EndSplineSet
EndChar

StartChar: q
Encoding: 113 113 82
Width: 648
Flags: MW
LayerCount: 2
Fore
SplineSet
527 487 m 1
 576 487 l 1
 566 408 561 333 561 272 c 2
 561 -58 l 1
 561 -105 l 2
 561 -145 572 -152 636 -152 c 2
 640 -152 l 1
 640 -202 l 1
 317 -202 l 1
 317 -152 l 1
 328 -152 l 2
 393 -152 404 -145 404 -105 c 2
 404 -58 l 1
 404 58 l 1
 361 8 313 -15 250 -15 c 0
 192 -15 130 12 95 53 c 1
 58 94 34 166 34 232 c 0
 34 379 143 488 289 488 c 0
 365 488 418 463 463 407 c 1
 527 487 l 1
308 436 m 0
 242 436 207 368 207 236 c 0
 207 116 240 53 304 53 c 0
 368 53 407 129 407 253 c 0
 407 306 402 342 390 372 c 0
 374 411 342 436 308 436 c 0
EndSplineSet
EndChar

StartChar: r
Encoding: 114 114 83
Width: 519
Flags: MW
LayerCount: 2
Fore
SplineSet
241 473 m 1
 241 352 l 1
 277 444 330 488 407 488 c 0
 471 488 517 445 517 387 c 0
 517 338 480 301 431 301 c 0
 388 301 356 332 356 375 c 0
 356 393 360 404 373 422 c 1
 339 412 318 394 297 357 c 0
 272 313 255 234 255 164 c 2
 255 144 l 1
 255 98 l 2
 255 57 266 51 330 51 c 2
 352 51 l 1
 352 0 l 1
 18 0 l 1
 18 51 l 1
 22 51 l 2
 86 51 97 57 97 98 c 2
 97 144 l 1
 97 318 l 2
 97 411 94 415 33 415 c 2
 18 415 l 1
 18 466 l 1
 241 473 l 1
EndSplineSet
EndChar

StartChar: s
Encoding: 115 115 84
Width: 500
Flags: MW
LayerCount: 2
Fore
SplineSet
439 478 m 1
 443 320 l 1
 396 320 l 1
 347 402 300 436 236 436 c 0
 187 436 152 412 152 378 c 0
 152 352 165 342 214 329 c 2
 304 307 l 2
 376 289 397 280 423 257 c 0
 451 232 466 197 466 155 c 0
 466 55 383 -15 265 -15 c 0
 213 -15 161 -2 124 20 c 1
 85 2 l 1
 43 2 l 1
 38 175 l 1
 83 175 l 1
 131 80 188 37 265 37 c 0
 318 37 351 60 351 96 c 0
 351 126 331 143 281 154 c 2
 208 170 l 2
 143 184 114 198 84 227 c 0
 57 253 42 288 42 326 c 0
 42 420 123 488 235 488 c 0
 283 488 321 478 359 456 c 1
 396 478 l 1
 439 478 l 1
EndSplineSet
EndChar

StartChar: t
Encoding: 116 116 85
Width: 426
Flags: MW
LayerCount: 2
Fore
SplineSet
381 473 m 1
 381 413 l 1
 251 413 l 1
 251 156 l 2
 251 88 259 70 288 70 c 0
 328 70 351 110 351 181 c 2
 351 186 l 1
 404 186 l 1
 405 176 405 168 405 163 c 0
 405 120 390 72 365 40 c 0
 338 4 293 -15 236 -15 c 0
 179 -15 136 5 115 40 c 0
 98 68 94 92 94 174 c 2
 94 413 l 1
 23 413 l 1
 23 465 l 1
 118 476 172 543 188 671 c 1
 251 671 l 1
 251 473 l 1
 381 473 l 1
EndSplineSet
EndChar

StartChar: u
Encoding: 117 117 86
Width: 685
Flags: MW
LayerCount: 2
Fore
SplineSet
584 473 m 1
 584 131 l 1
 584 108 l 2
 584 72 592 65 639 65 c 2
 667 65 l 1
 667 11 l 1
 434 0 l 1
 434 82 l 1
 376 11 328 -15 257 -15 c 0
 189 -15 136 16 109 71 c 0
 95 99 93 117 93 191 c 2
 93 318 l 1
 92 413 91 415 29 415 c 2
 13 415 l 1
 13 466 l 1
 250 473 l 1
 250 185 l 2
 250 109 271 78 321 78 c 0
 359 78 394 101 410 135 c 1
 423 160 427 188 427 238 c 2
 427 318 l 2
 427 411 424 415 363 415 c 2
 347 415 l 1
 347 466 l 1
 584 473 l 1
EndSplineSet
EndChar

StartChar: v
Encoding: 118 118 87
Width: 611
Flags: MW
LayerCount: 2
Fore
SplineSet
357 140 m 1
 430 324 l 2
 445 361 448 370 448 384 c 0
 448 412 426 423 371 423 c 1
 371 473 l 1
 598 473 l 1
 598 423 l 1
 594 423 l 2
 554 423 532 402 503 335 c 2
 349 -14 l 1
 264 -14 l 1
 80 370 l 2
 59 414 49 421 12 423 c 1
 12 473 l 1
 294 473 l 1
 294 423 l 1
 256 423 242 417 242 400 c 0
 242 394 245 384 250 374 c 2
 357 140 l 1
EndSplineSet
EndChar

StartChar: w
Encoding: 119 119 88
Width: 889
Flags: MW
LayerCount: 2
Fore
SplineSet
642 154 m 1
 712 324 l 2
 722 348 726 364 726 376 c 0
 726 404 699 422 657 422 c 2
 650 422 l 1
 650 473 l 1
 876 473 l 1
 876 422 l 1
 831 419 811 401 782 337 c 2
 625 -14 l 1
 550 -14 l 1
 443 249 l 1
 329 -14 l 1
 253 -14 l 1
 90 366 l 2
 72 408 58 420 19 422 c 1
 19 473 l 1
 295 473 l 1
 295 422 l 1
 255 421 246 417 246 398 c 0
 246 393 246 393 253 375 c 2
 340 154 l 1
 412 324 l 1
 387 384 l 2
 374 415 363 422 326 422 c 1
 326 473 l 1
 605 473 l 1
 605 422 l 1
 598 422 l 2
 560 422 544 415 544 399 c 0
 544 394 546 386 550 377 c 2
 642 154 l 1
EndSplineSet
EndChar

StartChar: x
Encoding: 120 120 89
Width: 611
Flags: MW
LayerCount: 2
Fore
SplineSet
370 272 m 1
 508 108 l 2
 550 59 561 52 598 51 c 1
 598 0 l 1
 284 0 l 1
 284 51 l 1
 291 51 l 2
 318 51 331 58 331 74 c 0
 331 81 328 87 320 96 c 2
 261 167 l 1
 201 108 l 2
 192 99 187 89 187 79 c 0
 187 62 205 51 234 51 c 2
 247 51 l 1
 247 0 l 1
 13 0 l 1
 13 51 l 1
 43 52 66 64 102 97 c 2
 223 212 l 1
 80 383 l 2
 54 414 43 420 13 422 c 1
 13 473 l 1
 309 473 l 1
 309 422 l 1
 298 422 l 2
 277 422 265 416 265 406 c 0
 265 400 268 394 276 385 c 2
 333 316 l 1
 384 365 l 2
 399 379 405 389 405 399 c 0
 405 413 390 422 365 422 c 2
 342 422 l 1
 342 473 l 1
 588 473 l 1
 588 422 l 1
 545 422 515 408 474 370 c 2
 370 272 l 1
EndSplineSet
EndChar

StartChar: y
Encoding: 121 121 90
Width: 611
Flags: MW
LayerCount: 2
Fore
SplineSet
359 158 m 1
 442 341 l 2
 447 353 451 371 451 382 c 0
 451 408 427 422 384 422 c 2
 373 422 l 1
 373 473 l 1
 598 473 l 1
 598 422 l 1
 557 420 536 401 507 340 c 2
 332 -37 l 2
 278 -155 218 -206 134 -206 c 0
 59 -206 10 -169 10 -114 c 0
 10 -65 48 -27 97 -27 c 0
 141 -27 172 -55 172 -95 c 0
 172 -109 170 -119 164 -129 c 0
 163 -130 163 -131 163 -132 c 0
 163 -135 167 -138 172 -138 c 0
 200 -138 231 -110 257 -59 c 1
 280 -16 l 1
 75 382 l 2
 59 415 51 421 14 422 c 1
 14 473 l 1
 298 473 l 1
 298 422 l 1
 280 422 l 2
 256 422 245 415 245 401 c 0
 245 394 248 384 253 374 c 2
 359 158 l 1
EndSplineSet
EndChar

StartChar: z
Encoding: 122 122 91
Width: 537
Flags: MW
LayerCount: 2
Fore
SplineSet
495 473 m 1
 495 425 l 1
 225 50 l 1
 287 50 l 2
 355 50 371 56 397 88 c 0
 419 115 432 142 446 190 c 1
 495 190 l 1
 485 0 l 1
 35 0 l 1
 35 44 l 1
 307 423 l 1
 256 423 l 2
 186 423 168 418 146 395 c 0
 131 379 121 355 102 293 c 1
 51 293 l 1
 63 473 l 1
 495 473 l 1
EndSplineSet
EndChar

StartChar: braceleft
Encoding: 123 123 92
Width: 389
Flags: MW
LayerCount: 2
Fore
SplineSet
84 285 m 1
 84 329 l 1
 126 339 141 349 152 375 c 0
 159 392 160 402 160 462 c 2
 160 572 l 2
 160 638 170 674 196 695 c 1
 214 711 254 722 291 722 c 2
 343 722 l 1
 343 676 l 1
 298 672 283 653 283 606 c 2
 283 550 l 1
 283 432 l 2
 283 355 260 327 181 307 c 1
 260 287 283 259 283 182 c 2
 283 64 l 2
 283 -22 283 -22 292 -37 c 0
 302 -53 315 -59 343 -62 c 1
 343 -108 l 1
 291 -108 l 2
 254 -108 214 -97 196 -81 c 1
 170 -60 160 -24 160 42 c 2
 160 152 l 2
 160 218 159 228 148 247 c 0
 136 267 122 275 84 285 c 1
EndSplineSet
EndChar

StartChar: bar
Encoding: 124 124 93
Width: 606
Flags: MW
LayerCount: 2
Fore
SplineSet
362 722 m 1
 362 0 l 1
 243 0 l 1
 243 722 l 1
 362 722 l 1
EndSplineSet
EndChar

StartChar: braceright
Encoding: 125 125 94
Width: 389
Flags: MW
LayerCount: 2
Fore
SplineSet
290 329 m 1
 290 285 l 1
 249 275 234 265 224 239 c 0
 217 221 216 212 216 152 c 2
 216 42 l 2
 216 -24 206 -60 180 -81 c 1
 162 -97 122 -108 85 -108 c 2
 31 -108 l 1
 31 -62 l 1
 60 -59 73 -53 83 -37 c 0
 93 -22 93 -22 93 64 c 2
 93 182 l 2
 93 259 116 287 195 307 c 1
 116 327 93 355 93 432 c 2
 93 550 l 1
 93 606 l 2
 93 653 77 672 31 676 c 1
 31 722 l 1
 85 722 l 2
 122 722 162 711 180 695 c 1
 206 674 216 638 216 572 c 2
 216 462 l 2
 216 397 217 386 228 367 c 0
 239 347 253 338 290 329 c 1
EndSplineSet
EndChar

StartChar: asciitilde
Encoding: 126 126 95
Width: 606
Flags: MW
LayerCount: 2
Fore
SplineSet
135 169 m 1
 51 222 l 1
 91 297 140 335 195 335 c 0
 218 335 240 329 285 312 c 2
 338 293 l 1
 381 276 389 274 404 274 c 0
 427 274 443 286 471 326 c 1
 555 273 l 1
 514 198 466 160 411 160 c 0
 388 160 366 165 321 183 c 1
 268 202 l 1
 225 219 217 221 202 221 c 0
 179 221 163 209 135 169 c 1
EndSplineSet
EndChar

StartChar: exclamdown
Encoding: 161 161 97
Width: 296
Flags: MW
LayerCount: 2
Fore
SplineSet
120 306 m 1
 174 306 l 1
 180 159 186 120 226 -14 c 0
 235 -45 240 -77 240 -103 c 0
 240 -166 205 -203 146 -203 c 0
 88 -203 53 -166 53 -103 c 0
 53 -64 55 -55 87 55 c 0
 106 119 117 198 120 306 c 1
148 549 m 0
 199 549 241 506 241 455 c 0
 241 403 199 361 147 361 c 0
 95 361 53 403 53 455 c 0
 53 507 95 549 148 549 c 0
EndSplineSet
EndChar

StartChar: cent
Encoding: 162 162 98
Width: 574
Flags: MW
LayerCount: 2
Fore
SplineSet
522 567 m 1
 460 454 l 1
 502 428 523 395 523 353 c 0
 523 302 486 265 436 265 c 0
 410 265 388 274 372 291 c 1
 259 83 l 1
 278 64 305 54 339 54 c 0
 407 54 458 96 482 174 c 1
 534 158 l 1
 493 39 419 -14 295 -14 c 0
 264 -14 238 -11 213 -3 c 1
 156 -107 l 1
 98 -107 l 1
 165 16 l 1
 82 62 36 138 36 229 c 0
 36 377 157 488 320 488 c 0
 353 488 386 483 415 474 c 1
 466 567 l 1
 522 567 l 1
229 133 m 1
 361 375 l 2
 365 382 368 385 377 395 c 0
 381 399 384 405 384 410 c 0
 384 424 360 436 331 436 c 0
 256 436 209 361 209 241 c 0
 209 203 215 170 229 133 c 1
EndSplineSet
EndChar

StartChar: sterling
Encoding: 163 163 99
Width: 574
Flags: MW
LayerCount: 2
Fore
SplineSet
459 378 m 1
 459 318 l 1
 313 318 l 1
 316 295 317 284 317 273 c 0
 317 230 306 191 280 139 c 1
 319 125 354 119 392 119 c 0
 455 119 490 143 510 200 c 1
 561 186 l 1
 537 57 474 -14 384 -14 c 0
 331 -14 283 6 231 50 c 1
 200 5 165 -14 117 -14 c 0
 59 -14 19 23 19 77 c 0
 19 132 65 174 126 174 c 0
 148 174 166 171 196 161 c 1
 197 171 197 179 197 184 c 0
 197 220 179 283 158 318 c 1
 34 318 l 1
 34 378 l 1
 136 378 l 1
 118 431 112 462 112 500 c 0
 112 620 211 708 345 708 c 0
 460 708 543 641 543 548 c 0
 543 491 503 449 448 449 c 0
 403 449 369 482 369 526 c 0
 369 554 381 573 409 588 c 0
 429 599 433 603 433 612 c 0
 433 636 398 656 357 656 c 0
 303 656 265 619 265 566 c 0
 265 528 277 472 304 378 c 1
 459 378 l 1
182 92 m 1
 156 115 140 122 116 122 c 0
 88 122 69 104 69 79 c 0
 69 55 88 38 113 38 c 0
 146 38 166 54 182 92 c 1
EndSplineSet
EndChar

StartChar: currency
Encoding: 164 164 100
Width: 574
Flags: MW
LayerCount: 2
Fore
SplineSet
154 140 m 1
 111 98 l 1
 34 175 l 1
 76 218 l 1
 51 258 38 304 38 350 c 0
 38 397 52 447 76 483 c 1
 33 526 l 1
 111 604 l 1
 154 561 l 1
 193 586 239 599 287 599 c 0
 335 599 373 588 419 561 c 1
 462 604 l 1
 540 526 l 1
 497 484 l 1
 522 443 535 398 535 350 c 0
 535 302 524 263 497 218 c 1
 540 175 l 1
 462 97 l 1
 419 140 l 1
 375 114 334 102 287 102 c 0
 240 102 197 114 154 140 c 1
287 478 m 0
 216 478 158 421 158 351 c 0
 158 281 216 223 285 223 c 0
 358 223 415 279 415 351 c 0
 415 421 357 478 287 478 c 0
EndSplineSet
EndChar

StartChar: yen
Encoding: 165 165 101
Width: 574
Flags: MW
LayerCount: 2
Fore
SplineSet
393 359 m 1
 486 359 l 1
 486 299 l 1
 376 299 l 1
 376 233 l 1
 486 233 l 1
 486 173 l 1
 376 173 l 1
 376 144 l 2
 376 80 376 77 381 69 c 0
 387 58 402 54 439 54 c 2
 454 54 l 1
 454 0 l 1
 119 0 l 1
 119 54 l 1
 134 54 l 2
 170 54 185 58 191 69 c 0
 196 77 196 83 196 144 c 2
 196 173 l 1
 85 173 l 1
 85 233 l 1
 196 233 l 1
 196 299 l 1
 85 299 l 1
 85 359 l 1
 173 359 l 1
 57 632 l 2
 44 661 33 668 3 668 c 1
 3 722 l 1
 273 722 l 1
 273 668 l 1
 267 668 l 2
 251 668 241 660 241 649 c 0
 241 642 242 640 252 615 c 2
 345 396 l 1
 417 574 l 2
 423 587 427 608 427 621 c 0
 427 649 410 668 385 668 c 2
 365 668 l 1
 365 722 l 1
 571 722 l 1
 571 668 l 1
 533 664 506 637 480 575 c 2
 393 359 l 1
EndSplineSet
EndChar

StartChar: brokenbar
Encoding: 166 166 102
Width: 606
Flags: MW
LayerCount: 2
Fore
SplineSet
362 722 m 1
 362 400 l 1
 243 400 l 1
 243 722 l 1
 362 722 l 1
362 322 m 1
 362 0 l 1
 243 0 l 1
 243 322 l 1
 362 322 l 1
EndSplineSet
EndChar

StartChar: section
Encoding: 167 167 103
Width: 500
Flags: MW
LayerCount: 2
Fore
SplineSet
333 187 m 2
 327 187 l 1
 381 138 398 106 398 52 c 0
 398 -32 336 -87 241 -87 c 0
 160 -87 99 -44 99 13 c 0
 99 51 125 79 161 79 c 0
 191 79 215 56 215 26 c 0
 215 13 211 4 199 -7 c 0
 189 -17 186 -22 186 -27 c 0
 186 -43 209 -55 238 -55 c 0
 285 -55 318 -30 318 7 c 0
 318 27 311 43 291 63 c 0
 285 69 285 69 237 110 c 2
 124 208 l 2
 84 242 63 287 63 335 c 0
 63 407 109 459 177 464 c 1
 120 516 106 541 106 593 c 0
 106 680 165 737 255 737 c 0
 334 737 386 696 386 634 c 0
 386 601 362 577 329 577 c 0
 297 577 273 599 273 627 c 0
 273 642 278 653 292 668 c 0
 297 674 299 677 299 681 c 0
 299 694 278 705 253 705 c 0
 214 705 181 678 181 645 c 0
 181 621 198 596 237 565 c 2
 343 478 l 2
 369 457 396 427 414 397 c 0
 431 370 438 345 438 313 c 0
 438 243 391 187 333 187 c 2
320 344 m 2
 269 388 l 2
 237 416 218 425 195 425 c 0
 163 425 138 402 138 372 c 0
 138 349 147 334 179 306 c 2
 233 258 l 2
 258 237 284 225 307 225 c 0
 338 225 363 249 363 278 c 0
 363 298 351 317 320 344 c 2
EndSplineSet
EndChar

StartChar: copyright
Encoding: 169 169 105
Width: 747
Flags: MW
LayerCount: 2
Fore
SplineSet
531 554 m 1
 537 394 l 1
 501 391 l 1
 478 479 441 519 384 519 c 0
 320 519 288 464 288 356 c 0
 288 243 321 190 390 190 c 0
 450 190 490 230 505 306 c 1
 545 296 l 1
 525 196 469 148 372 148 c 0
 254 148 173 229 173 347 c 0
 173 469 259 556 378 556 c 0
 416 556 443 549 475 529 c 1
 503 554 l 1
 531 554 l 1
373 721 m 0
 576 721 741 556 741 354 c 0
 741 148 577 -15 369 -15 c 0
 170 -15 5 152 5 353 c 0
 5 556 170 721 373 721 c 0
373 669 m 0
 205 669 68 527 68 353 c 0
 68 181 205 37 369 37 c 0
 542 37 678 177 678 354 c 0
 678 527 541 669 373 669 c 0
EndSplineSet
EndChar

StartChar: ordfeminine
Encoding: 170 170 106
Width: 367
Flags: MW
LayerCount: 2
Fore
SplineSet
313 635 m 2
 313 529 l 2
 313 495 316 487 331 487 c 0
 336 487 337 487 343 490 c 0
 348 493 353 494 356 494 c 0
 361 494 365 490 365 485 c 0
 365 459 331 435 294 435 c 0
 263 435 237 450 225 475 c 1
 187 447 150 435 101 435 c 0
 38 435 1 461 1 505 c 0
 1 540 23 565 70 584 c 0
 101 596 110 599 189 613 c 0
 192 613 199 615 210 617 c 1
 210 648 l 2
 210 689 196 705 158 705 c 0
 132 705 110 696 110 686 c 0
 110 683 110 682 115 676 c 0
 121 669 124 660 124 653 c 0
 124 631 100 614 71 614 c 0
 41 614 18 633 18 659 c 0
 18 706 77 737 166 737 c 0
 216 737 258 727 282 710 c 0
 305 693 313 674 313 635 c 2
210 585 m 1
 176 578 l 2
 131 568 111 549 111 518 c 0
 111 492 127 476 152 476 c 0
 187 476 210 505 210 551 c 2
 210 585 l 1
9 293 m 1
 9 353 l 1
 335 353 l 1
 335 293 l 1
 9 293 l 1
EndSplineSet
EndChar

StartChar: logicalnot
Encoding: 172 172 108
Width: 606
Flags: MW
LayerCount: 2
Fore
SplineSet
51 310 m 1
 555 310 l 1
 555 0 l 1
 440 0 l 1
 440 195 l 1
 51 195 l 1
 51 310 l 1
EndSplineSet
EndChar

StartChar: registered
Encoding: 174 174 110
Width: 747
Flags: MW
LayerCount: 2
Fore
SplineSet
330 340 m 1
 330 237 l 2
 330 205 330 203 333 200 c 0
 337 196 348 194 374 194 c 2
 392 194 l 1
 392 157 l 1
 171 157 l 1
 171 194 l 1
 183 194 l 2
 209 194 220 196 224 200 c 0
 227 203 227 203 227 237 c 2
 227 467 l 2
 227 500 227 501 224 505 c 0
 220 509 209 511 183 511 c 2
 171 511 l 1
 171 548 l 1
 403 548 l 2
 454 548 488 542 509 528 c 0
 537 510 554 480 554 447 c 0
 554 418 541 392 518 374 c 0
 503 363 490 357 459 350 c 1
 496 335 515 309 523 265 c 1
 526 245 l 2
 527 238 528 232 528 230 c 0
 532 206 535 201 546 201 c 0
 559 201 566 215 566 245 c 2
 566 251 l 1
 603 251 l 1
 603 239 l 2
 603 184 567 149 509 149 c 0
 461 149 429 173 420 215 c 0
 418 224 416 246 412 281 c 1
 409 329 398 340 356 340 c 2
 330 340 l 1
330 377 m 1
 355 377 l 2
 423 377 444 393 444 444 c 0
 444 492 424 511 377 511 c 2
 364 511 l 2
 332 511 330 509 330 481 c 2
 330 377 l 1
373 721 m 0
 576 721 741 556 741 354 c 0
 741 148 577 -15 369 -15 c 0
 170 -15 5 152 5 353 c 0
 5 556 170 721 373 721 c 0
374 669 m 0
 205 669 68 528 68 355 c 0
 68 185 206 42 370 42 c 0
 542 42 679 181 679 356 c 0
 679 528 542 669 374 669 c 0
EndSplineSet
EndChar

StartChar: macron
Encoding: 175 175 111
Width: 333
Flags: MW
LayerCount: 2
Fore
SplineSet
-5 663 m 1
 339 663 l 1
 339 583 l 1
 -5 583 l 1
 -5 663 l 1
EndSplineSet
EndChar

StartChar: degree
Encoding: 176 176 112
Width: 400
Flags: MW
LayerCount: 2
Fore
SplineSet
203 686 m 0
 286 686 350 619 350 533 c 0
 350 447 284 380 200 380 c 0
 116 380 50 448 50 534 c 0
 50 619 118 686 203 686 c 0
202 629 m 0
 148 629 106 586 106 533 c 0
 106 480 149 437 200 437 c 0
 252 437 293 479 293 533 c 0
 293 586 252 629 202 629 c 0
EndSplineSet
EndChar

StartChar: plusminus
Encoding: 177 177 113
Width: 606
Flags: HMW
LayerCount: 2
Fore
SplineSet
246 300 m 1
 51 300 l 1
 51 415 l 1
 246 415 l 1
 246 610 l 1
 361 610 l 1
 361 415 l 1
 555 415 l 1
 555 300 l 1
 361 300 l 1
 361 158 l 1
 246 158 l 1
 246 300 l 1
EndSplineSet
Refer: 709 8722 S 1 0 0 1 0 -195 2
EndChar

StartChar: twosuperior
Encoding: 178 178 114
Width: 344
Flags: MW
LayerCount: 2
Fore
SplineSet
5 281 m 1
 5 313 l 1
 38 357 63 385 131 453 c 0
 198 519 217 552 217 599 c 0
 217 642 193 666 150 666 c 0
 121 666 87 647 87 630 c 0
 87 626 90 624 95 622 c 0
 127 610 141 593 141 566 c 0
 141 535 118 514 84 514 c 0
 45 514 19 542 19 585 c 0
 19 654 87 708 174 708 c 0
 264 708 332 658 332 593 c 0
 332 546 306 505 252 467 c 0
 231 453 230 452 171 416 c 0
 150 404 134 392 116 378 c 1
 231 378 l 1
 263 379 l 2
 280 380 281 382 290 415 c 1
 297 447 l 1
 338 447 l 1
 322 281 l 1
 302 282 294 283 281 283 c 2
 41 283 l 2
 32 283 23 282 5 281 c 1
EndSplineSet
EndChar

StartChar: threesuperior
Encoding: 179 179 115
Width: 344
Flags: MW
LayerCount: 2
Fore
SplineSet
236 505 m 1
 275 497 295 488 309 473 c 0
 326 454 336 428 336 401 c 0
 336 323 270 275 165 275 c 0
 72 275 8 317 8 378 c 0
 8 414 33 438 68 438 c 0
 101 438 126 415 126 386 c 0
 126 368 121 359 100 342 c 0
 97 339 95 336 95 333 c 0
 95 324 124 312 148 312 c 0
 195 312 221 345 221 403 c 0
 221 456 202 483 164 483 c 0
 160 483 160 483 141 481 c 0
 131 480 124 479 121 479 c 0
 105 479 94 490 94 505 c 0
 94 519 104 528 120 528 c 0
 128 528 132 527 147 524 c 0
 157 521 164 520 170 520 c 0
 198 520 214 550 214 600 c 0
 214 645 192 671 155 671 c 0
 135 671 111 661 111 652 c 0
 111 650 111 650 124 636 c 0
 133 626 138 614 138 601 c 0
 138 571 116 550 84 550 c 0
 50 550 24 575 24 607 c 0
 24 665 87 708 171 708 c 0
 262 708 324 665 324 600 c 0
 324 560 301 531 256 513 c 0
 252 511 251 511 236 505 c 1
EndSplineSet
EndChar

StartChar: acute
Encoding: 180 180 116
Width: 333
Flags: MW
LayerCount: 2
Fore
SplineSet
84 545 m 1
 197 683 l 2
 232 726 244 734 274 734 c 0
 306 734 331 712 331 684 c 0
 331 663 319 646 295 632 c 2
 148 545 l 1
 84 545 l 1
EndSplineSet
EndChar

StartChar: mu
Encoding: 181 181 117
Width: 685
Flags: MW
LayerCount: 2
Fore
SplineSet
434 0 m 1
 434 82 l 1
 378 14 328 -15 266 -15 c 0
 218 -15 179 4 153 40 c 1
 153 -10 153 -11 171 -53 c 0
 194 -106 200 -125 200 -144 c 0
 200 -189 170 -219 125 -219 c 0
 80 -219 49 -189 49 -147 c 0
 49 -124 51 -118 75 -56 c 0
 87 -26 93 -1 93 20 c 2
 93 318 l 1
 92 413 91 415 29 415 c 2
 13 415 l 1
 13 466 l 1
 250 473 l 1
 250 185 l 2
 250 109 271 78 321 78 c 0
 359 78 394 101 410 135 c 1
 423 160 427 188 427 238 c 2
 427 318 l 2
 427 411 424 415 363 415 c 2
 347 415 l 1
 347 466 l 1
 584 473 l 1
 584 131 l 2
 584 67 586 65 639 65 c 2
 667 65 l 1
 667 11 l 1
 434 0 l 1
EndSplineSet
EndChar

StartChar: paragraph
Encoding: 182 182 118
Width: 747
Flags: MW
LayerCount: 2
Fore
SplineSet
254 -3 m 2
 254 325 l 1
 246 324 245 324 245 324 c 1
 120 324 35 403 35 521 c 0
 35 596 67 659 121 691 c 0
 160 714 199 722 268 722 c 2
 713 722 l 1
 713 667 l 1
 693 667 l 2
 673 667 647 663 640 658 c 0
 631 652 628 643 628 620 c 2
 628 581 l 1
 628 -3 l 2
 628 -68 628 -68 635 -76 c 0
 641 -83 668 -90 693 -90 c 2
 713 -90 l 1
 713 -144 l 1
 155 -144 l 1
 155 -90 l 1
 179 -90 l 2
 214 -90 240 -85 248 -76 c 0
 254 -68 254 -68 254 -3 c 2
476 667 m 1
 406 667 l 1
 406 -89 l 1
 476 -89 l 1
 476 667 l 1
EndSplineSet
EndChar

StartChar: cedilla
Encoding: 184 184 120
Width: 333
Flags: MW
LayerCount: 2
Fore
SplineSet
111 0 m 1
 156 0 l 1
 127 -61 l 1
 148 -57 157 -56 168 -56 c 0
 215 -56 251 -88 251 -132 c 0
 251 -185 194 -222 112 -222 c 0
 77 -222 48 -216 17 -203 c 1
 35 -158 l 1
 63 -171 79 -175 98 -175 c 0
 128 -175 147 -160 147 -136 c 0
 147 -115 131 -102 106 -102 c 0
 98 -102 92 -103 83 -108 c 1
 64 -98 l 1
 111 0 l 1
EndSplineSet
EndChar

StartChar: onesuperior
Encoding: 185 185 121
Width: 344
Flags: MW
LayerCount: 2
Fore
SplineSet
226 708 m 1
 226 373 l 2
 226 336 226 334 230 330 c 0
 234 325 248 323 280 323 c 2
 304 323 l 1
 304 284 l 1
 39 284 l 1
 39 323 l 1
 70 323 l 2
 101 323 115 325 119 330 c 0
 123 334 123 337 123 373 c 2
 123 582 l 2
 123 627 123 627 70 628 c 1
 40 628 l 1
 40 668 l 1
 118 669 161 679 200 708 c 1
 226 708 l 1
EndSplineSet
EndChar

StartChar: ordmasculine
Encoding: 186 186 122
Width: 367
Flags: MW
LayerCount: 2
Fore
SplineSet
181 737 m 0
 279 737 357 669 357 584 c 0
 357 499 281 435 179 435 c 0
 76 435 1 498 1 585 c 0
 1 672 78 737 181 737 c 0
180 705 m 0
 135 705 111 664 111 586 c 0
 111 508 134 467 178 467 c 0
 222 467 247 509 247 584 c 0
 247 664 224 705 180 705 c 0
16 293 m 1
 16 353 l 1
 342 353 l 1
 342 293 l 1
 16 293 l 1
EndSplineSet
EndChar

StartChar: onequarter
Encoding: 188 188 124
Width: 861
Flags: MW
LayerCount: 2
Fore
SplineSet
598 722 m 1
 677 722 l 1
 258 0 l 1
 178 0 l 1
 598 722 l 1
756 154 m 1
 822 154 l 1
 822 107 l 1
 756 107 l 1
 756 88 l 2
 756 52 756 50 760 46 c 0
 764 41 779 39 804 39 c 2
 815 39 l 1
 815 0 l 1
 594 0 l 1
 594 39 l 1
 604 39 l 2
 631 39 645 41 649 46 c 0
 653 50 653 53 653 88 c 2
 653 107 l 1
 483 107 l 1
 483 156 l 1
 712 424 l 1
 760 424 l 1
 757 373 756 346 756 331 c 2
 756 154 l 1
653 154 m 1
 653 288 l 1
 540 154 l 1
 653 154 l 1
EndSplineSet
Refer: 121 185 S 1 0 0 1 0 0 2
EndChar

StartChar: onehalf
Encoding: 189 189 125
Width: 861
Flags: MW
LayerCount: 2
Fore
SplineSet
593 722 m 1
 672 722 l 1
 252 0 l 1
 173 0 l 1
 593 722 l 1
499 -2 m 1
 499 30 l 1
 532 74 558 102 625 170 c 1
 692 236 711 269 711 317 c 0
 711 359 687 383 644 383 c 0
 615 383 581 364 581 347 c 0
 581 343 584 341 589 339 c 0
 621 327 635 310 635 283 c 0
 635 252 612 231 578 231 c 0
 539 231 513 259 513 302 c 0
 513 371 581 425 668 425 c 0
 758 425 826 375 826 310 c 0
 826 263 800 222 746 184 c 0
 725 170 724 169 665 133 c 0
 645 121 628 109 610 95 c 1
 725 95 l 1
 757 96 l 2
 774 97 775 99 784 132 c 1
 791 164 l 1
 832 164 l 1
 816 -2 l 1
 796 -1 788 0 775 0 c 2
 535 0 l 2
 526 0 517 -1 499 -2 c 1
EndSplineSet
Refer: 121 185 S 1 0 0 1 0 0 2
EndChar

StartChar: threequarters
Encoding: 190 190 126
Width: 861
Flags: MW
LayerCount: 2
Fore
SplineSet
621 722 m 1
 701 722 l 1
 281 0 l 1
 202 0 l 1
 621 722 l 1
756 154 m 1
 822 154 l 1
 822 107 l 1
 756 107 l 1
 756 88 l 2
 756 52 756 50 760 46 c 0
 764 41 779 39 804 39 c 2
 815 39 l 1
 815 0 l 1
 594 0 l 1
 594 39 l 1
 604 39 l 2
 631 39 645 41 649 46 c 0
 653 50 653 53 653 88 c 2
 653 107 l 1
 483 107 l 1
 483 156 l 1
 712 424 l 1
 760 424 l 1
 757 373 756 346 756 331 c 2
 756 154 l 1
653 154 m 1
 653 288 l 1
 540 154 l 1
 653 154 l 1
EndSplineSet
Refer: 115 179 S 1 0 0 1 0 0 2
EndChar

StartChar: questiondown
Encoding: 191 191 127
Width: 500
Flags: MW
LayerCount: 2
Fore
SplineSet
245 306 m 1
 299 306 l 1
 301 290 302 274 302 264 c 0
 302 219 294 199 239 101 c 0
 214 56 199 5 199 -36 c 0
 199 -106 233 -146 293 -146 c 0
 324 -146 346 -135 346 -121 c 0
 346 -114 345 -113 327 -99 c 0
 306 -83 295 -61 295 -35 c 0
 295 13 331 46 382 46 c 0
 436 46 476 7 476 -47 c 0
 476 -139 383 -203 251 -203 c 0
 111 -203 23 -134 23 -25 c 0
 23 23 43 69 78 99 c 0
 85 105 94 112 171 171 c 0
 233 219 242 236 245 306 c 1
271 549 m 0
 322 549 364 506 364 455 c 0
 364 403 322 361 270 361 c 0
 218 361 176 403 176 455 c 0
 176 507 218 549 271 549 c 0
EndSplineSet
EndChar

StartChar: AE
Encoding: 198 198 134
Width: 981
Flags: MW
LayerCount: 2
Fore
SplineSet
946 722 m 1
 952 462 l 1
 900 462 l 1
 885 515 864 564 842 594 c 0
 810 638 748 668 687 668 c 2
 666 668 l 2
 638 668 615 660 605 646 c 0
 597 634 595 623 595 582 c 2
 595 401 l 1
 605 401 l 2
 684 401 732 451 743 543 c 1
 797 543 l 1
 797 204 l 1
 743 204 l 1
 732 297 684 347 605 347 c 2
 595 347 l 1
 595 124 l 2
 595 67 609 54 671 54 c 2
 688 54 l 2
 751 54 803 79 845 129 c 0
 873 163 891 201 910 269 c 1
 963 269 l 1
 952 0 l 1
 313 0 l 1
 313 54 l 1
 324 54 l 2
 377 54 399 58 408 69 c 0
 415 77 415 80 415 144 c 2
 415 264 l 1
 200 264 l 1
 151 167 l 2
 137 140 129 113 129 98 c 0
 129 71 158 54 205 54 c 2
 223 54 l 1
 223 0 l 1
 -29 0 l 1
 -29 54 l 1
 12 62 34 86 73 163 c 2
 270 554 l 2
 282 579 288 598 288 614 c 0
 288 649 257 668 200 668 c 2
 180 668 l 1
 180 722 l 1
 946 722 l 1
415 319 m 1
 415 647 l 2
 415 663 413 668 405 668 c 0
 399 668 397 666 387 645 c 2
 227 319 l 1
 415 319 l 1
EndSplineSet
EndChar

StartChar: Eth
Encoding: 208 208 144
Width: 833
Flags: MW
LayerCount: 2
Fore
SplineSet
123 339 m 1
 19 339 l 1
 19 399 l 1
 123 399 l 1
 123 578 l 2
 123 641 123 645 116 653 c 0
 107 664 86 668 34 668 c 2
 19 668 l 1
 19 722 l 1
 356 722 l 2
 521 722 586 710 650 668 c 0
 744 607 793 504 793 369 c 0
 793 232 744 123 655 61 c 0
 593 18 514 0 387 0 c 2
 19 0 l 1
 19 54 l 1
 34 54 l 2
 86 54 107 58 116 69 c 0
 123 77 123 81 123 144 c 2
 123 339 l 1
303 339 m 1
 303 119 l 2
 303 66 314 54 363 54 c 2
 385 54 l 2
 452 54 510 79 541 122 c 0
 573 167 594 264 594 369 c 0
 594 486 567 580 522 623 c 1
 488 654 447 668 389 668 c 2
 363 668 l 2
 338 668 319 662 311 651 c 0
 305 643 303 634 303 608 c 2
 303 399 l 1
 447 399 l 1
 447 339 l 1
 303 339 l 1
EndSplineSet
EndChar

StartChar: multiply
Encoding: 215 215 151
Width: 606
Flags: MW
LayerCount: 2
Fore
SplineSet
303 171 m 1
 132 1 l 1
 51 82 l 1
 222 253 l 1
 51 423 l 1
 132 505 l 1
 303 334 l 1
 474 505 l 1
 555 423 l 1
 384 253 l 1
 555 82 l 1
 474 1 l 1
 303 171 l 1
EndSplineSet
EndChar

StartChar: Oslash
Encoding: 216 216 152
Width: 833
Flags: MW
LayerCount: 2
Fore
SplineSet
613 688 m 1
 666 762 l 1
 731 762 l 1
 656 657 l 1
 741 587 793 476 793 365 c 0
 793 266 749 160 679 90 c 0
 610 20 521 -15 413 -15 c 0
 336 -15 272 2 213 39 c 1
 156 -40 l 1
 91 -40 l 1
 170 71 l 1
 85 146 39 249 39 363 c 0
 39 577 204 738 421 738 c 0
 493 738 556 721 613 688 c 1
258 193 m 1
 549 599 l 1
 518 660 478 686 417 686 c 0
 300 686 239 578 239 372 c 0
 239 302 245 245 258 193 c 1
573 541 m 1
 279 132 l 1
 308 66 351 37 420 37 c 0
 480 37 528 66 550 116 c 0
 577 177 593 272 593 373 c 0
 593 436 586 495 573 541 c 1
EndSplineSet
EndChar

StartChar: Thorn
Encoding: 222 222 158
Width: 759
Flags: MW
LayerCount: 2
Fore
SplineSet
413 722 m 1
 413 668 l 1
 398 668 l 2
 345 668 324 664 315 654 c 0
 308 645 308 639 308 578 c 1
 421 578 l 2
 521 578 580 568 634 543 c 0
 698 513 735 452 735 377 c 0
 735 237 629 166 420 166 c 2
 308 166 l 1
 308 144 l 2
 308 81 308 77 315 69 c 0
 324 58 345 54 398 54 c 2
 413 54 l 1
 413 0 l 1
 24 0 l 1
 24 54 l 1
 39 54 l 2
 91 54 112 58 121 69 c 0
 128 77 128 81 128 144 c 2
 128 578 l 2
 128 641 128 645 121 654 c 0
 112 664 91 668 39 668 c 2
 24 668 l 1
 24 722 l 1
 413 722 l 1
308 221 m 1
 367 221 l 2
 497 221 543 263 543 379 c 0
 543 480 501 523 403 523 c 2
 363 523 l 2
 319 523 308 511 308 463 c 2
 308 221 l 1
EndSplineSet
EndChar

StartChar: germandbls
Encoding: 223 223 159
Width: 611
Flags: MW
LayerCount: 2
Fore
SplineSet
85 144 m 1
 85 497 l 2
 85 665 153 737 313 737 c 0
 382 737 436 724 474 698 c 0
 513 671 537 623 537 574 c 0
 537 501 493 446 415 422 c 1
 515 399 575 321 575 215 c 0
 575 83 486 -15 367 -15 c 0
 339 -15 321 -11 293 0 c 1
 293 63 l 1
 313 46 335 37 354 37 c 0
 372 37 387 50 396 72 c 0
 406 96 414 163 414 218 c 0
 414 286 403 348 386 371 c 0
 379 382 357 392 342 392 c 2
 316 391 l 1
 295 395 290 399 290 413 c 0
 290 422 294 429 301 435 c 0
 304 437 310 440 311 440 c 2
 338 437 l 1
 360 441 363 442 370 451 c 0
 383 469 391 507 391 560 c 0
 391 647 367 686 313 686 c 0
 258 686 242 653 242 541 c 2
 242 0 l 1
 6 0 l 1
 6 51 l 1
 10 51 l 2
 74 51 85 57 85 98 c 2
 85 144 l 1
EndSplineSet
EndChar

StartChar: ae
Encoding: 230 230 166
Width: 870
Flags: MW
LayerCount: 2
Fore
SplineSet
787 164 m 1
 836 144 l 1
 793 38 715 -15 602 -15 c 0
 518 -15 449 17 401 76 c 1
 342 14 273 -15 185 -15 c 0
 86 -15 29 28 29 103 c 0
 29 161 62 201 137 234 c 0
 185 255 199 259 320 283 c 0
 326 284 337 286 353 290 c 1
 353 342 l 2
 353 410 331 436 271 436 c 0
 231 436 197 421 197 404 c 0
 197 399 198 398 206 387 c 0
 215 376 220 362 220 349 c 0
 220 313 184 285 138 285 c 0
 92 285 57 317 57 359 c 0
 57 436 148 488 281 488 c 0
 351 488 411 470 450 437 c 1
 494 470 549 488 606 488 c 0
 744 488 837 390 837 242 c 0
 837 241 837 234 836 228 c 1
 501 228 l 1
 503 170 509 140 527 113 c 0
 551 75 591 53 637 53 c 0
 703 53 748 87 787 164 c 1
353 236 m 1
 300 223 l 2
 227 206 196 176 196 123 c 0
 196 80 221 53 261 53 c 0
 317 53 353 102 353 179 c 2
 353 236 l 1
502 283 m 1
 652 283 l 2
 673 283 680 291 680 315 c 0
 680 393 652 436 601 436 c 0
 540 436 503 377 502 283 c 1
EndSplineSet
EndChar

StartChar: eth
Encoding: 240 240 176
Width: 611
Flags: MW
LayerCount: 2
Fore
SplineSet
404 748 m 1
 296 683 l 1
 484 540 579 394 579 246 c 0
 579 91 467 -15 304 -15 c 0
 146 -15 31 90 31 236 c 0
 31 377 149 488 301 488 c 0
 318 488 328 487 346 482 c 1
 310 548 270 601 225 640 c 1
 109 568 l 1
 82 611 l 1
 184 676 l 1
 164 696 124 722 82 744 c 1
 114 783 l 1
 166 764 175 760 228 730 c 0
 230 729 246 719 251 717 c 1
 376 793 l 1
 404 748 l 1
306 436 m 0
 239 436 204 368 204 236 c 0
 204 105 238 37 305 37 c 0
 369 37 406 108 406 235 c 0
 406 287 398 344 386 377 c 0
 373 412 341 436 306 436 c 0
EndSplineSet
EndChar

StartChar: divide
Encoding: 247 247 183
Width: 606
Flags: HMW
LayerCount: 2
Fore
SplineSet
305 136 m 0
 349 136 387 98 387 53 c 0
 387 7 349 -31 304 -31 c 0
 257 -31 220 7 220 53 c 0
 220 99 258 136 305 136 c 0
305 536 m 0
 349 536 387 498 387 453 c 0
 387 407 349 369 304 369 c 0
 257 369 220 407 220 453 c 0
 220 499 258 536 305 536 c 0
EndSplineSet
Refer: 709 8722 S 1 0 0 1 0 0 2
EndChar

StartChar: oslash
Encoding: 248 248 184
Width: 611
Flags: MW
LayerCount: 2
Fore
SplineSet
411 469 m 1
 465 563 l 1
 523 563 l 1
 456 447 l 1
 538 394 579 323 579 234 c 0
 579 91 462 -15 305 -15 c 0
 266 -15 232 -9 198 3 c 1
 144 -90 l 1
 86 -90 l 1
 152 24 l 1
 77 66 31 147 31 236 c 0
 31 378 150 488 302 488 c 0
 339 488 376 482 411 469 c 1
214 130 m 1
 372 403 l 1
 354 425 332 436 305 436 c 0
 239 436 204 366 204 235 c 0
 204 195 207 161 214 130 c 1
396 343 m 1
 238 71 l 1
 256 48 277 37 304 37 c 0
 369 37 406 108 406 235 c 0
 406 270 402 316 396 343 c 1
EndSplineSet
EndChar

StartChar: thorn
Encoding: 254 254 190
Width: 667
Flags: MW
LayerCount: 2
Fore
SplineSet
254 736 m 1
 254 409 l 1
 299 466 342 488 410 488 c 0
 538 488 632 387 632 249 c 0
 632 99 530 -15 396 -15 c 0
 339 -15 293 6 254 50 c 1
 254 -58 l 1
 254 -105 l 2
 254 -145 265 -152 330 -152 c 2
 341 -152 l 1
 341 -202 l 1
 18 -202 l 1
 18 -152 l 1
 22 -152 l 2
 86 -152 97 -145 97 -105 c 2
 97 -58 l 1
 97 574 l 2
 97 669 95 672 33 672 c 2
 18 672 l 1
 18 722 l 1
 254 736 l 1
366 413 m 0
 293 413 253 347 253 229 c 0
 253 117 291 53 358 53 c 0
 423 53 459 119 459 237 c 0
 459 357 429 413 366 413 c 0
EndSplineSet
EndChar

StartChar: Aogonek
Encoding: 260 260 196
Width: 759
Flags: MW
LayerCount: 2
Fore
SplineSet
351 737 m 1
 427 737 l 1
 684 117 l 2
 705 66 721 56 778 54 c 1
 778 0 l 1
 755 -24 748 -37 748 -59 c 0
 748 -82 759 -95 778 -95 c 0
 795 -95 809 -89 827 -73 c 1
 846 -105 l 1
 820 -148 785 -170 744 -170 c 0
 698 -170 668 -138 668 -89 c 0
 668 -53 679 -29 710 0 c 1
 427 0 l 1
 427 54 l 1
 444 55 l 1
 489 55 502 61 502 79 c 0
 502 87 498 102 490 120 c 2
 452 218 l 1
 203 218 l 1
 187 180 l 2
 174 151 171 140 171 123 c 0
 171 77 199 58 271 54 c 1
 271 0 l 1
 -18 0 l 1
 -18 54 l 1
 41 60 78 99 124 207 c 2
 351 737 l 1
330 524 m 1
 229 285 l 1
 427 285 l 1
 330 524 l 1
EndSplineSet
Ligature2: "CCMP" A uni0328
EndChar

StartChar: aogonek
Encoding: 261 261 197
Width: 611
Flags: MW
LayerCount: 2
Fore
SplineSet
359 289 m 1
 359 341 l 2
 359 410 337 436 277 436 c 0
 237 436 203 421 203 404 c 0
 203 399 203 398 212 387 c 0
 221 375 226 361 226 349 c 0
 226 312 190 284 144 284 c 0
 98 284 63 316 63 359 c 0
 63 437 153 488 291 488 c 0
 369 488 432 472 469 442 c 0
 504 414 516 383 516 318 c 2
 516 142 l 2
 516 84 521 70 543 70 c 0
 550 70 553 71 562 77 c 0
 570 82 576 84 582 84 c 0
 591 84 597 78 597 69 c 0
 597 50 591 38 566 10 c 0
 543 -16 533 -38 533 -60 c 0
 533 -82 545 -95 563 -95 c 0
 580 -95 594 -89 612 -73 c 1
 631 -105 l 1
 605 -148 570 -170 529 -170 c 0
 483 -170 453 -138 453 -89 c 0
 453 -60 461 -39 481 -15 c 1
 433 -13 394 15 381 56 c 1
 328 4 276 -15 190 -15 c 0
 93 -15 36 28 36 102 c 0
 36 162 70 202 143 232 c 0
 190 251 225 260 326 282 c 0
 335 283 348 286 359 289 c 1
359 235 m 1
 306 223 l 2
 234 206 203 176 203 123 c 0
 203 80 228 53 267 53 c 0
 323 53 359 102 359 179 c 2
 359 235 l 1
EndSplineSet
Ligature2: "CCMP" a uni0328
EndChar

StartChar: dcaron
Encoding: 271 271 207
Width: 747
Flags: HMW
LayerCount: 2
Fore
SplineSet
615 415 m 1
 591 451 l 1
 646 489 680 533 680 567 c 0
 680 570 679 572 676 572 c 2
 673 572 l 1
 670 571 668 571 665 571 c 0
 623 571 590 605 590 648 c 0
 590 698 628 737 676 737 c 0
 730 737 767 693 767 629 c 0
 767 549 716 477 615 415 c 1
EndSplineSet
Refer: 69 100 N 1 0 0 1 0 0 2
LCarets2: 1 0 
Ligature2: "CCMP" d uni030C
EndChar

StartChar: dcroat
Encoding: 273 273 209
Width: 667
Flags: MW
LayerCount: 2
Fore
SplineSet
568 596 m 1
 644 596 l 1
 644 536 l 1
 568 536 l 1
 568 122 l 2
 568 92 571 80 580 72 c 0
 588 65 591 65 627 65 c 2
 654 65 l 1
 654 11 l 1
 420 0 l 1
 420 72 l 1
 379 12 328 -15 256 -15 c 0
 126 -15 37 84 37 229 c 0
 37 375 137 488 265 488 c 0
 328 488 373 467 411 421 c 1
 411 536 l 1
 270 536 l 1
 270 596 l 1
 411 596 l 1
 410 666 405 671 347 671 c 2
 315 671 l 1
 315 722 l 1
 568 737 l 1
 568 596 l 1
311 420 m 0
 247 420 210 350 210 231 c 0
 210 117 246 53 309 53 c 0
 371 53 413 128 413 237 c 0
 413 348 373 420 311 420 c 0
EndSplineSet
EndChar

StartChar: Eogonek
Encoding: 280 280 216
Width: 759
Flags: MW
LayerCount: 2
Fore
SplineSet
707 269 m 1
 695 0 l 1
 671 -25 665 -37 665 -59 c 0
 665 -82 676 -95 695 -95 c 0
 712 -95 726 -89 744 -73 c 1
 763 -105 l 1
 737 -148 702 -170 661 -170 c 0
 615 -170 585 -138 585 -89 c 0
 585 -53 597 -29 628 0 c 1
 16 0 l 1
 16 54 l 1
 31 54 l 2
 83 54 104 58 113 68 c 0
 120 77 120 80 120 144 c 2
 120 578 l 2
 120 641 120 645 113 653 c 0
 104 664 83 668 31 668 c 2
 16 668 l 1
 16 722 l 1
 687 722 l 1
 693 462 l 1
 641 462 l 1
 626 514 604 564 583 594 c 0
 549 641 488 668 414 668 c 2
 386 668 l 2
 345 668 321 661 310 646 c 0
 302 634 300 623 300 582 c 2
 300 401 l 1
 317 401 l 2
 395 401 444 451 455 543 c 1
 509 543 l 1
 509 204 l 1
 455 204 l 1
 444 296 395 346 317 346 c 2
 300 346 l 1
 300 124 l 2
 300 91 303 80 316 68 c 0
 328 56 341 54 390 54 c 2
 420 54 l 2
 541 54 612 119 654 269 c 1
 707 269 l 1
EndSplineSet
Ligature2: "CCMP" E uni0328
EndChar

StartChar: eogonek
Encoding: 281 281 217
Width: 574
Flags: MW
LayerCount: 2
Fore
SplineSet
540 228 m 1
 205 228 l 1
 206 171 213 140 230 113 c 0
 255 75 295 53 341 53 c 0
 406 53 451 86 491 164 c 1
 540 144 l 1
 526 108 513 89 468 33 c 0
 422 -24 415 -35 415 -61 c 0
 415 -82 427 -95 445 -95 c 0
 462 -95 476 -89 494 -73 c 1
 513 -105 l 1
 487 -147 452 -170 411 -170 c 0
 365 -170 335 -138 335 -89 c 0
 335 -57 344 -36 369 -9 c 1
 343 -13 324 -15 301 -15 c 0
 226 -15 159 7 113 46 c 0
 63 89 32 161 32 232 c 0
 32 298 59 364 104 411 c 0
 154 462 221 488 301 488 c 0
 447 488 540 393 540 244 c 2
 540 228 l 1
206 283 m 1
 356 283 l 2
 376 283 383 291 383 315 c 0
 383 394 355 436 304 436 c 0
 244 436 206 378 206 283 c 1
EndSplineSet
Ligature2: "CCMP" e uni0328
EndChar

StartChar: gcommaaccent
Encoding: 291 291 227
Width: 611
Flags: MW
LayerCount: 2
Fore
SplineSet
369 837 m 1
 393 800 l 1
 339 764 304 719 304 685 c 0
 304 682 305 680 308 680 c 2
 311 680 l 1
 314 681 316 681 319 681 c 0
 361 681 394 647 394 604 c 0
 394 554 356 515 308 515 c 0
 254 515 217 559 217 623 c 0
 217 703 269 776 369 837 c 1
EndSplineSet
Refer: 72 103 S 1 0 0 1 0 0 2
Ligature2: "CCMP" g uni0327
EndChar

StartChar: Hbar
Encoding: 294 294 230
Width: 870
Flags: MW
LayerCount: 2
Fore
SplineSet
745 489 m 1
 745 144 l 2
 745 80 745 77 752 69 c 0
 761 58 783 54 835 54 c 2
 850 54 l 1
 850 0 l 1
 461 0 l 1
 461 54 l 1
 476 54 l 2
 528 54 549 58 558 69 c 0
 565 77 565 81 565 144 c 2
 565 339 l 1
 304 339 l 1
 304 144 l 2
 304 80 304 77 311 69 c 0
 320 58 342 54 394 54 c 2
 409 54 l 1
 409 0 l 1
 20 0 l 1
 20 54 l 1
 35 54 l 2
 87 54 108 58 117 69 c 0
 124 77 124 81 124 144 c 2
 124 489 l 1
 40 489 l 1
 40 569 l 1
 124 569 l 1
 124 577 l 2
 124 641 124 645 117 653 c 0
 108 664 87 668 35 668 c 2
 20 668 l 1
 20 722 l 1
 409 722 l 1
 409 668 l 1
 394 668 l 2
 342 668 320 664 311 653 c 0
 304 645 304 641 304 577 c 2
 304 569 l 1
 565 569 l 1
 565 577 l 2
 565 640 565 645 558 653 c 0
 549 664 528 668 476 668 c 2
 461 668 l 1
 461 722 l 1
 850 722 l 1
 850 668 l 1
 835 668 l 2
 783 668 761 664 752 653 c 0
 745 645 745 641 745 577 c 2
 745 569 l 1
 832 569 l 1
 832 489 l 1
 745 489 l 1
565 489 m 1
 304 489 l 1
 304 399 l 1
 565 399 l 1
 565 489 l 1
EndSplineSet
EndChar

StartChar: hbar
Encoding: 295 295 231
Width: 685
Flags: MW
LayerCount: 2
Fore
SplineSet
99 515 m 1
 13 515 l 1
 13 595 l 1
 99 595 l 1
 97 669 92 671 35 671 c 2
 16 671 l 1
 16 722 l 1
 256 737 l 1
 256 595 l 1
 357 595 l 1
 357 515 l 1
 256 515 l 1
 256 396 l 1
 298 460 350 488 426 488 c 0
 478 488 522 471 549 440 c 1
 576 411 587 373 587 311 c 2
 587 144 l 1
 587 98 l 2
 587 57 598 51 662 51 c 2
 666 51 l 1
 666 0 l 1
 361 0 l 1
 361 51 l 1
 420 51 430 58 430 97 c 2
 430 144 l 1
 430 297 l 2
 430 361 405 395 359 395 c 0
 322 395 287 372 271 336 c 0
 260 312 256 286 256 241 c 2
 256 144 l 1
 256 98 l 2
 256 57 266 51 324 51 c 1
 324 0 l 1
 19 0 l 1
 19 51 l 1
 23 51 l 2
 88 51 99 57 99 97 c 2
 99 144 l 1
 99 515 l 1
EndSplineSet
EndChar

StartChar: Iogonek
Encoding: 302 302 238
Width: 444
Flags: MW
LayerCount: 2
Fore
SplineSet
417 54 m 1
 417 0 l 1
 393 -25 387 -37 387 -59 c 0
 387 -82 398 -95 417 -95 c 0
 434 -95 448 -89 466 -73 c 1
 485 -105 l 1
 459 -148 424 -170 383 -170 c 0
 337 -170 307 -138 307 -89 c 0
 307 -53 318 -29 349 0 c 1
 28 0 l 1
 28 54 l 1
 43 54 l 2
 95 54 116 58 125 68 c 0
 132 77 132 80 132 144 c 2
 132 578 l 2
 132 641 132 645 125 653 c 0
 116 664 95 668 43 668 c 2
 28 668 l 1
 28 722 l 1
 417 722 l 1
 417 668 l 1
 402 668 l 2
 350 668 328 664 319 653 c 0
 312 645 312 642 312 578 c 2
 312 144 l 2
 312 80 312 77 319 68 c 0
 328 58 350 54 402 54 c 2
 417 54 l 1
EndSplineSet
Ligature2: "CCMP" I uni0328
EndChar

StartChar: iogonek
Encoding: 303 303 239
Width: 370
Flags: MW
LayerCount: 2
Fore
SplineSet
28 0 m 1
 28 51 l 1
 32 51 l 2
 69 51 92 55 100 64 c 0
 106 72 106 72 106 144 c 2
 106 321 l 2
 106 410 103 415 42 415 c 2
 28 415 l 1
 28 466 l 1
 263 473 l 1
 263 144 l 2
 263 72 263 72 270 64 c 0
 277 55 300 51 335 51 c 2
 341 51 l 1
 341 0 l 1
 317 -25 311 -37 311 -59 c 0
 311 -82 322 -95 341 -95 c 0
 358 -95 372 -89 390 -73 c 1
 409 -105 l 1
 383 -148 348 -170 307 -170 c 0
 261 -170 231 -138 231 -89 c 0
 231 -53 242 -29 273 0 c 1
 28 0 l 1
182 737 m 0
 230 737 270 697 270 649 c 0
 270 599 230 560 180 560 c 0
 133 560 93 601 93 649 c 0
 93 697 133 737 182 737 c 0
EndSplineSet
Ligature2: "CCMP" dotlessi uni0328
EndChar

StartChar: dotlessi
Encoding: 305 305 241
Width: 370
Flags: MW
LayerCount: 2
Fore
SplineSet
263 473 m 1
 263 144 l 1
 263 97 l 2
 263 58 274 51 335 51 c 2
 341 51 l 1
 341 0 l 1
 28 0 l 1
 28 51 l 1
 32 51 l 2
 95 51 106 58 106 98 c 2
 106 144 l 1
 106 321 l 2
 106 410 103 415 42 415 c 2
 28 415 l 1
 28 466 l 1
 263 473 l 1
EndSplineSet
EndChar

StartChar: kgreenlandic
Encoding: 312 312 248
Width: 632
Flags: MW
LayerCount: 2
Fore
SplineSet
257 375 m 2
 257 273 l 1
 319 272 l 1
 393 272 293 492 495 492 c 0
 537 492 586 484 587 426 c 1
 586 362 549 356 519 354 c 1
 480 355 456 370 456 400 c 0
 456 417 473 429 473 435 c 0
 473 438 468 440 453 440 c 0
 415 440 477 268 352 238 c 1
 545 238 472 51 534 51 c 0
 558 51 564 76 564 104 c 2
 564 116 l 1
 627 115 l 1
 627 -12 563 -14 496 -14 c 0
 411 -14 358 43 358 107 c 2
 358 112 l 2
 358 154 357 200 305 200 c 1
 257 199 l 1
 257 98 l 2
 257 58 267 51 325 51 c 1
 325 0 l 1
 20 0 l 1
 20 51 l 1
 24 51 l 2
 89 51 100 57 100 97 c 2
 100 376 l 2
 100 416 89 422 24 422 c 2
 20 422 l 1
 20 473 l 1
 325 473 l 1
 325 422 l 1
 267 422 257 415 257 375 c 2
EndSplineSet
EndChar

StartChar: Lcaron
Encoding: 317 317 253
Width: 722
Flags: HMW
LayerCount: 2
Fore
SplineSet
538 415 m 1
 514 451 l 1
 569 489 603 533 603 567 c 0
 603 570 602 572 599 572 c 2
 596 572 l 1
 593 571 591 571 588 571 c 0
 546 571 513 605 513 648 c 0
 513 698 551 737 599 737 c 0
 653 737 690 693 690 629 c 0
 690 549 639 477 538 415 c 1
EndSplineSet
Refer: 45 76 N 1 0 0 1 0 0 2
LCarets2: 1 0 
Ligature2: "CCMP" L uni030C
EndChar

StartChar: lcaron
Encoding: 318 318 254
Width: 436
Flags: HMW
LayerCount: 2
Fore
SplineSet
304 415 m 1
 280 451 l 1
 335 489 369 533 369 567 c 0
 369 570 368 572 365 572 c 2
 362 572 l 1
 359 571 357 571 354 571 c 0
 312 571 279 605 279 648 c 0
 279 698 317 737 365 737 c 0
 419 737 456 693 456 629 c 0
 456 549 405 477 304 415 c 1
EndSplineSet
Refer: 77 108 N 1 0 0 1 0 0 2
LCarets2: 1 0 
Ligature2: "CCMP" l uni030C
EndChar

StartChar: Ldot
Encoding: 319 319 255
Width: 722
Flags: HMW
LayerCount: 2
Fore
SplineSet
456 467 m 0
 508 467 550 425 550 373 c 0
 550 321 508 279 455 279 c 0
 404 279 362 322 362 373 c 0
 362 425 404 467 456 467 c 0
EndSplineSet
Refer: 45 76 N 1 0 0 1 0 0 2
LCarets2: 1 0 
Ligature2: "CCMP" L periodcentered
EndChar

StartChar: ldot
Encoding: 320 320 256
Width: 540
Flags: HMW
LayerCount: 2
Fore
SplineSet
406 438 m 0
 458 438 500 396 500 344 c 0
 500 292 458 250 405 250 c 0
 354 250 312 293 312 344 c 0
 312 396 354 438 406 438 c 0
EndSplineSet
Refer: 77 108 N 1 0 0 1 0 0 2
LCarets2: 1 0 
Ligature2: "CCMP" l periodcentered
EndChar

StartChar: Lslash
Encoding: 321 321 257
Width: 722
Flags: MW
LayerCount: 2
Fore
SplineSet
123 249 m 1
 19 178 l 1
 19 249 l 1
 123 319 l 1
 123 578 l 2
 123 641 123 645 116 653 c 0
 107 664 86 668 34 668 c 2
 19 668 l 1
 19 722 l 1
 415 722 l 1
 415 668 l 1
 393 668 l 2
 340 668 319 664 310 653 c 0
 303 645 303 641 303 578 c 2
 303 415 l 1
 477 534 l 1
 477 464 l 1
 303 345 l 1
 303 124 l 2
 303 91 306 80 319 68 c 0
 331 56 344 54 393 54 c 2
 414 54 l 2
 485 54 542 80 583 129 c 1
 609 162 627 200 648 269 c 1
 701 269 l 1
 689 0 l 1
 19 0 l 1
 19 54 l 1
 34 54 l 2
 86 54 107 58 116 69 c 0
 123 77 123 81 123 145 c 2
 123 249 l 1
EndSplineSet
EndChar

StartChar: lslash
Encoding: 322 322 258
Width: 352
Flags: MW
LayerCount: 2
Fore
SplineSet
256 445 m 1
 329 498 l 1
 329 428 l 1
 256 374 l 1
 256 144 l 1
 256 97 l 2
 256 72 259 64 271 58 c 0
 278 54 305 51 324 51 c 2
 331 51 l 1
 331 0 l 1
 19 0 l 1
 19 51 l 1
 23 51 l 2
 88 51 99 57 99 97 c 2
 99 144 l 1
 99 291 l 1
 26 235 l 1
 26 305 l 1
 99 361 l 1
 99 578 l 2
 99 667 96 671 35 671 c 2
 16 671 l 1
 16 722 l 1
 256 737 l 1
 256 445 l 1
EndSplineSet
EndChar

StartChar: Eng
Encoding: 330 330 266
Width: 758
Flags: MW
LayerCount: 2
Fore
SplineSet
604 0 m 1
 127 526 l 1
 127 124 l 2
 127 53 145 55 230 46 c 1
 231 0 l 1
 -18 0 l 1
 -22 44 l 1
 58 53 79 48 79 105 c 2
 79 579 l 1
 26 636 8 642 -14 642 c 1
 -15 676 l 1
 217 676 l 1
 601 247 l 1
 601 552 l 2
 601 623 577 632 496 639 c 1
 499 676 l 1
 735 676 l 1
 734 641 l 1
 662 631 649 628 649 571 c 2
 649 -8 l 2
 649 -137 644 -227 526 -227 c 2
 524 -227 l 2
 480 -227 436 -218 407 -204 c 1
 365 -181 334 -136 334 -95 c 0
 334 -57 370 -23 411 -23 c 0
 454 -23 491 -58 491 -98 c 0
 491 -113 488 -121 475 -136 c 0
 465 -148 461 -154 461 -162 c 0
 461 -181 481 -194 511 -194 c 0
 560 -194 604 -169 604 -107 c 2
 604 0 l 1
EndSplineSet
EndChar

StartChar: eng
Encoding: 331 331 267
Width: 586
Flags: MW
LayerCount: 2
Fore
SplineSet
361 -96 m 2
 361 323 l 2
 361 379 342 406 303 406 c 0
 278 406 252 394 228 371 c 1
 216 362 209 352 209 348 c 2
 209 81 l 2
 209 44 216 46 260 41 c 1
 263 0 l 1
 -2 0 l 1
 -2 41 l 1
 47 50 56 42 56 84 c 2
 56 378 l 2
 56 420 45 408 -4 415 c 1
 -2 461 l 1
 208 461 l 1
 208 386 l 1
 248 445 299 473 365 473 c 0
 455 473 514 418 514 332 c 2
 514 2 l 2
 514 -57 505 -95 484 -127 c 0
 453 -176 395 -203 319 -203 c 0
 229 -203 165 -162 165 -103 c 0
 165 -67 192 -42 233 -42 c 0
 268 -42 298 -66 298 -96 c 0
 298 -106 294 -117 282 -133 c 1
 276 -143 273 -150 273 -155 c 0
 273 -165 287 -172 308 -172 c 0
 344 -172 361 -149 361 -96 c 2
EndSplineSet
EndChar

StartChar: OE
Encoding: 338 338 274
Width: 1000
Flags: MW
LayerCount: 2
Fore
SplineSet
970 722 m 1
 975 462 l 1
 923 462 l 1
 909 515 887 565 866 594 c 0
 833 639 773 668 714 668 c 2
 708 668 l 2
 681 668 660 660 650 645 c 0
 642 634 640 623 640 582 c 2
 640 401 l 1
 643 401 l 2
 722 401 771 451 782 543 c 1
 836 543 l 1
 836 204 l 1
 782 204 l 1
 771 296 722 346 643 346 c 2
 640 346 l 1
 640 125 l 2
 640 68 655 54 712 54 c 2
 719 54 l 2
 774 54 830 82 869 129 c 0
 898 164 916 202 934 269 c 1
 987 269 l 1
 976 0 l 1
 366 0 l 2
 256 0 169 34 105 101 c 0
 42 168 5 264 5 358 c 0
 5 452 43 550 105 617 c 0
 171 687 257 722 363 722 c 2
 970 722 l 1
460 191 m 2
 460 544 l 2
 460 630 430 668 361 668 c 0
 253 668 205 577 205 369 c 0
 205 266 213 198 232 148 c 0
 253 91 305 54 364 54 c 0
 396 54 425 67 439 87 c 0
 454 109 460 138 460 191 c 2
EndSplineSet
EndChar

StartChar: oe
Encoding: 339 339 275
Width: 907
Flags: MW
LayerCount: 2
Fore
SplineSet
823 164 m 1
 872 144 l 1
 829 40 750 -15 643 -15 c 0
 578 -15 515 6 468 44 c 1
 417 4 363 -15 301 -15 c 0
 150 -15 35 94 35 237 c 0
 35 309 61 368 115 416 c 0
 166 462 233 488 301 488 c 0
 363 488 411 470 471 425 c 1
 525 470 574 488 639 488 c 0
 779 488 872 390 872 243 c 2
 872 228 l 1
 550 228 l 1
 552 171 558 140 576 113 c 0
 599 77 640 53 681 53 c 0
 738 53 785 90 823 164 c 1
303 436 m 0
 241 436 208 367 208 236 c 0
 208 106 240 37 301 37 c 0
 330 37 355 55 371 87 c 0
 385 115 395 178 395 236 c 0
 395 284 387 345 376 377 c 0
 365 411 334 436 303 436 c 0
551 283 m 1
 688 283 l 2
 709 283 715 291 715 316 c 0
 715 393 689 436 642 436 c 0
 610 436 579 411 564 375 c 0
 555 353 551 327 551 283 c 1
EndSplineSet
EndChar

StartChar: tcaron
Encoding: 357 357 293
Width: 446
Flags: MW
LayerCount: 2
Fore
SplineSet
251 413 m 1
 251 156 l 2
 251 88 259 70 288 70 c 0
 328 70 351 110 351 181 c 2
 351 186 l 1
 404 186 l 1
 405 176 405 168 405 163 c 0
 405 120 390 72 365 40 c 0
 338 4 293 -15 236 -15 c 0
 179 -15 136 5 115 40 c 0
 98 68 94 92 94 174 c 2
 94 413 l 1
 23 413 l 1
 23 465 l 1
 118 476 172 543 188 671 c 1
 251 671 l 1
 251 473 l 1
 319 473 l 1
 358 507 379 540 379 567 c 0
 379 570 378 572 375 572 c 2
 372 572 l 1
 369 571 367 571 364 571 c 0
 322 571 289 605 289 648 c 0
 289 698 327 737 375 737 c 0
 429 737 466 693 466 629 c 0
 466 569 438 515 381 464 c 1
 381 413 l 1
 251 413 l 1
EndSplineSet
LCarets2: 1 0 
Ligature2: "CCMP" t uni030C
EndChar

StartChar: Tbar
Encoding: 358 358 294
Width: 722
Flags: MW
LayerCount: 2
Fore
SplineSet
271 342 m 1
 192 342 l 1
 192 422 l 1
 271 422 l 1
 271 629 l 2
 271 663 265 670 235 670 c 0
 189 670 151 647 119 599 c 0
 95 564 81 525 68 451 c 1
 15 451 l 1
 30 722 l 1
 692 722 l 1
 707 451 l 1
 654 451 l 1
 639 532 623 574 595 611 c 0
 563 652 530 670 487 670 c 0
 457 670 451 663 451 629 c 2
 451 422 l 1
 536 422 l 1
 536 342 l 1
 451 342 l 1
 451 144 l 2
 451 81 451 77 458 69 c 0
 467 58 488 54 541 54 c 2
 563 54 l 1
 563 0 l 1
 159 0 l 1
 159 54 l 1
 181 54 l 2
 234 54 255 58 264 69 c 0
 271 77 271 81 271 144 c 2
 271 342 l 1
EndSplineSet
EndChar

StartChar: tbar
Encoding: 359 359 295
Width: 426
Flags: MW
LayerCount: 2
Fore
SplineSet
94 253 m 1
 19 253 l 1
 19 333 l 1
 94 333 l 1
 94 413 l 1
 23 413 l 1
 23 465 l 1
 118 476 172 543 188 671 c 1
 251 671 l 1
 251 473 l 1
 381 473 l 1
 381 413 l 1
 251 413 l 1
 251 333 l 1
 363 333 l 1
 363 253 l 1
 251 253 l 1
 251 156 l 2
 251 88 259 70 288 70 c 0
 328 70 351 110 351 181 c 2
 351 186 l 1
 404 186 l 1
 405 176 405 168 405 163 c 0
 405 120 390 72 365 40 c 0
 338 4 293 -15 236 -15 c 0
 179 -15 136 5 115 40 c 0
 98 68 94 92 94 174 c 2
 94 253 l 1
EndSplineSet
EndChar

StartChar: Uogonek
Encoding: 370 370 306
Width: 833
Flags: MW
LayerCount: 2
Fore
SplineSet
657 -73 m 1
 676 -105 l 1
 650 -148 615 -170 574 -170 c 0
 528 -170 498 -138 498 -89 c 0
 498 -55 510 -29 537 -3 c 1
 500 -12 466 -15 421 -15 c 0
 283 -15 186 26 145 100 c 0
 126 135 119 178 119 261 c 2
 119 578 l 2
 119 641 119 645 112 653 c 0
 103 664 82 668 30 668 c 2
 15 668 l 1
 15 722 l 1
 404 722 l 1
 404 668 l 1
 389 668 l 2
 337 668 315 664 306 653 c 0
 299 645 299 641 299 578 c 2
 299 258 l 2
 299 185 310 136 332 109 c 1
 360 77 403 60 460 60 c 0
 543 60 601 92 630 155 c 0
 643 183 647 222 647 304 c 2
 647 505 l 2
 647 594 642 619 621 641 c 0
 605 658 578 667 539 668 c 1
 539 722 l 1
 824 722 l 1
 824 668 l 1
 784 667 756 658 740 641 c 0
 719 619 714 593 714 505 c 2
 714 304 l 2
 714 144 710 132 617 20 c 0
 592 -10 578 -39 578 -62 c 0
 578 -82 590 -95 608 -95 c 0
 625 -95 639 -88 657 -73 c 1
EndSplineSet
Ligature2: "CCMP" U uni0328
EndChar

StartChar: uogonek
Encoding: 371 371 307
Width: 685
Flags: MW
LayerCount: 2
Fore
SplineSet
667 65 m 1
 667 0 l 1
 644 -24 637 -37 637 -59 c 0
 637 -82 648 -95 667 -95 c 0
 684 -95 698 -89 716 -73 c 1
 735 -105 l 1
 709 -148 674 -170 633 -170 c 0
 587 -170 557 -138 557 -89 c 0
 557 -50 566 -32 608 8 c 1
 434 0 l 1
 434 82 l 1
 376 11 328 -15 257 -15 c 0
 189 -15 136 16 109 71 c 0
 95 99 93 117 93 191 c 2
 93 318 l 1
 92 413 91 415 29 415 c 2
 13 415 l 1
 13 466 l 1
 250 473 l 1
 250 185 l 2
 250 109 271 78 321 78 c 0
 359 78 394 101 410 135 c 1
 423 160 427 188 427 238 c 2
 427 318 l 2
 427 411 424 415 363 415 c 2
 347 415 l 1
 347 466 l 1
 584 473 l 1
 584 131 l 2
 584 67 586 65 639 65 c 2
 667 65 l 1
EndSplineSet
Ligature2: "CCMP" u uni0328
EndChar

StartChar: longs
Encoding: 383 383 319
Width: 389
Flags: MW
LayerCount: 2
Fore
SplineSet
258 144 m 1
 258 97 l 2
 258 57 269 50 333 50 c 2
 351 50 l 1
 351 0 l 1
 21 0 l 1
 21 50 l 1
 25 50 l 2
 90 50 101 57 101 97 c 2
 101 144 l 1
 101 413 l 1
 14 413 l 1
 14 473 l 1
 101 473 l 1
 101 486 l 2
 101 634 188 733 319 733 c 0
 402 733 464 686 464 624 c 0
 464 577 430 542 384 542 c 0
 342 542 309 572 309 611 c 0
 309 630 319 652 334 664 c 0
 338 668 339 670 339 673 c 0
 339 677 332 681 323 681 c 0
 303 681 280 664 270 641 c 0
 260 619 258 597 258 530 c 2
 258 144 l 1
EndSplineSet
EndChar

StartChar: uni018F
Encoding: 399 399 320
Width: 765
Flags: MW
LayerCount: 2
Fore
SplineSet
43 327 m 1
 489 327 l 1
 488 403 479 444 456 480 c 0
 423 531 369 560 308 560 c 0
 221 560 161 516 108 412 c 1
 43 439 l 1
 101 581 204 651 360 651 c 0
 461 651 551 621 612 569 c 0
 678 512 720 416 720 321 c 0
 720 233 684 145 624 83 c 0
 557 15 468 -20 361 -20 c 0
 167 -20 43 107 43 305 c 2
 43 327 l 1
488 253 m 1
 288 253 l 2
 261 253 252 243 252 211 c 0
 252 105 289 49 357 49 c 0
 437 49 488 127 488 253 c 1
EndSplineSet
EndChar

StartChar: florin
Encoding: 402 402 321
Width: 574
Flags: MW
LayerCount: 2
Fore
SplineSet
362 457 m 1
 498 457 l 1
 498 397 l 1
 358 397 l 1
 347 216 l 2
 344 171 333 82 324 31 c 0
 299 -116 230 -195 126 -195 c 0
 60 -195 14 -158 14 -105 c 0
 14 -62 43 -32 83 -32 c 0
 120 -32 145 -56 145 -92 c 0
 145 -104 142 -114 136 -127 c 0
 129 -140 129 -141 129 -144 c 0
 129 -149 135 -153 142 -153 c 0
 157 -153 174 -139 181 -122 c 0
 190 -100 194 -68 199 22 c 2
 222 397 l 1
 98 397 l 1
 98 457 l 1
 228 457 l 1
 236 546 246 586 271 637 c 0
 307 708 363 746 433 746 c 0
 503 746 549 710 549 657 c 0
 549 614 521 584 480 584 c 0
 444 584 417 609 417 644 c 0
 417 658 423 677 432 691 c 0
 433 694 434 696 434 698 c 0
 434 701 429 704 423 704 c 0
 401 704 385 686 376 651 c 0
 370 627 370 627 362 457 c 1
EndSplineSet
EndChar

StartChar: uni0237
Encoding: 567 567 345
Width: 352
Flags: MW
LayerCount: 2
Fore
SplineSet
268 473 m 1
 268 109 l 2
 268 5 259 -51 233 -101 c 0
 202 -163 133 -202 58 -202 c 0
 -24 -202 -82 -160 -82 -102 c 0
 -82 -59 -49 -27 -4 -27 c 0
 34 -27 61 -55 61 -94 c 0
 61 -116 53 -130 32 -144 c 1
 38 -152 45 -155 58 -155 c 0
 94 -155 111 -124 111 -56 c 2
 111 329 l 2
 111 409 106 415 47 415 c 2
 15 415 l 1
 15 466 l 1
 268 473 l 1
EndSplineSet
EndChar

StartChar: uni0259
Encoding: 601 601 346
Width: 574
Flags: MW
LayerCount: 2
Fore
SplineSet
32 245 m 1
 367 245 l 1
 366 302 359 333 342 360 c 0
 317 398 277 420 231 420 c 0
 166 420 121 387 81 309 c 1
 32 329 l 1
 76 436 153 488 270 488 c 0
 346 488 413 466 459 427 c 0
 509 384 540 312 540 241 c 0
 540 175 513 109 468 62 c 0
 418 11 351 -15 271 -15 c 0
 125 -15 32 80 32 229 c 2
 32 245 l 1
366 190 m 1
 216 190 l 2
 196 190 189 182 189 158 c 0
 189 79 217 37 268 37 c 0
 328 37 366 95 366 190 c 1
EndSplineSet
EndChar

StartChar: circumflex
Encoding: 710 710 347
Width: 333
Flags: MW
LayerCount: 2
Fore
SplineSet
-8 544 m 1
 113 722 l 1
 222 722 l 1
 343 544 l 1
 276 544 l 1
 168 637 l 1
 59 544 l 1
 -8 544 l 1
EndSplineSet
EndChar

StartChar: caron
Encoding: 711 711 348
Width: 333
Flags: MW
LayerCount: 2
Fore
SplineSet
343 722 m 1
 222 544 l 1
 113 544 l 1
 -8 722 l 1
 59 722 l 1
 167 629 l 1
 276 722 l 1
 343 722 l 1
EndSplineSet
EndChar

StartChar: breve
Encoding: 728 728 349
Width: 333
Flags: MW
LayerCount: 2
Fore
SplineSet
9 712 m 1
 62 712 l 1
 69 657 103 630 167 630 c 0
 230 630 264 657 271 712 c 1
 324 712 l 1
 324 607 266 545 166 545 c 0
 66 545 9 606 9 712 c 1
EndSplineSet
EndChar

StartChar: dotaccent
Encoding: 729 729 350
Width: 333
Flags: MW
LayerCount: 2
Fore
SplineSet
167 693 m 0
 205 693 237 661 237 623 c 0
 237 583 205 552 166 552 c 0
 128 552 96 584 96 623 c 0
 96 661 128 693 167 693 c 0
EndSplineSet
EndChar

StartChar: ring
Encoding: 730 730 351
Width: 333
Flags: MW
LayerCount: 2
Fore
SplineSet
167 760 m 0
 226 760 274 712 274 653 c 0
 274 593 226 545 165 545 c 0
 108 545 59 594 59 653 c 0
 59 711 108 760 167 760 c 0
167 708 m 0
 138 708 114 683 114 652 c 0
 114 623 138 597 166 597 c 0
 195 597 219 622 219 653 c 0
 219 683 195 708 167 708 c 0
EndSplineSet
EndChar

StartChar: ogonek
Encoding: 731 731 352
Width: 333
Flags: MW
LayerCount: 2
Fore
SplineSet
111 0 m 1
 178 0 l 1
 154 -25 148 -37 148 -59 c 0
 148 -82 159 -95 178 -95 c 0
 195 -95 209 -89 227 -73 c 1
 246 -105 l 1
 220 -148 185 -170 144 -170 c 0
 98 -170 68 -138 68 -89 c 0
 68 -53 80 -29 111 0 c 1
EndSplineSet
EndChar

StartChar: tilde
Encoding: 732 732 353
Width: 333
Flags: MW
LayerCount: 2
Fore
SplineSet
309 701 m 1
 358 701 l 1
 354 667 345 643 324 616 c 0
 297 580 271 566 232 566 c 0
 199 566 184 571 131 599 c 0
 108 612 84 620 71 620 c 0
 52 620 36 602 27 570 c 1
 -23 570 l 1
 -11 649 39 705 96 705 c 0
 123 705 140 700 192 675 c 0
 226 659 248 651 263 651 c 0
 284 651 295 663 309 701 c 1
EndSplineSet
EndChar

StartChar: hungarumlaut
Encoding: 733 733 354
Width: 333
Flags: MW
LayerCount: 2
Fore
SplineSet
93 545 m 1
 68 560 l 1
 87 657 l 2
 93 688 97 698 104 710 c 0
 113 724 129 733 146 733 c 0
 174 733 196 711 196 684 c 0
 196 664 187 644 170 626 c 2
 93 545 l 1
262 545 m 1
 237 560 l 1
 256 657 l 2
 262 688 266 698 273 710 c 0
 282 724 298 733 315 733 c 0
 343 733 365 711 365 684 c 0
 365 664 356 644 339 626 c 2
 262 545 l 1
EndSplineSet
EndChar

StartChar: uni0324
Encoding: 804 804 368
Width: 0
Flags: MW
LayerCount: 2
Fore
SplineSet
-230 -121 m 0
 -200 -121 -175 -146 -175 -176 c 0
 -175 -208 -200 -232 -231 -232 c 0
 -261 -232 -286 -207 -286 -176 c 0
 -286 -146 -261 -121 -230 -121 c 0
-58 -121 m 0
 -28 -121 -3 -146 -3 -176 c 0
 -3 -208 -28 -232 -59 -232 c 0
 -89 -232 -114 -207 -114 -176 c 0
 -114 -146 -89 -121 -58 -121 c 0
EndSplineSet
EndChar

StartChar: uni0325
Encoding: 805 805 369
Width: 0
Flags: MW
LayerCount: 2
Fore
SplineSet
-144 -69 m 2
 -145 -69 l 2
 -98 -69 -60 -107 -60 -154 c 0
 -60 -202 -98 -240 -146 -240 c 0
 -191 -240 -230 -201 -230 -154 c 0
 -230 -108 -191 -69 -144 -69 c 2
-145 -110 m 1
 -145 -111 l 1
 -168 -111 -187 -131 -187 -155 c 0
 -187 -178 -168 -198 -146 -198 c 0
 -123 -198 -104 -178 -104 -154 c 0
 -104 -130 -123 -110 -145 -110 c 1
EndSplineSet
EndChar

StartChar: uni0326
Encoding: 806 806 370
Width: 0
Flags: MW
AnchorPoint: "Bottom" -146 0 mark 0
LayerCount: 2
Fore
SplineSet
-207 -372 m 1
 -231 -336 l 1
 -176 -298 -142 -254 -142 -220 c 0
 -142 -217 -143 -215 -146 -215 c 2
 -149 -215 l 1
 -152 -216 -154 -216 -157 -216 c 0
 -199 -216 -232 -182 -232 -139 c 0
 -232 -89 -194 -50 -146 -50 c 0
 -92 -50 -55 -94 -55 -158 c 0
 -55 -238 -106 -310 -207 -372 c 1
EndSplineSet
EndChar

StartChar: uni032E
Encoding: 814 814 373
Width: 0
Flags: MW
LayerCount: 2
Fore
SplineSet
-270 -108 m 1
 -226 -107 l 1
 -221 -151 -194 -172 -143 -172 c 0
 -93 -172 -66 -151 -61 -107 c 1
 -19 -107 l 1
 -19 -191 -65 -240 -145 -240 c 0
 -225 -240 -270 -192 -270 -108 c 1
EndSplineSet
EndChar

StartChar: uni0330
Encoding: 816 816 374
Width: 0
Flags: MW
LayerCount: 2
Fore
SplineSet
-30 -112 m 1
 9 -113 l 1
 6 -140 -1 -159 -17 -180 c 0
 -38 -208 -58 -219 -89 -219 c 0
 -115 -219 -127 -215 -169 -193 c 0
 -187 -183 -206 -177 -216 -177 c 0
 -231 -177 -243 -191 -250 -216 c 1
 -290 -216 l 1
 -281 -153 -241 -109 -196 -109 c 0
 -175 -109 -162 -113 -121 -133 c 1
 -94 -145 -77 -151 -65 -151 c 0
 -49 -151 -41 -142 -30 -112 c 1
EndSplineSet
EndChar

StartChar: uni0331
Encoding: 817 817 375
Width: 0
Flags: MW
LayerCount: 2
Fore
SplineSet
-258 -82 m 1
 -28 -82 l 1
 -28 -154 l 1
 -258 -154 l 1
 -258 -82 l 1
EndSplineSet
EndChar

StartChar: uni0394
Encoding: 916 916 380
Width: 724
VWidth: 1093
Flags: HMW
LayerCount: 2
Fore
SplineSet
-6.56445 -8.75195 m 1
 394.934 793.15 l 1
 746.108 -8.75195 l 1
 -6.56445 -8.75195 l 1
350.08 516.368 m 1
 140.032 91.8965 l 1
 537.154 91.8965 l 1
 350.08 516.368 l 1
EndSplineSet
EndChar

StartChar: Theta
Encoding: 920 920 384
Width: 833
VWidth: 1093
Flags: HMW
LayerCount: 2
Fore
SplineSet
518.238 512.932 m 1
 518.238 235.364 l 1
 476.94 235.364 l 1
 474.752 256.15 l 1
 471.47 309.756 483.812 308.508 418.172 308.508 c 2
 415.788 308.508 l 2
 347.96 308.514 360.302 309.756 355.926 256.15 c 1
 353.738 235.364 l 1
 310.44 235.364 l 1
 310.44 512.932 l 1
 353.738 512.932 l 1
 355.926 492.146 l 1
 359.208 440.728 349.054 439.787 411.412 439.788 c 2
 415.984 439.788 l 2
 482.718 439.788 470.376 440.728 474.752 492.146 c 2
 476.94 512.932 l 1
 518.238 512.932 l 1
EndSplineSet
Refer: 391 927 N 1 0 0 1 0 0 2
EndChar

StartChar: Lambda
Encoding: 923 923 387
Width: 759
Flags: HMW
LayerCount: 2
Fore
SplineSet
351 737 m 1
 427 737 l 1
 684 117 l 2
 705 66 721 56 778 54 c 1
 778 0 l 1
 427 0 l 1
 427 54 l 1
 444 55 l 1
 489 55 502 61 502 79 c 0
 502 87 497.253 101.687 490 120 c 2
 330 524 l 1
 203 218 l 1
 187 180 l 2
 174 151 171 140 171 123 c 0
 171 77 199 58 271 54 c 1
 271 0 l 1
 -18 0 l 1
 -18 54 l 1
 41 60 78 99 124 207 c 2
 351 737 l 1
330 524 m 1
EndSplineSet
EndChar

StartChar: Xi
Encoding: 926 926 390
Width: 793
VWidth: 1093
Flags: HMW
LayerCount: 2
Fore
SplineSet
703.442 736.262 m 1
 717.664 508.71 l 1
 647.648 508.71 l 1
 644.366 526.214 l 2
 633.426 589.666 625.768 600.606 534.966 600.606 c 2
 261.466 600.606 l 2
 168.476 600.606 161.912 590.76 152.066 526.214 c 1
 147.69 508.71 l 1
 77.6738 508.71 l 1
 91.8965 736.262 l 1
 703.442 736.262 l 1
679.374 240.68 m 1
 753.766 240.68 l 1
 700.16 0 l 1
 94.084 0 l 1
 43.7598 240.68 l 1
 115.964 240.68 l 1
 118.152 234.116 l 1
 119.246 224.27 l 1
 143.314 148.784 157.536 135.656 284.44 135.656 c 2
 494.488 135.656 l 2
 636.708 135.656 652.024 149.878 673.904 225.364 c 1
 679.374 240.68 l 1
575.444 522.932 m 1
 575.444 225.364 l 1
 501.052 225.364 l 1
 499.958 246.15 l 1
 495.582 299.756 487.924 308.508 419.002 308.508 c 2
 379.618 308.508 l 2
 309.602 308.508 301.944 299.756 297.568 246.15 c 1
 295.38 225.364 l 1
 219.894 225.364 l 1
 219.894 522.932 l 1
 295.38 522.932 l 1
 297.568 502.146 l 2
 301.944 451.822 310.696 439.788 376.336 439.788 c 2
 416.814 439.788 l 2
 485.736 439.788 494.488 450.728 499.958 502.146 c 1
 501.052 522.932 l 1
 575.444 522.932 l 1
EndSplineSet
EndChar

StartChar: Sigma
Encoding: 931 931 394
Width: 759
VWidth: 1093
Flags: HMW
LayerCount: 2
Fore
SplineSet
16 667 m 1
 260.286 352.268 l 1
 15.999 54 l 1
 16 0 l 1
 695 0 l 1
 707 269 l 1
 654 269 l 1
 612 119 541 54 420 54 c 2
 118 54 l 1
 425.48 401.498 l 1
 205.5 668 l 2
 414 668 l 2
 488 668 549 641 583 594 c 0
 604 564 626 514 641 462 c 1
 693 462 l 1
 687 722 l 1
 16 722 l 1
 16 667 l 1
EndSplineSet
EndChar

StartChar: Psi
Encoding: 936 936 399
Width: 957
VWidth: 1093
Flags: HMW
LayerCount: 2
Fore
SplineSet
387 367.728 m 1
 387 461.152 387 554.576 387 648 c 0
 387 676 386 682 379 690 c 0
 370 701 349 705 297 705 c 2
 282 705 l 1
 282 759 l 1
 671 759 l 1
 671 705 l 1
 656 705 l 2
 604 705 582 701 573 690 c 0
 568 684 567 679 567 664 c 2
 567 367.802 l 1
 619.75 369.381 644.077 375.818 658.588 386.182 c 0
 702.348 414.626 706.724 434.318 713.288 542.624 c 0
 720.946 689.22 778.928 741.732 918.96 750.484 c 1
 941.934 752.672 l 1
 941.934 687.032 l 1
 924.43 683.75 l 2
 891.61 677.186 883.952 661.87 883.952 596.23 c 1
 886.14 509.804 l 1
 886.14 419.002 839.098 348.986 753.766 313.978 c 1
 706.318 291.835 646.674 282.904 567 282.287 c 1
 567 89 l 2
 567 76 568 75 573 69 c 0
 582 58 604 54 656 54 c 2
 671 54 l 1
 671 0 l 1
 282 0 l 1
 282 54 l 1
 297 54 l 2
 349 54 370 58 379 69 c 0
 386 77 387 79 387 103 c 0
 387 162.774 387 222.548 387 282.322 c 1
 294.967 283.391 228.573 296.672 177.228 326.012 c 0
 80.9561 381.806 72.2041 470.42 72.2041 509.804 c 2
 74.3916 596.23 l 1
 74.3916 661.87 66.7344 677.186 33.9141 683.75 c 2
 16.4102 687.032 l 1
 16.4102 752.672 l 1
 39.3838 750.484 l 1
 179.416 741.732 237.398 689.22 245.056 542.624 c 0
 251.62 422.284 259.278 406.968 310.696 380.712 c 0
 324.561 373.779 349.174 368.64 387 367.728 c 1
EndSplineSet
EndChar

StartChar: uni03A9
Encoding: 937 937 400
Width: 894
VWidth: 1093
Flags: HMW
LayerCount: 2
Fore
SplineSet
406.968 -8.75195 m 1
 28.4443 -8.75195 l 1
 28.4443 203.484 l 1
 95.1777 203.484 l 1
 98.46 183.792 l 2
 105.024 149.878 117.058 133.468 153.16 133.468 c 2
 295.38 133.468 l 1
 295.38 136.75 l 1
 260.372 148.784 237.398 159.724 212.236 175.04 c 0
 120.34 229.74 65.6396 320.542 65.6396 419.002 c 0
 65.6396 493.394 99.5537 576.538 155.348 637.802 c 0
 178.322 662.964 273.5 759.236 448.54 759.236 c 0
 623.58 759.236 718.758 662.964 741.732 637.802 c 0
 797.526 576.538 831.44 493.394 831.44 419.002 c 0
 831.44 320.542 776.74 228.646 684.844 175.04 c 0
 659.682 159.724 635.614 148.784 601.7 137.844 c 1
 601.7 133.468 l 1
 743.92 133.468 l 2
 780.021 133.468 792.056 149.878 798.62 183.792 c 2
 801.902 203.484 l 1
 868.636 203.484 l 1
 868.636 -8.75195 l 1
 490.112 -8.75195 l 1
 516.368 189.262 l 1
 519.65 190.356 l 1
 525.12 194.732 l 1
 608.264 237.398 660.776 323.824 660.776 414.626 c 0
 660.776 464.95 645.46 524.026 618.11 569.974 c 0
 579.82 632.332 518.556 667.34 448.54 667.34 c 0
 378.524 667.34 317.26 632.332 278.97 569.974 c 0
 251.62 524.026 236.304 464.95 236.304 414.626 c 0
 236.304 323.824 288.816 237.398 371.96 194.732 c 1
 377.43 190.356 l 1
 380.712 189.262 l 1
 406.968 -8.75195 l 1
EndSplineSet
EndChar

StartChar: alpha
Encoding: 945 945 401
Width: 669
VWidth: 1070
Flags: HMW
LayerCount: 2
Fore
SplineSet
645.21 125.19 m 2
 645.21 92.0195 635.58 62.0596 615.25 36.3799 c 0
 593.85 8.55957 567.1 -5.34961 535 -6.41992 c 0
 462.24 -6.41992 415.16 16.0498 392.69 62.0596 c 1
 387.34 56.71 379.85 47.0801 371.29 36.3799 c 1
 335.98 3.20996 295.32 -12.8398 250.38 -12.8398 c 0
 179.76 -12.8398 125.19 11.7695 82.3896 63.1299 c 0
 43.8701 110.21 23.54 170.13 23.54 242.89 c 0
 23.54 315.65 43.8701 374.5 85.5996 421.58 c 0
 129.47 470.8 186.18 494.34 258.94 494.34 c 0
 313.51 494.34 359.52 468.66 395.9 415.16 c 1
 451.54 487.92 l 1
 499.69 487.92 l 1
 499.69 128.4 l 2
 499.69 70.6201 514.67 41.7305 544.63 40.6602 c 0
 568.17 40.6602 583.15 59.9199 588.5 101.65 c 0
 590.64 114.49 591.71 144.45 590.64 189.39 c 1
 645.21 189.39 l 1
 645.21 125.19 l 2
379.85 121.98 m 1
 379.85 339.19 l 2
 379.85 343.47 375.57 353.1 369.15 364.87 c 0
 343.47 418.37 311.37 445.12 270.71 446.19 c 0
 232.19 446.19 203.3 419.44 185.11 365.94 c 0
 172.27 329.56 165.85 286.76 166.92 237.54 c 0
 166.92 192.6 173.34 150.87 184.04 113.42 c 0
 201.16 58.8496 225.77 31.0303 258.94 29.96 c 0
 310.3 29.96 350.96 60.9902 379.85 121.98 c 1
EndSplineSet
EndChar

StartChar: beta
Encoding: 946 946 402
Width: 549
VWidth: 1070
Flags: HMW
LayerCount: 2
Fore
SplineSet
523.23 237.54 m 0
 523.23 167.99 501.83 110.21 457.96 62.0596 c 0
 413.02 11.7695 357.38 -12.8398 288.9 -12.8398 c 0
 236.47 -12.8398 200.09 3.20996 177.62 36.3799 c 1
 177.62 -80.25 169.06 -166.92 151.94 -223.63 c 1
 26.75 -223.63 l 1
 43.8701 -151.94 51.3604 -94.1602 51.3604 -47.0801 c 2
 51.3604 506.11 l 2
 51.3604 676.24 123.05 761.84 264.29 761.84 c 0
 327.42 761.84 379.85 746.86 422.65 716.9 c 0
 469.73 683.73 492.2 636.65 491.13 575.66 c 0
 491.13 516.81 465.45 466.52 413.02 424.79 c 1
 453.68 402.32 481.5 377.71 498.62 348.82 c 128
 515.74 319.93 523.23 283.55 523.23 237.54 c 0
398.04 185.11 m 0
 398.04 218.28 391.62 253.59 380.92 288.9 c 0
 369.15 329.56 353.1 359.52 333.84 380.92 c 1
 315.65 374.5 299.6 371.29 282.48 371.29 c 0
 267.5 371.29 251.45 376.64 232.19 386.27 c 0
 211.86 396.97 202.23 409.81 202.23 422.65 c 0
 202.23 435.49 209.72 448.33 226.84 457.96 c 0
 239.68 465.45 254.66 469.73 270.71 469.73 c 0
 289.97 469.73 309.23 466.52 330.63 460.1 c 1
 350.96 490.06 361.66 528.58 362.73 576.73 c 0
 362.73 615.25 356.31 647.35 341.33 671.96 c 0
 323.14 701.92 295.32 716.9 258.94 716.9 c 0
 204.37 716.9 177.62 664.47 177.62 559.61 c 2
 177.62 154.08 l 2
 177.62 124.12 188.32 96.2998 211.86 72.7598 c 128
 235.4 49.2197 262.15 36.3799 292.11 36.3799 c 0
 326.35 36.3799 353.1 53.5 372.36 86.6699 c 0
 389.48 115.56 398.04 148.73 398.04 185.11 c 0
EndSplineSet
EndChar

StartChar: gamma
Encoding: 947 947 403
Width: 538
VWidth: 1070
Flags: HMW
LayerCount: 2
Fore
SplineSet
511.46 439.77 m 0
 511.46 396.97 487.92 332.77 440.84 246.1 c 0
 429.07 222.56 391.62 161.57 330.63 62.0596 c 1
 342.4 -10.7002 349.89 -74.9004 349.89 -131.61 c 0
 349.89 -196.88 328.49 -231.12 284.62 -231.12 c 0
 241.82 -231.12 220.42 -195.81 220.42 -124.12 c 0
 220.42 -89.8799 225.77 -50.29 235.4 -5.34961 c 0
 246.1 40.6602 260.01 78.1104 276.06 107 c 1
 269.64 157.29 254.66 211.86 231.12 270.71 c 1
 200.09 349.89 166.92 389.48 133.75 389.48 c 0
 95.2305 389.48 72.7598 362.73 68.4805 309.23 c 1
 26.75 309.23 l 1
 26.75 318.86 l 2
 26.75 440.84 55.6396 501.83 113.42 501.83 c 0
 192.6 501.83 257.87 386.27 309.23 155.15 c 1
 344.54 234.33 368.08 307.09 377.71 371.29 c 0
 383.06 411.95 389.48 438.7 394.83 451.54 c 0
 406.6 483.64 424.79 500.76 449.4 501.83 c 0
 491.13 501.83 511.46 481.5 511.46 439.77 c 0
EndSplineSet
EndChar

StartChar: delta
Encoding: 948 948 404
Width: 523
VWidth: 1070
Flags: HMW
LayerCount: 2
Fore
SplineSet
496.48 235.4 m 0
 496.48 161.57 474.01 101.65 428 55.6396 c 128
 381.99 9.62988 323.14 -12.8398 249.31 -12.8398 c 0
 182.97 -12.8398 128.4 7.49023 87.7402 48.1504 c 128
 47.0801 88.8096 26.75 142.31 26.75 207.58 c 0
 26.75 265.36 46.0098 316.72 83.46 362.73 c 0
 118.77 405.53 165.85 433.35 223.63 449.4 c 1
 191.53 474.01 159.43 499.69 127.33 525.37 c 1
 96.2998 555.33 80.25 590.64 80.25 632.37 c 0
 80.25 656.98 93.0898 680.52 119.84 705.13 c 0
 141.24 724.39 165.85 738.3 192.6 747.93 c 128
 219.35 757.561 246.1 761.84 273.92 761.84 c 0
 316.72 761.84 353.1 755.42 383.06 742.58 c 0
 423.72 724.39 442.98 696.57 442.98 660.19 c 0
 442.98 639.86 435.49 622.74 422.65 609.9 c 128
 409.81 597.061 392.69 590.64 372.36 590.64 c 0
 352.03 590.64 335.98 597.061 323.14 609.9 c 128
 310.3 622.74 302.81 639.86 302.81 660.19 c 0
 302.81 681.59 310.3 698.71 323.14 710.48 c 1
 308.16 713.69 293.18 715.83 276.06 715.83 c 0
 250.38 715.83 223.63 708.34 195.81 695.5 c 0
 162.64 679.45 145.52 660.19 145.52 636.65 c 0
 145.52 604.55 175.48 571.38 235.4 537.14 c 0
 327.42 483.64 384.13 448.33 404.46 430.14 c 0
 464.38 376.64 495.41 311.37 496.48 235.4 c 0
371.29 205.44 m 0
 371.29 234.33 364.87 265.36 353.1 298.53 c 128
 341.33 331.7 327.42 358.45 308.16 380.92 c 0
 289.97 401.25 273.92 410.88 262.15 409.81 c 0
 189.39 409.81 154.08 345.61 154.08 217.21 c 0
 154.08 172.27 161.57 133.75 178.69 100.58 c 0
 200.09 57.7803 230.05 36.3799 270.71 36.3799 c 0
 307.09 36.3799 334.91 56.71 353.1 97.3701 c 0
 364.87 126.26 371.29 161.57 371.29 205.44 c 0
EndSplineSet
EndChar

StartChar: epsilon
Encoding: 949 949 405
Width: 470
VWidth: 1070
Flags: HMW
LayerCount: 2
Fore
SplineSet
445.12 124.12 m 0
 445.12 121.98 444.05 119.84 442.98 118.77 c 0
 428 77.04 403.39 44.9404 368.08 20.3301 c 0
 333.84 -2.13965 293.18 -12.8398 247.17 -12.8398 c 0
 194.74 -12.8398 147.66 -3.20996 104.86 17.1201 c 0
 52.4297 42.7998 26.75 78.1104 26.75 125.19 c 0
 26.75 193.67 85.5996 236.47 202.23 255.73 c 1
 163.71 261.08 129.47 272.85 101.65 292.11 c 0
 68.4805 315.65 51.3604 345.61 50.29 380.92 c 0
 50.29 425.86 74.9004 457.96 125.19 478.29 c 0
 160.5 494.34 204.37 501.83 255.73 501.83 c 0
 364.87 501.83 419.44 472.94 419.44 416.23 c 0
 419.44 383.06 400.18 365.94 362.73 364.87 c 0
 349.89 364.87 335.98 368.08 324.21 374.5 c 0
 310.3 381.99 304.95 392.69 306.02 404.46 c 0
 306.02 407.67 307.09 413.02 309.23 419.44 c 128
 311.37 425.86 312.44 431.21 312.44 434.42 c 0
 312.44 447.26 298.53 455.82 270.71 456.89 c 0
 206.51 456.89 173.34 426.93 172.27 369.15 c 0
 172.27 308.16 200.09 277.13 254.66 277.13 c 0
 260.01 277.13 267.5 278.2 277.13 281.41 c 128
 286.76 284.62 295.32 285.69 300.67 285.69 c 0
 326.35 285.69 339.19 277.13 339.19 258.94 c 0
 339.19 242.89 326.35 235.4 300.67 235.4 c 0
 295.32 235.4 287.83 236.47 278.2 239.68 c 128
 268.57 242.89 261.08 243.96 255.73 243.96 c 0
 227.91 243.96 206.51 232.19 190.46 207.58 c 0
 177.62 187.25 170.13 162.64 170.13 133.75 c 0
 170.13 69.5498 200.09 36.3799 258.94 36.3799 c 0
 310.3 36.3799 347.75 56.71 372.36 97.3701 c 1
 377.71 108.07 383.06 119.84 387.34 130.54 c 1
 393.76 139.1 405.53 144.45 421.58 145.52 c 0
 437.63 144.45 445.12 136.96 445.12 124.12 c 0
EndSplineSet
EndChar

StartChar: zeta
Encoding: 950 950 406
Width: 447
VWidth: 1070
Flags: HMW
LayerCount: 2
Fore
SplineSet
472.94 -32.0996 m 0
 472.94 -86.6699 455.82 -130.54 421.58 -164.78 c 128
 387.34 -199.02 342.4 -216.14 287.83 -216.14 c 0
 265.36 -216.14 245.03 -211.86 226.84 -204.37 c 0
 204.37 -194.74 194.74 -178.69 195.81 -157.29 c 0
 195.81 -142.31 202.23 -130.54 214 -121.98 c 0
 224.7 -113.42 238.61 -109.14 254.66 -109.14 c 0
 264.29 -109.14 278.2 -111.28 297.46 -115.56 c 128
 316.72 -119.84 330.63 -121.98 339.19 -121.98 c 0
 357.38 -121.98 372.36 -115.56 384.13 -103.79 c 128
 395.9 -92.0195 401.25 -77.04 401.25 -59.9199 c 0
 401.25 -43.8701 395.9 -32.0996 385.2 -21.4004 c 128
 374.5 -10.7002 361.66 -5.34961 344.54 -5.34961 c 0
 333.84 -5.34961 317.79 -6.41992 296.39 -9.62988 c 128
 274.99 -12.8398 257.87 -12.8398 247.17 -12.8398 c 0
 99.5098 -12.8398 26.75 65.2695 26.75 223.63 c 0
 26.75 295.32 38.5195 360.59 63.1299 418.37 c 0
 83.46 466.52 118.77 522.16 169.06 586.36 c 1
 144.45 589.57 125.19 599.2 109.14 612.04 c 0
 90.9502 628.09 82.3896 647.35 82.3896 670.89 c 0
 82.3896 719.04 115.56 749 181.9 763.98 c 1
 187.25 742.58 l 1
 157.29 727.6 142.31 706.2 142.31 677.311 c 0
 142.31 662.33 147.66 649.49 158.36 637.72 c 128
 169.06 625.95 180.83 619.53 195.81 618.46 c 1
 276.06 702.99 339.19 745.79 386.27 746.86 c 0
 411.95 746.86 424.79 737.23 424.79 715.83 c 0
 424.79 680.52 396.97 649.49 342.4 623.811 c 0
 296.39 602.41 253.59 589.57 210.79 586.36 c 1
 132.68 486.85 94.1602 380.92 94.1602 267.5 c 0
 94.1602 219.35 103.79 181.9 125.19 154.08 c 1
 148.73 123.05 182.97 105.93 228.98 104.86 c 0
 240.75 104.86 258.94 107 282.48 109.14 c 128
 306.02 111.28 324.21 112.35 335.98 112.35 c 0
 373.43 112.35 406.6 98.4404 433.35 69.5498 c 128
 460.1 40.6602 472.94 6.41992 472.94 -32.0996 c 0
EndSplineSet
EndChar

StartChar: eta
Encoding: 951 951 407
Width: 669
VWidth: 1070
Flags: HMW
LayerCount: 2
Fore
SplineSet
636.65 -223.63 m 1
 510.39 -223.63 l 1
 493.27 -166.92 484.71 -99.5098 484.71 -20.3301 c 2
 484.71 345.61 l 2
 484.71 418.37 472.94 453.68 448.33 452.61 c 0
 405.53 452.61 371.29 434.42 344.54 399.11 c 0
 318.86 367.01 306.02 330.63 306.02 287.83 c 2
 306.02 0 l 1
 178.69 0 l 1
 178.69 357.38 l 2
 178.69 418.37 162.64 449.4 130.54 449.4 c 0
 98.4404 449.4 82.3896 411.95 83.46 335.98 c 0
 83.46 318.86 83.46 318.86 83.46 294.25 c 1
 26.75 294.25 l 1
 26.75 361.66 l 2
 26.75 396.97 37.4502 428 58.8496 454.75 c 0
 81.3203 483.64 109.14 498.62 142.31 498.62 c 0
 182.97 498.62 216.14 491.13 242.89 475.08 c 0
 274.99 455.82 293.18 428 297.46 392.69 c 1
 333.84 463.31 389.48 498.62 463.31 498.62 c 0
 516.81 498.62 555.33 484.71 578.87 457.96 c 0
 601.34 431.21 612.04 391.62 613.11 338.12 c 2
 613.11 -47.0801 l 2
 612.04 -94.1602 619.53 -151.94 636.65 -223.63 c 1
EndSplineSet
EndChar

StartChar: theta
Encoding: 952 952 408
Width: 576
VWidth: 1070
Flags: HMW
LayerCount: 2
Fore
SplineSet
549.98 380.92 m 0
 549.98 281.41 530.72 196.88 494.34 124.12 c 1
 447.26 33.1699 378.78 -12.8398 287.83 -12.8398 c 0
 196.88 -12.8398 128.4 33.1699 82.3896 124.12 c 1
 46.0098 195.81 26.75 280.34 26.75 380.92 c 256
 26.75 481.5 46.0098 567.1 82.3896 639.86 c 0
 128.4 730.811 196.88 777.89 287.83 777.89 c 0
 378.78 777.89 447.26 730.811 494.34 639.86 c 0
 530.72 568.17 549.98 482.57 549.98 380.92 c 0
403.39 410.88 m 1
 402.32 622.74 363.8 728.67 287.83 728.67 c 0
 211.86 728.67 173.34 624.88 173.34 416.23 c 2
 173.34 410.88 l 1
 403.39 410.88 l 1
403.39 354.17 m 1
 173.34 354.17 l 1
 173.34 142.31 211.86 36.3799 287.83 36.3799 c 0
 363.8 36.3799 402.32 142.31 403.39 354.17 c 1
EndSplineSet
EndChar

StartChar: iota
Encoding: 953 953 409
Width: 385
VWidth: 1070
Flags: HMW
LayerCount: 2
Fore
SplineSet
362.73 125.19 m 2
 362.73 92.0195 353.1 62.0596 332.77 36.3799 c 0
 311.37 8.55957 284.62 -5.34961 252.52 -6.41992 c 0
 149.8 -6.41992 98.4404 37.4502 98.4404 125.19 c 2
 98.4404 395.9 l 2
 98.4404 416.23 73.8301 425.86 23.54 425.86 c 1
 23.54 479.36 l 1
 216.14 487.92 l 1
 216.14 128.4 l 2
 217.21 70.6201 233.26 41.7305 264.29 40.6602 c 0
 287.83 40.6602 301.74 59.9199 306.02 101.65 c 0
 307.09 113.42 308.16 143.38 308.16 189.39 c 1
 362.73 189.39 l 1
 362.73 125.19 l 2
EndSplineSet
EndChar

StartChar: kappa
Encoding: 954 954 410
Width: 591
VWidth: 1070
Flags: HMW
LayerCount: 2
Fore
SplineSet
563.89 0 m 1
 403.39 0 l 1
 247.17 232.19 l 1
 214 193.67 l 1
 214 0 l 1
 98.4404 0 l 1
 98.4404 394.83 l 2
 98.4404 415.16 73.8301 424.79 23.54 424.79 c 1
 23.54 479.36 l 1
 219.35 487.92 l 1
 219.35 272.85 l 1
 227.91 281.41 239.68 295.32 255.73 315.65 c 1
 299.6 375.57 328.49 414.09 345.61 431.21 c 0
 384.13 468.66 426.93 487.92 472.94 487.92 c 0
 521.09 487.92 545.7 469.73 546.77 433.35 c 0
 546.77 418.37 541.42 406.6 530.72 398.04 c 128
 520.02 389.48 508.25 384.13 493.27 384.13 c 0
 475.08 384.13 459.03 389.48 445.12 399.11 c 128
 431.21 408.74 418.37 415.16 406.6 415.16 c 0
 377.71 415.16 345.61 386.27 312.44 329.56 c 1
 490.06 65.2695 l 2
 494.34 58.8496 518.95 55.6396 563.89 55.6396 c 1
 563.89 0 l 1
EndSplineSet
EndChar

StartChar: lambda
Encoding: 955 955 411
Width: 606
VWidth: 1070
Flags: HMW
LayerCount: 2
Fore
SplineSet
579.94 175.48 m 2
 579.94 53.5 551.05 -6.41992 493.27 -6.41992 c 0
 459.03 -6.41992 426.93 13.9102 398.04 56.71 c 0
 376.64 87.7402 359.52 125.19 347.75 169.06 c 2
 297.46 344.54 l 1
 147.66 0 l 1
 26.75 0 l 1
 249.31 514.67 l 1
 236.47 562.82 225.77 593.85 220.42 606.69 c 0
 202.23 647.35 180.83 666.61 155.15 666.61 c 0
 116.63 666.61 94.1602 640.93 88.8096 588.5 c 1
 48.1504 588.5 l 1
 48.1504 597.061 l 2
 48.1504 719.04 78.1104 778.96 135.89 778.96 c 0
 170.13 778.96 202.23 758.63 231.12 715.83 c 0
 252.52 684.8 268.57 647.35 280.34 603.48 c 2
 380.92 258.94 l 2
 396.97 205.44 406.6 174.41 409.81 165.85 c 0
 426.93 125.19 447.26 104.86 472.94 104.86 c 0
 511.46 104.86 535 131.61 540.35 184.04 c 1
 579.94 184.04 l 1
 579.94 175.48 l 2
EndSplineSet
EndChar

StartChar: uni03BC
Encoding: 956 956 412
Width: 669
VWidth: 1070
Flags: HMW
LayerCount: 2
Fore
SplineSet
645.21 125.19 m 2
 645.21 92.0195 636.65 62.0596 617.39 36.3799 c 0
 595.99 8.55957 568.17 -5.34961 535 -6.41992 c 0
 461.17 -6.41992 415.16 17.1201 394.83 66.3398 c 1
 359.52 18.1904 312.44 -5.34961 254.66 -6.41992 c 0
 225.77 -6.41992 200.09 -2.13965 178.69 6.41992 c 1
 178.69 -101.65 172.27 -177.62 160.5 -223.63 c 1
 26.75 -223.63 l 1
 42.7998 -154.08 50.29 -97.3701 50.29 -50.29 c 2
 50.29 481.5 l 1
 178.69 481.5 l 1
 178.69 162.64 l 2
 178.69 80.25 206.51 38.5195 262.15 38.5195 c 0
 313.51 38.5195 354.17 60.9902 383.06 107 c 1
 378.78 129.47 376.64 156.22 376.64 187.25 c 2
 376.64 481.5 l 1
 501.83 481.5 l 1
 501.83 128.4 l 2
 501.83 70.6201 516.81 41.7305 546.77 40.6602 c 0
 570.31 40.6602 585.29 59.9199 590.64 101.65 c 0
 592.78 116.63 592.78 145.52 591.71 189.39 c 1
 645.21 189.39 l 1
 645.21 125.19 l 2
EndSplineSet
EndChar

StartChar: nu
Encoding: 957 957 413
Width: 544
VWidth: 1070
Flags: HMW
LayerCount: 2
Fore
SplineSet
517.88 434.42 m 0
 517.88 389.48 498.62 333.84 456.89 264.29 c 2
 311.37 12.8398 l 2
 301.74 -5.34961 285.69 -12.8398 264.29 -12.8398 c 0
 243.96 -12.8398 231.12 -5.34961 225.77 12.8398 c 2
 112.35 369.15 l 2
 103.79 394.83 93.0898 413.02 83.46 421.58 c 128
 73.8301 430.14 54.5703 434.42 26.75 433.35 c 1
 26.75 468.66 l 1
 80.25 469.73 121.98 479.36 151.94 499.69 c 1
 202.23 499.69 l 1
 323.14 119.84 l 1
 399.11 257.87 l 2
 411.95 282.48 419.44 302.81 419.44 321 c 0
 419.44 335.98 415.16 356.31 406.6 381.99 c 128
 398.04 407.67 392.69 428 392.69 442.98 c 0
 392.69 461.17 399.11 475.08 411.95 485.78 c 128
 424.79 496.48 439.77 501.83 457.96 501.83 c 0
 474.01 501.83 487.92 494.34 499.69 479.36 c 128
 511.46 464.38 517.88 450.47 517.88 434.42 c 0
EndSplineSet
EndChar

StartChar: xi
Encoding: 958 958 414
Width: 499
VWidth: 1070
Flags: HMW
LayerCount: 2
Fore
SplineSet
472.94 -32.0996 m 0
 472.94 -86.6699 455.82 -130.54 421.58 -164.78 c 128
 387.34 -199.02 342.4 -216.14 287.83 -216.14 c 0
 265.36 -216.14 245.03 -211.86 226.84 -204.37 c 0
 204.37 -194.74 194.74 -178.69 195.81 -157.29 c 0
 195.81 -141.24 202.23 -128.4 214 -119.84 c 0
 224.7 -111.28 238.61 -108.07 254.66 -109.14 c 0
 264.29 -109.14 278.2 -111.28 297.46 -115.56 c 128
 316.72 -119.84 330.63 -121.98 339.19 -121.98 c 0
 357.38 -121.98 372.36 -115.56 384.13 -103.79 c 128
 395.9 -92.0195 401.25 -77.04 401.25 -59.9199 c 0
 401.25 -43.8701 395.9 -32.0996 385.2 -21.4004 c 128
 374.5 -10.7002 361.66 -5.34961 344.54 -5.34961 c 0
 333.84 -5.34961 317.79 -6.41992 296.39 -9.62988 c 128
 274.99 -12.8398 257.87 -12.8398 247.17 -12.8398 c 0
 177.62 -12.8398 124.12 5.34961 85.5996 41.7305 c 128
 47.0801 78.1104 26.75 131.61 26.75 201.16 c 0
 26.75 283.55 63.1299 352.03 135.89 406.6 c 1
 111.28 425.86 98.4404 450.47 98.4404 481.5 c 0
 98.4404 516.81 113.42 552.12 143.38 586.36 c 1
 118.77 589.57 99.5098 599.2 83.46 612.04 c 0
 65.2695 628.09 56.71 647.35 56.71 670.89 c 0
 56.71 719.04 90.9502 749 157.29 763.98 c 1
 162.64 742.58 l 1
 132.68 727.6 116.63 706.2 116.63 677.311 c 0
 116.63 662.33 121.98 649.49 132.68 637.72 c 128
 143.38 625.95 155.15 619.53 170.13 618.46 c 1
 250.38 702.99 314.58 745.79 361.66 746.86 c 0
 387.34 746.86 399.11 737.23 399.11 715.83 c 0
 399.11 680.52 371.29 649.49 315.65 623.811 c 0
 269.64 602.41 226.84 589.57 185.11 586.36 c 1
 157.29 555.33 143.38 526.44 143.38 498.62 c 0
 143.38 475.08 154.08 455.82 175.48 440.84 c 1
 223.63 464.38 279.27 476.15 342.4 476.15 c 0
 357.38 476.15 371.29 474.01 384.13 468.66 c 0
 401.25 461.17 409.81 449.4 409.81 437.63 c 0
 409.81 417.3 392.69 400.18 359.52 387.34 c 0
 332.77 376.64 308.16 371.29 284.62 371.29 c 0
 252.52 371.29 217.21 374.5 180.83 379.85 c 1
 143.38 354.17 116.63 331.7 103.79 312.44 c 0
 82.3896 285.69 72.7598 253.59 73.8301 217.21 c 0
 73.8301 184.04 92.0195 156.22 128.4 133.75 c 0
 159.43 114.49 193.67 104.86 228.98 104.86 c 0
 240.75 104.86 258.94 107 282.48 109.14 c 128
 306.02 111.28 324.21 112.35 335.98 112.35 c 0
 373.43 112.35 406.6 98.4404 433.35 69.5498 c 128
 460.1 40.6602 472.94 6.41992 472.94 -32.0996 c 0
EndSplineSet
EndChar

StartChar: omicron
Encoding: 959 959 415
Width: 549
VWidth: 1070
Flags: HMW
LayerCount: 2
Fore
SplineSet
523.23 237.54 m 0
 523.23 162.64 500.76 101.65 455.82 55.6396 c 128
 410.88 9.62988 350.96 -12.8398 276.06 -12.8398 c 0
 200.09 -12.8398 139.1 9.62988 94.1602 55.6396 c 128
 49.2197 101.65 26.75 162.64 26.75 237.54 c 0
 26.75 314.58 49.2197 376.64 94.1602 425.86 c 1
 140.17 476.15 200.09 501.83 276.06 501.83 c 0
 352.03 501.83 411.95 476.15 457.96 425.86 c 0
 501.83 376.64 523.23 314.58 523.23 237.54 c 0
398.04 214 m 0
 398.04 274.99 389.48 326.35 372.36 368.08 c 0
 348.82 426.93 311.37 456.89 258.94 456.89 c 0
 188.32 456.89 154.08 399.11 154.08 284.62 c 0
 154.08 224.7 162.64 172.27 180.83 127.33 c 1
 205.44 67.4102 242.89 36.3799 294.25 36.3799 c 0
 363.8 36.3799 398.04 96.2998 398.04 214 c 0
EndSplineSet
EndChar

StartChar: pi
Encoding: 960 960 416
Width: 643
VWidth: 1070
Flags: HMW
LayerCount: 2
Fore
SplineSet
617.39 398.04 m 1
 479.36 398.04 l 1
 479.36 341.33 l 2
 479.36 221.49 497.55 130.54 532.86 70.6201 c 0
 541.42 54.5703 546.77 42.7998 546.77 36.3799 c 0
 546.77 20.3301 540.35 8.55957 528.58 0 c 0
 517.88 -8.55957 503.97 -12.8398 486.85 -12.8398 c 0
 455.82 -12.8398 431.21 20.3301 413.02 89.8799 c 0
 400.18 141.24 392.69 188.32 392.69 232.19 c 2
 392.69 398.04 l 1
 309.23 398.04 l 1
 269.64 70.6201 l 2
 263.22 14.9805 239.68 -12.8398 202.23 -12.8398 c 0
 164.78 -12.8398 145.52 3.20996 145.52 35.3096 c 0
 145.52 39.5898 147.66 48.1504 151.94 59.9199 c 0
 184.04 154.08 211.86 266.43 234.33 398.04 c 1
 142.31 398.04 l 2
 124.12 398.04 105.93 390.55 85.5996 376.64 c 128
 65.2695 362.73 53.5 356.31 51.3604 356.31 c 0
 35.3096 356.31 28.8896 363.8 28.8896 379.85 c 0
 28.8896 398.04 39.5898 418.37 63.1299 442.98 c 0
 88.8096 468.66 121.98 481.5 162.64 481.5 c 2
 617.39 481.5 l 1
 617.39 398.04 l 1
EndSplineSet
EndChar

StartChar: rho
Encoding: 961 961 417
Width: 559
VWidth: 1070
Flags: HMW
LayerCount: 2
Fore
SplineSet
532.86 237.54 m 0
 532.86 162.64 510.39 101.65 465.45 55.6396 c 128
 420.51 9.62988 360.59 -12.8398 285.69 -12.8398 c 0
 233.26 -12.8398 193.67 5.34961 166.92 41.7305 c 1
 166.92 -81.3203 159.43 -169.06 143.38 -223.63 c 1
 26.75 -223.63 l 1
 42.7998 -154.08 50.29 -97.3701 50.29 -50.29 c 2
 50.29 246.1 l 2
 50.29 322.07 70.6201 381.99 112.35 428 c 0
 155.15 476.15 211.86 500.76 285.69 501.83 c 0
 361.66 501.83 422.65 476.15 468.66 424.79 c 0
 512.53 375.57 532.86 313.51 532.86 237.54 c 0
407.67 214 m 0
 407.67 272.85 399.11 324.21 380.92 368.08 c 0
 356.31 426.93 319.93 456.89 269.64 456.89 c 0
 235.4 456.89 208.65 440.84 190.46 410.88 c 0
 174.41 386.27 166.92 355.24 166.92 318.86 c 2
 166.92 154.08 l 2
 166.92 123.05 182.97 95.2305 214 70.6201 c 0
 242.89 47.0801 272.85 35.3096 303.88 36.3799 c 0
 373.43 36.3799 407.67 96.2998 407.67 214 c 0
EndSplineSet
EndChar

StartChar: sigma1
Encoding: 962 962 418
Width: 492
VWidth: 1070
Flags: HMW
LayerCount: 2
Fore
SplineSet
461.17 -32.0996 m 0
 461.17 -86.6699 444.05 -130.54 409.81 -164.78 c 128
 375.57 -199.02 330.63 -216.14 276.06 -216.14 c 0
 252.52 -216.14 233.26 -211.86 216.14 -204.37 c 0
 194.74 -194.74 184.04 -178.69 184.04 -157.29 c 0
 184.04 -142.31 190.46 -130.54 202.23 -121.98 c 128
 214 -113.42 227.91 -109.14 242.89 -109.14 c 0
 252.52 -109.14 266.43 -111.28 285.69 -115.56 c 128
 304.95 -119.84 319.93 -121.98 329.56 -121.98 c 0
 347.75 -121.98 361.66 -115.56 372.36 -103.79 c 128
 383.06 -92.0195 389.48 -77.04 389.48 -59.9199 c 0
 389.48 -43.8701 384.13 -32.0996 373.43 -21.4004 c 128
 362.73 -10.7002 349.89 -5.34961 333.84 -5.34961 c 0
 325.28 -5.34961 311.37 -6.41992 292.11 -9.62988 c 128
 272.85 -12.8398 256.8 -12.8398 247.17 -12.8398 c 0
 177.62 -12.8398 124.12 5.34961 86.6699 41.7305 c 0
 46.0098 78.1104 26.75 131.61 26.75 201.16 c 0
 26.75 278.2 51.3604 346.68 101.65 406.6 c 0
 154.08 469.73 218.28 501.83 294.25 501.83 c 0
 337.05 501.83 373.43 494.34 403.39 481.5 c 0
 444.05 463.31 462.24 435.49 461.17 398.04 c 0
 461.17 377.71 453.68 361.66 440.84 348.82 c 128
 428 335.98 411.95 329.56 392.69 329.56 c 0
 372.36 329.56 356.31 337.05 342.4 349.89 c 128
 328.49 362.73 321 378.78 321 398.04 c 0
 321 419.44 327.42 436.56 342.4 448.33 c 1
 327.42 451.54 312.44 452.61 294.25 452.61 c 0
 238.61 451.54 191.53 430.14 154.08 387.34 c 0
 117.7 345.61 98.4404 298.53 98.4404 242.89 c 0
 98.4404 201.16 110.21 167.99 132.68 143.38 c 128
 155.15 118.77 187.25 104.86 228.98 104.86 c 0
 238.61 104.86 255.73 107 277.13 109.14 c 128
 298.53 111.28 314.58 112.35 324.21 112.35 c 0
 361.66 112.35 394.83 97.3701 421.58 68.4805 c 128
 448.33 39.5898 461.17 5.34961 461.17 -32.0996 c 0
EndSplineSet
EndChar

StartChar: sigma
Encoding: 963 963 419
Width: 598
VWidth: 1070
Flags: HMW
LayerCount: 2
Fore
SplineSet
573.52 398.04 m 1
 449.4 398.04 l 1
 484.71 352.03 503.97 295.32 505.04 228.98 c 0
 505.04 156.22 483.64 98.4404 439.77 53.5 c 128
 395.9 8.55957 338.12 -12.8398 265.36 -12.8398 c 0
 192.6 -12.8398 135.89 8.55957 92.0195 53.5 c 128
 48.1504 98.4404 26.75 156.22 26.75 228.98 c 0
 26.75 303.88 47.0801 363.8 89.8799 409.81 c 1
 133.75 457.96 191.53 481.5 265.36 481.5 c 2
 573.52 481.5 l 1
 573.52 398.04 l 1
383.06 204.37 m 0
 383.06 291.04 365.94 355.24 332.77 398.04 c 1
 223.63 398.04 l 2
 172.27 398.04 147.66 356.31 147.66 272.85 c 0
 147.66 215.07 155.15 164.78 172.27 121.98 c 0
 195.81 64.2002 232.19 35.3096 282.48 35.3096 c 0
 348.82 34.2402 383.06 90.9502 383.06 204.37 c 0
EndSplineSet
EndChar

StartChar: tau
Encoding: 964 964 420
Width: 535
VWidth: 1070
Flags: HMW
LayerCount: 2
Fore
SplineSet
508.25 398.04 m 1
 349.89 398.04 l 1
 349.89 124.12 l 2
 349.89 65.2695 364.87 35.3096 394.83 35.3096 c 0
 418.37 35.3096 432.28 55.6396 437.63 97.3701 c 0
 439.77 112.35 440.84 140.17 439.77 184.04 c 1
 494.34 184.04 l 1
 494.34 119.84 l 2
 494.34 85.5996 485.78 55.6396 466.52 29.96 c 1
 445.12 1.07031 417.3 -12.8398 384.13 -12.8398 c 0
 276.06 -12.8398 222.56 31.0303 222.56 119.84 c 2
 222.56 398.04 l 1
 142.31 398.04 l 2
 124.12 398.04 105.93 390.55 85.5996 376.64 c 128
 65.2695 362.73 53.5 356.31 51.3604 356.31 c 0
 35.3096 356.31 28.8896 363.8 28.8896 379.85 c 0
 28.8896 398.04 39.5898 418.37 63.1299 442.98 c 0
 88.8096 468.66 121.98 481.5 162.64 481.5 c 2
 508.25 481.5 l 1
 508.25 398.04 l 1
EndSplineSet
EndChar

StartChar: upsilon
Encoding: 965 965 421
Width: 654
VWidth: 1070
Flags: HMW
LayerCount: 2
Fore
SplineSet
630.23 254.66 m 0
 630.23 178.69 608.83 115.56 564.96 66.3398 c 0
 518.95 12.8398 460.1 -12.8398 386.27 -12.8398 c 0
 321 -12.8398 269.64 4.28027 233.26 39.5898 c 128
 196.88 74.9004 178.69 125.19 178.69 190.46 c 2
 178.69 356.31 l 2
 178.69 417.3 162.64 448.33 130.54 448.33 c 0
 98.4404 448.33 82.3896 410.88 83.46 335.98 c 0
 83.46 327.42 83.46 327.42 83.46 294.25 c 1
 26.75 294.25 l 1
 26.75 359.52 l 2
 26.75 394.83 37.4502 425.86 58.8496 452.61 c 0
 81.3203 482.57 109.14 498.62 142.31 498.62 c 0
 243.96 498.62 295.32 454.75 296.39 368.08 c 2
 296.39 201.16 l 2
 295.32 92.0195 330.63 36.3799 404.46 36.3799 c 0
 457.96 36.3799 498.62 62.0596 526.44 113.42 c 0
 548.91 154.08 559.61 203.3 558.54 261.08 c 0
 558.54 363.8 517.88 428 436.56 454.75 c 1
 442.98 491.13 l 1
 500.76 484.71 547.84 457.96 582.08 410.88 c 0
 614.18 365.94 630.23 314.58 630.23 254.66 c 0
EndSplineSet
EndChar

StartChar: phi
Encoding: 966 966 422
Width: 711
VWidth: 1070
Flags: HMW
LayerCount: 2
Fore
SplineSet
689.08 238.61 m 0
 689.08 159.43 655.91 98.4404 591.71 53.5 c 0
 536.07 14.9805 466.52 -7.49023 384.13 -11.7695 c 1
 383.06 -220.42 l 1
 329.56 -220.42 l 1
 329.56 -11.7695 l 1
 246.1 -8.55957 175.48 12.8398 119.84 53.5 c 0
 55.6396 99.5098 23.54 160.5 23.54 238.61 c 0
 23.54 319.93 55.6396 384.13 119.84 431.21 c 0
 175.48 474.01 246.1 496.48 329.56 499.69 c 1
 329.56 717.39 l 1
 383.06 717.39 l 1
 384.13 499.69 l 1
 467.59 496.48 538.21 474.01 593.85 431.21 c 0
 656.98 384.13 689.08 319.93 689.08 238.61 c 0
544.63 254.66 m 0
 544.63 311.37 531.79 357.38 505.04 392.69 c 0
 476.15 429.07 435.49 451.54 384.13 456.89 c 1
 384.13 36.3799 l 1
 436.56 42.7998 477.22 67.4102 505.04 110.21 c 0
 531.79 148.73 544.63 197.95 544.63 254.66 c 0
329.56 36.3799 m 1
 329.56 456.89 l 1
 277.13 451.54 236.47 429.07 207.58 392.69 c 0
 180.83 357.38 166.92 311.37 166.92 254.66 c 0
 166.92 197.95 180.83 148.73 207.58 110.21 c 0
 236.47 67.4102 277.13 42.7998 329.56 36.3799 c 1
EndSplineSet
EndChar

StartChar: chi
Encoding: 967 967 423
Width: 576
VWidth: 1070
Flags: HMW
LayerCount: 2
Fore
SplineSet
549.98 -47.0801 m 2
 549.98 -170.13 521.09 -231.12 463.31 -231.12 c 0
 428 -231.12 394.83 -209.72 365.94 -165.85 c 0
 342.4 -132.68 326.35 -95.2305 317.79 -53.5 c 2
 296.39 40.6602 l 1
 151.94 -228.98 l 1
 26.75 -228.98 l 1
 258.94 204.37 l 1
 247.17 258.94 236.47 295.32 228.98 315.65 c 0
 209.72 364.87 186.18 389.48 158.36 389.48 c 0
 119.84 389.48 97.3701 362.73 92.0195 309.23 c 1
 51.3604 309.23 l 1
 51.3604 318.86 l 2
 51.3604 440.84 81.3203 501.83 139.1 501.83 c 0
 174.41 501.83 206.51 480.43 235.4 437.63 c 0
 258.94 404.46 276.06 367.01 284.62 324.21 c 2
 296.39 273.92 l 1
 410.88 491.13 l 1
 537.14 491.13 l 1
 332.77 110.21 l 1
 349.89 35.3096 l 2
 373.43 -67.4102 404.46 -118.77 442.98 -118.77 c 0
 483.64 -118.77 506.11 -92.0195 510.39 -38.5195 c 1
 549.98 -38.5195 l 1
 549.98 -47.0801 l 2
EndSplineSet
EndChar

StartChar: psi
Encoding: 968 968 424
Width: 691
VWidth: 1070
Flags: HMW
LayerCount: 2
Fore
SplineSet
665.54 314.58 m 0
 665.54 231.12 650.561 159.43 621.67 101.65 c 0
 584.22 25.6797 527.51 -11.7695 451.54 -11.7695 c 1
 451.54 -220.42 l 1
 394.83 -220.42 l 1
 394.83 -11.7695 l 1
 251.45 -11.7695 178.69 56.71 178.69 192.6 c 2
 178.69 356.31 l 2
 178.69 417.3 162.64 448.33 130.54 448.33 c 0
 98.4404 448.33 82.3896 410.88 83.46 335.98 c 0
 83.46 327.42 83.46 327.42 83.46 294.25 c 1
 26.75 294.25 l 1
 26.75 359.52 l 2
 26.75 394.83 37.4502 425.86 58.8496 452.61 c 0
 81.3203 482.57 109.14 498.62 142.31 498.62 c 0
 243.96 498.62 295.32 454.75 296.39 368.08 c 2
 296.39 231.12 l 2
 296.39 173.34 299.6 131.61 306.02 107 c 0
 318.86 62.0596 348.82 38.5195 394.83 36.3799 c 1
 394.83 498.62 l 1
 451.54 498.62 l 1
 451.54 36.3799 l 1
 492.2 40.6602 525.37 66.3398 552.12 112.35 c 0
 575.66 153.01 586.36 193.67 586.36 237.54 c 0
 586.36 265.36 583.15 292.11 575.66 318.86 c 1
 570.31 337.05 563.89 355.24 558.54 374.5 c 1
 553.19 394.83 549.98 413.02 549.98 431.21 c 0
 549.98 476.15 567.1 498.62 601.34 498.62 c 0
 644.14 497.55 665.54 436.56 665.54 314.58 c 0
EndSplineSet
EndChar

StartChar: omega
Encoding: 969 969 425
Width: 731
VWidth: 1070
Flags: HMW
LayerCount: 2
Fore
SplineSet
705.13 225.77 m 0
 705.13 162.64 689.08 108.07 656.98 63.1299 c 1
 621.67 11.7695 572.45 -12.8398 511.46 -12.8398 c 0
 441.91 -12.8398 393.76 9.62988 365.94 56.71 c 1
 338.12 9.62988 289.97 -12.8398 220.42 -12.8398 c 0
 159.43 -12.8398 110.21 11.7695 74.9004 63.1299 c 0
 42.7998 109.14 26.75 163.71 26.75 225.77 c 0
 26.75 315.65 54.5703 385.2 109.14 433.35 c 0
 159.43 478.29 231.12 500.76 323.14 501.83 c 1
 312.44 456.89 l 1
 253.59 455.82 214 426.93 192.6 372.36 c 0
 180.83 339.19 173.34 287.83 173.34 216.14 c 0
 173.34 97.3701 194.74 36.3799 237.54 36.3799 c 0
 260.01 36.3799 281.41 48.1504 302.81 70.6201 c 0
 321 88.8096 334.91 109.14 344.54 133.75 c 1
 322.07 179.76 311.37 226.84 311.37 276.06 c 0
 311.37 359.52 329.56 401.25 365.94 401.25 c 0
 402.32 401.25 421.58 359.52 421.58 276.06 c 0
 421.58 226.84 410.88 179.76 389.48 133.75 c 1
 399.11 109.14 413.02 88.8096 431.21 70.6201 c 0
 452.61 48.1504 472.94 36.3799 494.34 36.3799 c 0
 541.42 36.3799 564.96 92.0195 564.96 201.16 c 0
 564.96 276.06 557.47 330.63 544.63 365.94 c 0
 523.23 423.72 482.57 454.75 421.58 456.89 c 1
 410.88 501.83 l 1
 502.9 500.76 574.59 478.29 624.88 433.35 c 0
 678.38 385.2 705.13 315.65 705.13 225.77 c 0
EndSplineSet
EndChar

StartChar: theta1
Encoding: 977 977 426
Width: 752
VWidth: 1070
Flags: HMW
LayerCount: 2
Fore
SplineSet
725.46 371.29 m 0
 725.46 358.45 721.18 352.03 712.62 353.1 c 0
 702.99 353.1 689.08 355.24 670.89 359.52 c 1
 668.75 265.36 647.35 185.11 609.9 115.56 c 0
 562.82 29.96 497.55 -12.8398 413.02 -12.8398 c 0
 256.8 -12.8398 178.69 54.5703 178.69 190.46 c 2
 178.69 252.52 l 2
 178.69 313.51 162.64 344.54 130.54 344.54 c 0
 97.3701 344.54 81.3203 314.58 83.46 255.73 c 1
 26.75 255.73 l 1
 26.75 269.64 l 2
 26.75 298.53 36.3799 325.28 56.71 350.96 c 0
 79.1797 378.78 108.07 392.69 142.31 392.69 c 0
 243.96 392.69 295.32 339.19 296.39 231.12 c 2
 296.39 201.16 l 2
 296.39 149.8 302.81 111.28 314.58 86.6699 c 1
 332.77 52.4297 363.8 35.3096 409.81 36.3799 c 0
 485.78 36.3799 524.3 141.24 525.37 350.96 c 2
 525.37 387.34 l 1
 349.89 433.35 262.15 514.67 262.15 629.16 c 0
 262.15 673.03 276.06 708.34 303.88 736.16 c 128
 331.7 763.98 367.01 777.89 410.88 777.89 c 0
 497.55 777.89 563.89 734.02 609.9 648.42 c 0
 645.21 582.08 666.61 500.76 670.89 403.39 c 1
 707.27 402.32 725.46 391.62 725.46 371.29 c 0
525.37 433.35 m 1
 525.37 501.83 517.88 558.54 506.11 606.69 c 0
 486.85 686.94 457.96 727.6 415.16 728.67 c 0
 387.34 728.67 363.8 717.97 345.61 695.5 c 0
 328.49 675.17 321 650.561 321 621.67 c 0
 321 536.07 389.48 474.01 525.37 433.35 c 1
EndSplineSet
EndChar

StartChar: phi1
Encoding: 981 981 427
Width: 625
VWidth: 1070
Flags: HMW
LayerCount: 2
Fore
SplineSet
600.27 237.54 m 0
 600.27 160.5 575.66 99.5098 526.44 53.5 c 0
 479.36 9.62988 417.3 -11.7695 338.12 -11.7695 c 1
 338.12 -220.42 l 1
 279.27 -220.42 l 1
 279.27 -11.7695 l 1
 202.23 -11.7695 141.24 10.7002 95.2305 56.71 c 128
 49.2197 102.72 26.75 162.64 26.75 238.61 c 0
 26.75 316.72 49.2197 380.92 95.2305 429.07 c 128
 141.24 477.22 202.23 501.83 279.27 501.83 c 1
 263.22 490.06 252.52 472.94 247.17 452.61 c 1
 199.02 437.63 175.48 373.43 175.48 257.87 c 0
 175.48 193.67 179.76 146.59 187.25 118.77 c 0
 202.23 63.1299 232.19 35.3096 279.27 36.3799 c 1
 279.27 314.58 l 2
 279.27 369.15 282.48 408.74 288.9 433.35 c 0
 301.74 478.29 330.63 499.69 374.5 499.69 c 0
 440.84 499.69 496.48 472.94 540.35 418.37 c 1
 581.01 367.01 600.27 307.09 600.27 237.54 c 0
451.54 243.96 m 0
 451.54 383.06 424.79 452.61 371.29 452.61 c 0
 348.82 452.61 338.12 429.07 338.12 380.92 c 2
 338.12 36.3799 l 1
 389.48 36.3799 421.58 60.9902 437.63 109.14 c 0
 446.19 134.82 451.54 179.76 451.54 243.96 c 0
EndSplineSet
EndChar

StartChar: omega1
Encoding: 982 982 428
Width: 902
VWidth: 1070
Flags: HMW
LayerCount: 2
Fore
SplineSet
874.19 399.11 m 1
 749 399.11 l 1
 787.52 354.17 807.85 295.32 807.85 220.42 c 0
 807.85 160.5 791.8 109.14 760.77 66.3398 c 0
 726.53 18.1904 679.45 -5.34961 621.67 -6.41992 c 0
 556.4 -6.41992 510.39 14.9805 484.71 59.9199 c 1
 457.96 16.0498 410.88 -5.34961 345.61 -6.41992 c 0
 287.83 -6.41992 241.82 17.1201 207.58 66.3398 c 0
 176.55 109.14 161.57 160.5 162.64 220.42 c 0
 162.64 295.32 181.9 354.17 219.35 398.04 c 1
 142.31 398.04 l 2
 124.12 398.04 105.93 390.55 85.5996 376.64 c 128
 65.2695 362.73 53.5 356.31 51.3604 356.31 c 0
 35.3096 356.31 28.8896 363.8 28.8896 379.85 c 0
 28.8896 398.04 39.5898 418.37 63.1299 442.98 c 0
 88.8096 468.66 121.98 481.5 162.64 481.5 c 2
 874.19 481.5 l 1
 874.19 399.11 l 1
671.96 204.37 m 0
 671.96 300.67 658.05 364.87 629.16 398.04 c 1
 339.19 398.04 l 1
 310.3 363.8 296.39 299.6 296.39 204.37 c 0
 296.39 96.2998 317.79 41.7305 361.66 40.6602 c 0
 383.06 40.6602 402.32 50.29 422.65 71.6904 c 0
 439.77 88.8096 453.68 109.14 463.31 133.75 c 1
 441.91 176.55 431.21 217.21 431.21 254.66 c 0
 431.21 325.28 449.4 360.59 484.71 361.66 c 256
 520.02 361.66 538.21 326.35 538.21 254.66 c 0
 538.21 217.21 527.51 176.55 506.11 133.75 c 1
 515.74 110.21 528.58 89.8799 544.63 71.6904 c 0
 564.96 50.29 585.29 40.6602 606.69 40.6602 c 0
 650.561 41.7305 671.96 96.2998 671.96 204.37 c 0
EndSplineSet
EndChar

StartChar: afii10051
Encoding: 1026 1026 431
Width: 920
Flags: MW
LayerCount: 2
Fore
SplineSet
451 629 m 2
 451 412 l 1
 563 412 l 2
 772 412 878 341 878 201 c 0
 878 126 841 65 777 35 c 0
 723 10 664 0 564 0 c 2
 159 0 l 1
 159 54 l 1
 181 54 l 2
 234 54 255 58 264 69 c 0
 271 77 271 81 271 144 c 2
 271 629 l 2
 271 663 265 670 235 670 c 0
 189 670 151 647 119 599 c 0
 95 564 81 525 68 451 c 1
 15 451 l 1
 30 722 l 1
 692 722 l 1
 707 451 l 1
 654 451 l 1
 639 532 623 574 595 611 c 0
 563 652 530 670 487 670 c 0
 457 670 451 663 451 629 c 2
451 357 m 1
 451 115 l 2
 451 66 461 55 506 55 c 2
 546 55 l 2
 641 55 685 100 685 200 c 0
 685 315 638 357 509 357 c 2
 451 357 l 1
EndSplineSet
EndChar

StartChar: afii10053
Encoding: 1028 1028 433
Width: 778
Flags: MW
LayerCount: 2
Fore
SplineSet
239 399 m 1
 500 399 l 1
 500 339 l 1
 239 339 l 1
 245 140 310 47 439 47 c 0
 554 47 634 126 661 265 c 1
 723 250 l 1
 685 71 583 -15 406 -15 c 0
 289 -15 204 19 135 95 c 0
 71 166 40 248 40 352 c 0
 40 576 198 737 418 737 c 0
 489 737 535 724 601 684 c 1
 655 733 l 1
 698 733 l 1
 708 447 l 1
 655 441 l 1
 610 608 537 685 426 685 c 0
 309 685 245 587 239 399 c 1
EndSplineSet
EndChar

StartChar: afii10058
Encoding: 1033 1033 438
Width: 1235
Flags: MW
LayerCount: 2
Fore
SplineSet
766 578 m 2
 766 412 l 1
 878 412 l 2
 1087 412 1193 341 1193 201 c 0
 1193 126 1156 65 1092 35 c 0
 1038 10 979 0 879 0 c 2
 482 0 l 1
 482 54 l 1
 497 54 l 2
 549 54 565 58 574 69 c 0
 581 77 586 81 586 144 c 2
 586 662 l 1
 470 662 l 2
 433 662 413 638 411 578 c 1
 411 374 l 1
 409 82 303 -16 159 -16 c 0
 61 -16 5 56 4 138 c 1
 5 209 47 240 102 240 c 2
 105 240 l 1
 174 239 203 199 203 160 c 0
 203 78 149 120 135 92 c 0
 133 89 133 85 133 82 c 0
 133 65 156 54 183 54 c 0
 269 54 299 224 299 370 c 2
 299 577 l 2
 299 642 290 645 283 653 c 0
 274 664 253 668 201 668 c 2
 186 668 l 1
 186 722 l 1
 871 722 l 1
 871 668 l 1
 856 668 l 2
 804 668 782 664 773 653 c 0
 766 645 766 641 766 578 c 2
766 357 m 1
 766 115 l 2
 766 66 776 55 821 55 c 2
 861 55 l 2
 956 55 1000 100 1000 200 c 0
 1000 315 953 357 824 357 c 2
 766 357 l 1
EndSplineSet
EndChar

StartChar: afii10059
Encoding: 1034 1034 439
Width: 1214
Flags: MW
LayerCount: 2
Fore
SplineSet
745 578 m 2
 745 412 l 1
 857 412 l 2
 1066 412 1172 341 1172 201 c 0
 1172 126 1135 65 1071 35 c 0
 1017 10 958 0 858 0 c 2
 461 0 l 1
 461 54 l 1
 476 54 l 2
 528 54 549 58 558 69 c 0
 565 77 565 81 565 144 c 2
 565 339 l 1
 304 339 l 1
 304 144 l 2
 304 80 304 77 311 69 c 0
 320 58 342 54 394 54 c 2
 409 54 l 1
 409 0 l 1
 20 0 l 1
 20 54 l 1
 35 54 l 2
 87 54 108 58 117 69 c 0
 124 77 124 81 124 144 c 2
 124 577 l 2
 124 641 124 645 117 653 c 0
 108 664 87 668 35 668 c 2
 20 668 l 1
 20 722 l 1
 409 722 l 1
 409 668 l 1
 394 668 l 2
 342 668 320 664 311 653 c 0
 304 645 304 641 304 577 c 2
 304 399 l 1
 565 399 l 1
 565 577 l 2
 565 640 565 645 558 653 c 0
 549 664 528 668 476 668 c 2
 461 668 l 1
 461 722 l 1
 850 722 l 1
 850 668 l 1
 835 668 l 2
 783 668 761 664 752 653 c 0
 745 645 745 641 745 578 c 2
745 357 m 1
 745 115 l 2
 745 66 755 55 800 55 c 2
 840 55 l 2
 935 55 979 100 979 200 c 0
 979 315 932 357 803 357 c 2
 745 357 l 1
EndSplineSet
EndChar

StartChar: afii10060
Encoding: 1035 1035 440
Width: 722
Flags: MW
LayerCount: 2
Fore
SplineSet
451 144 m 2
 451 81 451 77 458 69 c 0
 467 58 488 54 541 54 c 2
 563 54 l 1
 563 0 l 1
 159 0 l 1
 159 54 l 1
 181 54 l 2
 234 54 255 58 264 69 c 0
 271 77 271 81 271 144 c 2
 271 629 l 2
 271 663 265 670 235 670 c 0
 189 670 151 647 119 599 c 0
 95 564 81 525 68 451 c 1
 15 451 l 1
 30 722 l 1
 692 722 l 1
 707 451 l 1
 654 451 l 1
 639 532 623 574 595 611 c 0
 563 652 530 670 487 670 c 0
 457 670 451 663 451 629 c 2
 451 324 l 1
 498 382 579 416 655 416 c 0
 707 416 751 399 778 368 c 1
 805 339 816 301 816 239 c 2
 816 144 l 1
 816 98 l 2
 816 57 827 51 891 51 c 2
 895 51 l 1
 895 0 l 1
 590 0 l 1
 590 51 l 1
 649 51 659 58 659 97 c 2
 659 144 l 1
 659 225 l 2
 659 289 634 323 588 323 c 0
 551 323 488 298 466 264 c 0
 452 242 451 214 451 169 c 2
 451 144 l 2
EndSplineSet
EndChar

StartChar: afii10145
Encoding: 1039 1039 444
Width: 870
Flags: MW
LayerCount: 2
Fore
SplineSet
305 60 m 1
 566 60 l 1
 566 578 l 2
 566 642 566 645 559 653 c 0
 550 664 528 668 476 668 c 2
 461 668 l 1
 461 722 l 1
 850 722 l 1
 850 668 l 1
 835 668 l 2
 783 668 762 664 753 653 c 0
 746 645 746 641 746 578 c 2
 746 145 l 2
 746 81 746 77 753 69 c 0
 762 58 783 54 835 54 c 2
 850 54 l 1
 850 0 l 1
 20 0 l 1
 20 54 l 1
 35 54 l 2
 87 54 109 58 118 69 c 0
 123 75 124 79 124 111 c 2
 124 145 l 1
 124 578 l 1
 124 612 l 2
 124 644 123 647 118 653 c 0
 109 664 87 668 35 668 c 2
 20 668 l 1
 20 722 l 1
 409 722 l 1
 409 668 l 1
 394 668 l 2
 342 668 321 664 312 653 c 0
 305 645 305 641 305 578 c 2
 305 60 l 1
EndSplineSet
EndChar

StartChar: afii10018
Encoding: 1041 1041 446
Width: 778
Flags: MW
LayerCount: 2
Fore
SplineSet
301 598 m 2
 301 398 l 1
 301 398 342 408 369 408 c 0
 593 408 736 358 736 189 c 0
 736 113 694 59 630 30 c 1
 579 8 526 0 422 0 c 2
 17 0 l 1
 17 54 l 1
 32 54 l 2
 84 54 105 58 114 69 c 0
 121 77 121 81 121 144 c 2
 121 578 l 2
 121 642 121 645 114 654 c 0
 105 664 84 668 32 668 c 2
 17 668 l 1
 17 722 l 1
 689 722 l 1
 701 453 l 1
 648 453 l 1
 628 522 610 560 583 593 c 0
 542 642 485 668 414 668 c 2
 393 668 l 2
 344 668 331 666 319 654 c 0
 306 642 301 631 301 598 c 2
301 343 m 1
 301 118 l 2
 301 85 301 82 304 74 c 0
 310 60 327 54 362 54 c 2
 392 54 l 2
 440 54 473 63 498 84 c 0
 527 108 545 152 545 200 c 0
 545 252 524 296 490 319 c 1
 463 336 430 353 375 353 c 2
 370 353 l 2
 342 353 301 343 301 343 c 1
EndSplineSet
EndChar

StartChar: afii10020
Encoding: 1043 1043 448
Width: 736
Flags: MW
LayerCount: 2
Fore
SplineSet
651 453 m 1
 631 522 613 560 586 593 c 0
 545 642 488 668 417 668 c 2
 396 668 l 2
 347 668 334 666 322 654 c 0
 309 642 306 631 306 598 c 2
 306 144 l 2
 306 81 306 77 313 69 c 0
 322 58 343 54 396 54 c 2
 418 54 l 1
 418 0 l 1
 22 0 l 1
 22 54 l 1
 37 54 l 2
 89 54 110 58 119 69 c 0
 124 75 125 79 125 110 c 2
 125 144 l 1
 125 577 l 1
 125 611 l 2
 125 643 124 647 119 653 c 0
 110 664 89 668 37 668 c 2
 22 668 l 1
 22 722 l 1
 692 722 l 1
 704 453 l 1
 651 453 l 1
EndSplineSet
EndChar

StartChar: afii10021
Encoding: 1044 1044 449
Width: 837
Flags: MW
LayerCount: 2
Fore
SplineSet
505 0 m 2
 324 0 l 2
 253 0 225 -4 194 -20 c 0
 130 -52 83 -126 65 -222 c 1
 12 -222 l 1
 28 54 l 1
 113 54 l 2
 199 54 229 224 229 370 c 2
 229 577 l 2
 229 642 220 645 213 653 c 0
 204 664 183 668 131 668 c 2
 116 668 l 1
 116 722 l 1
 801 722 l 1
 801 668 l 1
 786 668 l 2
 734 668 712 664 703 653 c 0
 698 647 697 643 697 611 c 2
 697 577 l 1
 697 144 l 2
 697 80 697 77 704 69 c 0
 713 58 734 54 786 54 c 2
 801 54 l 1
 817 -222 l 1
 764 -222 l 1
 746 -126 699 -52 635 -20 c 0
 604 -4 576 0 505 0 c 2
285 95 m 0
 281 88 280 83 280 79 c 0
 280 64 302 64 319 63 c 1
 427 63 l 2
 479 63 495 67 504 78 c 0
 511 86 516 81 516 144 c 2
 516 658 l 1
 400 658 l 2
 363 658 343 637 341 577 c 1
 341 374 l 1
 340 248 320 156 285 95 c 0
EndSplineSet
EndChar

StartChar: afii10024
Encoding: 1046 1046 451
Width: 1158
Flags: MW
LayerCount: 2
Fore
SplineSet
497 317 m 1
 460 317 l 1
 350 314 312 200 310 112 c 1
 310 50 290 -16 166 -16 c 0
 98 -16 14 2 14 162 c 1
 98 162 l 1
 100 106 100 62 128 62 c 0
 196 62 98 344 306 366 c 1
 186 406 248 684 188 684 c 0
 164 684 158 679 158 674 c 0
 158 670 162 666 162 666 c 1
 165 666 l 2
 182 666 185 650 185 632 c 0
 185 624 185 615 184 608 c 1
 184 564 130 558 104 558 c 0
 68 558 44 598 42 634 c 1
 42 642 l 2
 42 673 65 736 170 736 c 0
 450 736 230 408 456 408 c 1
 497 409 l 1
 497 578 l 1
 497 612 l 2
 497 643 496 647 491 653 c 0
 482 664 461 668 409 668 c 2
 394 668 l 1
 394 722 l 1
 783 722 l 1
 783 668 l 1
 768 668 l 2
 716 668 694 664 685 653 c 0
 678 645 678 641 678 578 c 2
 678 409 l 1
 719 408 l 1
 945 408 725 736 1005 736 c 0
 1110 736 1133 673 1133 642 c 2
 1133 634 l 1
 1131 598 1107 558 1071 558 c 0
 1045 558 991 564 991 608 c 1
 990 615 990 624 990 632 c 0
 990 650 993 666 1010 666 c 2
 1013 666 l 1
 1013 666 1017 670 1017 674 c 0
 1017 679 1011 684 987 684 c 0
 927 684 989 406 869 366 c 1
 1077 344 979 62 1047 62 c 0
 1075 62 1075 106 1077 162 c 1
 1161 162 l 1
 1161 2 1077 -16 1009 -16 c 0
 885 -16 865 50 865 112 c 1
 863 200 825 314 715 317 c 1
 678 317 l 1
 678 144 l 2
 678 81 678 77 685 69 c 0
 694 58 716 54 768 54 c 2
 783 54 l 1
 783 0 l 1
 394 0 l 1
 394 54 l 1
 409 54 l 2
 461 54 482 58 491 69 c 0
 496 75 497 79 497 110 c 2
 497 144 l 1
 497 317 l 1
EndSplineSet
EndChar

StartChar: afii10025
Encoding: 1047 1047 452
Width: 667
Flags: MW
LayerCount: 2
Fore
SplineSet
24 208 m 0
 24 255 45 288 94 288 c 0
 138 288 165 256 165 228 c 0
 165 200 154 189 138 176 c 0
 132 171 117 168 109 169 c 0
 104 170 101 174 98 174 c 0
 89 174 80 168 80 158 c 0
 80 157 80 155 81 153 c 1
 81 50 235 43 284 43 c 0
 385 43 464 92 464 204 c 0
 464 278 389 336 312 336 c 2
 222 336 l 1
 222 417 l 1
 309 417 l 2
 416 417 464 480 464 550 c 0
 464 639 410 685 333 685 c 2
 330 685 l 1
 190 684 148 612 89 470 c 1
 36 470 l 1
 49 729 l 1
 94 729 l 1
 146 683 l 1
 202 721 256 737 326 737 c 0
 480 737 599 662 599 529 c 0
 599 477 561 392 508 376 c 1
 569 368 625 293 625 210 c 0
 625 18 446 -15 285 -15 c 0
 148 -15 25 48 24 208 c 0
EndSplineSet
EndChar

StartChar: afii10026
Encoding: 1048 1048 453
Width: 870
Flags: MW
LayerCount: 2
Fore
SplineSet
565 446 m 1
 304 162 l 1
 304 144 l 2
 304 80 304 77 311 69 c 0
 320 58 342 54 394 54 c 2
 409 54 l 1
 409 0 l 1
 20 0 l 1
 20 54 l 1
 35 54 l 2
 87 54 108 58 117 69 c 0
 124 77 124 81 124 144 c 2
 124 577 l 2
 124 641 124 645 117 653 c 0
 108 664 87 668 35 668 c 2
 20 668 l 1
 20 722 l 1
 409 722 l 1
 409 668 l 1
 394 668 l 2
 342 668 320 664 311 653 c 0
 304 645 304 641 304 577 c 2
 304 262 l 1
 565 546 l 1
 565 577 l 2
 565 640 565 645 558 653 c 0
 549 664 528 668 476 668 c 2
 461 668 l 1
 461 722 l 1
 850 722 l 1
 850 668 l 1
 835 668 l 2
 783 668 761 664 752 653 c 0
 745 645 745 641 745 577 c 2
 745 144 l 2
 745 80 745 77 752 69 c 0
 761 58 783 54 835 54 c 2
 850 54 l 1
 850 0 l 1
 461 0 l 1
 461 54 l 1
 476 54 l 2
 528 54 549 58 558 69 c 0
 565 77 565 81 565 144 c 2
 565 446 l 1
EndSplineSet
EndChar

StartChar: afii10028
Encoding: 1050 1050 455
Width: 784
Flags: MW
LayerCount: 2
Fore
SplineSet
341 317 m 1
 304 317 l 1
 304 144 l 2
 304 81 304 77 311 69 c 0
 320 58 342 54 394 54 c 2
 409 54 l 1
 409 0 l 1
 20 0 l 1
 20 54 l 1
 35 54 l 2
 87 54 108 58 117 69 c 0
 122 75 123 79 123 110 c 2
 123 144 l 1
 123 578 l 1
 123 612 l 2
 123 643 122 647 117 653 c 0
 108 664 87 668 35 668 c 2
 20 668 l 1
 20 722 l 1
 409 722 l 1
 409 668 l 1
 394 668 l 2
 342 668 320 664 311 653 c 0
 304 645 304 641 304 578 c 2
 304 409 l 1
 345 408 l 1
 571 408 351 736 631 736 c 0
 736 736 759 673 759 642 c 2
 759 634 l 1
 757 598 733 558 697 558 c 0
 671 558 617 564 617 608 c 1
 616 615 616 624 616 632 c 0
 616 650 619 666 636 666 c 2
 639 666 l 1
 639 666 643 670 643 674 c 0
 643 679 637 684 613 684 c 0
 553 684 615 406 495 366 c 1
 703 344 605 62 673 62 c 0
 701 62 701 106 703 162 c 1
 787 162 l 1
 787 2 703 -16 635 -16 c 0
 511 -16 491 50 491 112 c 1
 489 200 451 314 341 317 c 1
EndSplineSet
EndChar

StartChar: afii10029
Encoding: 1051 1051 456
Width: 891
Flags: MW
LayerCount: 2
Fore
SplineSet
586 662 m 1
 470 662 l 2
 433 662 413 638 411 578 c 1
 411 374 l 1
 409 82 303 -16 159 -16 c 0
 61 -16 5 56 4 138 c 1
 5 209 47 240 102 240 c 2
 105 240 l 1
 175 239 185 196 185 170 c 0
 185 100 135 115 135 87 c 0
 135 65 151 54 183 54 c 0
 269 54 299 224 299 370 c 2
 299 577 l 2
 299 642 290 645 283 653 c 0
 274 664 253 668 201 668 c 2
 186 668 l 1
 186 722 l 1
 871 722 l 1
 871 668 l 1
 856 668 l 2
 804 668 782 664 773 653 c 0
 768 647 767 643 767 611 c 2
 767 577 l 1
 767 144 l 1
 767 110 l 2
 767 78 768 75 773 69 c 0
 782 58 804 54 856 54 c 2
 871 54 l 1
 871 0 l 1
 482 0 l 1
 482 54 l 1
 497 54 l 2
 549 54 565 58 574 69 c 0
 581 77 586 81 586 144 c 2
 586 662 l 1
EndSplineSet
EndChar

StartChar: afii10033
Encoding: 1055 1055 460
Width: 870
Flags: MW
LayerCount: 2
Fore
SplineSet
565 662 m 1
 304 662 l 1
 304 144 l 2
 304 80 304 77 311 69 c 0
 320 58 342 54 394 54 c 2
 409 54 l 1
 409 0 l 1
 20 0 l 1
 20 54 l 1
 35 54 l 2
 87 54 108 58 117 69 c 0
 124 77 124 81 124 144 c 2
 124 577 l 2
 124 641 124 645 117 653 c 0
 108 664 87 668 35 668 c 2
 20 668 l 1
 20 722 l 1
 850 722 l 1
 850 668 l 1
 835 668 l 2
 783 668 761 664 752 653 c 0
 747 647 746 643 746 611 c 2
 746 577 l 1
 746 144 l 1
 746 110 l 2
 746 78 747 75 752 69 c 0
 761 58 783 54 835 54 c 2
 850 54 l 1
 850 0 l 1
 461 0 l 1
 461 54 l 1
 476 54 l 2
 528 54 549 58 558 69 c 0
 565 77 565 81 565 144 c 2
 565 662 l 1
EndSplineSet
EndChar

StartChar: afii10037
Encoding: 1059 1059 464
Width: 735
Flags: MW
LayerCount: 2
Fore
SplineSet
209 -9 m 1
 207 -9 l 2
 144 -9 84 36 84 101 c 0
 84 159 117 188 154 188 c 0
 198 188 224 165 224 123 c 0
 224 96 211 90 202 83 c 0
 199 80 190 79 190 70 c 0
 190 61 198 51 216 51 c 0
 266 51 288 120 309 161 c 1
 74 617 l 2
 52 660 32 665 -12 668 c 1
 -12 722 l 1
 346 722 l 1
 346 668 l 1
 288 668 269 658 269 639 c 0
 269 629 275 609 279 601 c 2
 410 352 l 1
 517 553 l 1
 537 585 538 608 538 624 c 0
 538 657 513 668 450 668 c 1
 450 722 l 1
 748 722 l 1
 748 668 l 1
 696 664 649 649 611 591 c 1
 356 110 l 1
 296 0 278 -8 209 -9 c 1
EndSplineSet
EndChar

StartChar: afii10038
Encoding: 1060 1060 465
Width: 938
Flags: MW
LayerCount: 2
Fore
SplineSet
556 112 m 1
 556 103 l 1
 556 89 l 2
 556 76 557 75 562 69 c 0
 571 58 593 54 645 54 c 2
 660 54 l 1
 660 0 l 1
 271 0 l 1
 271 54 l 1
 286 54 l 2
 338 54 359 58 368 69 c 0
 375 77 376 79 376 103 c 2
 376 112 l 1
 352 112 l 2
 271 112 14 128 14 376 c 0
 14 620 282 634 357 634 c 2
 376 634 l 1
 376 648 l 2
 376 676 375 682 368 690 c 0
 359 701 338 705 286 705 c 2
 271 705 l 1
 271 759 l 1
 660 759 l 1
 660 705 l 1
 645 705 l 2
 593 705 571 701 562 690 c 0
 557 684 556 679 556 664 c 2
 556 648 l 1
 556 634 l 1
 576 634 l 2
 654 634 926 620 926 382 c 0
 926 129 667 112 582 112 c 2
 556 112 l 1
556 154 m 1
 573 154 l 2
 622 154 750 168 750 376 c 0
 750 582 624 597 574 597 c 2
 556 597 l 1
 556 154 l 1
376 154 m 1
 376 597 l 1
 359 597 l 2
 311 597 188 582 188 370 c 0
 188 164 326 154 367 154 c 2
 376 154 l 1
EndSplineSet
EndChar

StartChar: afii10040
Encoding: 1062 1062 467
Width: 878
Flags: MW
LayerCount: 2
Fore
SplineSet
554 0 m 2
 20 0 l 1
 20 54 l 1
 35 54 l 2
 87 54 109 58 118 69 c 0
 125 77 125 81 125 145 c 2
 125 578 l 2
 125 642 125 645 118 653 c 0
 109 664 87 668 35 668 c 2
 20 668 l 1
 20 722 l 1
 409 722 l 1
 409 668 l 1
 394 668 l 2
 342 668 321 664 312 653 c 0
 305 645 305 641 305 578 c 2
 305 60 l 1
 566 60 l 1
 566 578 l 2
 566 642 566 645 559 653 c 0
 550 664 528 668 476 668 c 2
 461 668 l 1
 461 722 l 1
 850 722 l 1
 850 668 l 1
 835 668 l 2
 783 668 762 664 753 653 c 0
 746 645 746 641 746 578 c 2
 746 145 l 2
 746 81 746 77 753 69 c 0
 762 58 783 54 835 54 c 2
 850 54 l 1
 866 -222 l 1
 813 -222 l 1
 795 -126 748 -53 684 -21 c 0
 653 -5 625 0 554 0 c 2
EndSplineSet
EndChar

StartChar: afii10041
Encoding: 1063 1063 468
Width: 851
Flags: MW
LayerCount: 2
Fore
SplineSet
546 324 m 1
 516 283 474 255 396 255 c 0
 306 256 124 277 124 403 c 2
 124 577 l 2
 124 641 124 645 117 653 c 0
 108 664 87 668 35 668 c 2
 20 668 l 1
 20 722 l 1
 409 722 l 1
 409 668 l 1
 394 668 l 2
 342 668 320 664 311 653 c 0
 304 645 304 641 304 577 c 2
 304 403 l 1
 305 367 357 315 417 315 c 2
 419 315 l 1
 421 315 l 2
 479 315 514 353 546 391 c 1
 546 577 l 2
 546 640 546 645 539 653 c 0
 530 664 509 668 457 668 c 2
 442 668 l 1
 442 722 l 1
 831 722 l 1
 831 668 l 1
 816 668 l 2
 764 668 742 664 733 653 c 0
 726 645 726 641 726 577 c 2
 726 144 l 2
 726 80 726 77 733 69 c 0
 742 58 764 54 816 54 c 2
 831 54 l 1
 831 0 l 1
 442 0 l 1
 442 54 l 1
 457 54 l 2
 509 54 530 58 539 69 c 0
 546 77 546 81 546 144 c 2
 546 324 l 1
EndSplineSet
EndChar

StartChar: afii10042
Encoding: 1064 1064 469
Width: 1234
Flags: MW
LayerCount: 2
Fore
SplineSet
708 60 m 1
 929 60 l 1
 929 578 l 2
 929 641 929 645 922 653 c 0
 913 664 902 668 850 668 c 2
 835 668 l 1
 835 722 l 1
 1214 722 l 1
 1214 668 l 1
 1199 668 l 2
 1147 668 1125 664 1116 653 c 0
 1109 645 1109 642 1109 578 c 2
 1109 145 l 2
 1109 81 1109 77 1116 69 c 0
 1125 58 1147 54 1199 54 c 2
 1214 54 l 1
 1214 0 l 1
 20 0 l 1
 20 54 l 1
 35 54 l 2
 87 54 108 58 117 69 c 0
 124 77 124 81 124 145 c 2
 124 578 l 2
 124 641 124 645 117 653 c 0
 108 664 87 668 35 668 c 2
 20 668 l 1
 20 722 l 1
 399 722 l 1
 399 668 l 1
 384 668 l 2
 332 668 320 664 311 653 c 0
 304 645 304 642 304 578 c 2
 304 60 l 1
 528 60 l 1
 528 578 l 2
 528 641 528 645 521 653 c 0
 512 664 501 668 449 668 c 2
 434 668 l 1
 434 722 l 1
 803 722 l 1
 803 668 l 1
 788 668 l 2
 736 668 724 664 715 653 c 0
 708 645 708 642 708 578 c 2
 708 60 l 1
EndSplineSet
EndChar

StartChar: afii10043
Encoding: 1065 1065 470
Width: 1242
Flags: MW
LayerCount: 2
Fore
SplineSet
918 0 m 2
 20 0 l 1
 20 54 l 1
 35 54 l 2
 87 54 108 58 117 69 c 0
 124 77 124 81 124 145 c 2
 124 578 l 2
 124 641 124 645 117 653 c 0
 108 664 87 668 35 668 c 2
 20 668 l 1
 20 722 l 1
 399 722 l 1
 399 668 l 1
 384 668 l 2
 332 668 320 664 311 653 c 0
 304 645 304 642 304 578 c 2
 304 60 l 1
 528 60 l 1
 528 578 l 2
 528 641 528 645 521 653 c 0
 512 664 501 668 449 668 c 2
 434 668 l 1
 434 722 l 1
 803 722 l 1
 803 668 l 1
 788 668 l 2
 736 668 724 664 715 653 c 0
 708 645 708 642 708 578 c 2
 708 60 l 1
 929 60 l 1
 929 578 l 2
 929 641 929 645 922 653 c 0
 913 664 902 668 850 668 c 2
 835 668 l 1
 835 722 l 1
 1214 722 l 1
 1214 668 l 1
 1199 668 l 2
 1147 668 1125 664 1116 653 c 0
 1109 645 1109 642 1109 578 c 2
 1109 145 l 2
 1109 81 1109 77 1116 69 c 0
 1125 58 1147 54 1199 54 c 2
 1214 54 l 1
 1230 -222 l 1
 1177 -222 l 1
 1159 -126 1112 -53 1048 -21 c 0
 1017 -5 989 0 918 0 c 2
EndSplineSet
EndChar

StartChar: afii10044
Encoding: 1066 1066 471
Width: 920
Flags: MW
LayerCount: 2
Fore
SplineSet
167 0 m 1
 167 55 l 1
 182 55 l 2
 234 55 255 59 264 69 c 0
 271 78 271 81 271 145 c 2
 271 629 l 2
 271 663 265 670 235 670 c 0
 189 670 151 647 119 599 c 0
 95 564 81 525 68 451 c 1
 15 451 l 1
 30 722 l 1
 563 722 l 1
 563 668 l 1
 541 668 l 2
 488 668 467 664 458 654 c 0
 451 645 451 642 451 578 c 2
 451 412 l 1
 451 412 518 427 563 427 c 0
 763 427 878 341 878 201 c 0
 878 126 841 65 777 35 c 0
 723 10 664 0 564 0 c 2
 167 0 l 1
451 357 m 1
 451 115 l 2
 451 66 461 55 506 55 c 2
 546 55 l 2
 641 55 685 100 685 200 c 0
 685 315 647 371 509 372 c 0
 485 372 451 357 451 357 c 1
EndSplineSet
EndChar

StartChar: afii10046
Encoding: 1068 1068 473
Width: 773
Flags: MW
LayerCount: 2
Fore
SplineSet
304 412 m 1
 304 412 371 427 416 427 c 0
 616 427 731 341 731 201 c 0
 731 126 694 65 630 35 c 0
 576 10 517 0 417 0 c 2
 20 0 l 1
 20 55 l 1
 35 55 l 2
 87 55 108 59 117 69 c 0
 124 78 124 81 124 145 c 2
 124 578 l 2
 124 642 124 645 117 654 c 0
 108 664 87 668 35 668 c 2
 20 668 l 1
 20 722 l 1
 416 722 l 1
 416 668 l 1
 394 668 l 2
 341 668 320 664 311 654 c 0
 304 645 304 642 304 578 c 2
 304 412 l 1
304 357 m 1
 304 115 l 2
 304 66 314 55 359 55 c 2
 399 55 l 2
 494 55 538 100 538 200 c 0
 538 315 500 371 362 372 c 0
 338 372 304 357 304 357 c 1
EndSplineSet
EndChar

StartChar: afii10047
Encoding: 1069 1069 474
Width: 731
Flags: MW
LayerCount: 2
Fore
SplineSet
293 47 m 0
 422 47 487 140 492 339 c 1
 232 339 l 1
 232 399 l 1
 492 399 l 1
 487 587 423 685 306 685 c 0
 195 685 122 608 77 441 c 1
 24 447 l 1
 34 733 l 1
 77 733 l 1
 131 684 l 1
 197 724 243 737 314 737 c 0
 534 737 692 576 692 352 c 0
 692 248 661 166 597 95 c 0
 528 19 419 -14 302 -14 c 0
 152 -14 25 88 25 206 c 0
 25 253 46 286 95 286 c 0
 138 286 166 254 166 226 c 0
 166 198 156 187 139 174 c 0
 133 169 118 166 110 167 c 0
 105 168 102 172 99 172 c 0
 88 172 82 162 82 151 c 0
 82 114 231 47 293 47 c 0
EndSplineSet
EndChar

StartChar: afii10048
Encoding: 1070 1070 475
Width: 1234
Flags: MW
LayerCount: 2
Fore
SplineSet
443 399 m 1
 454 498 501 590 573 652 c 0
 639 709 721 737 817 737 c 0
 915 737 993 710 1061 652 c 0
 1143 581 1195 467 1195 351 c 0
 1195 234 1147 132 1061 63 c 1
 993 10 915 -15 813 -15 c 0
 599 -15 445 133 440 339 c 1
 304 339 l 1
 304 144 l 2
 304 80 304 77 311 69 c 0
 320 58 342 54 394 54 c 2
 409 54 l 1
 409 0 l 1
 20 0 l 1
 20 54 l 1
 35 54 l 2
 87 54 108 58 117 69 c 0
 124 77 124 81 124 144 c 2
 124 577 l 2
 124 641 124 645 117 653 c 0
 108 664 87 668 35 668 c 2
 20 668 l 1
 20 722 l 1
 409 722 l 1
 409 668 l 1
 394 668 l 2
 342 668 320 664 311 653 c 0
 304 645 304 641 304 577 c 2
 304 399 l 1
 443 399 l 1
819 685 m 0
 759 685 719 663 691 614 c 1
 657 557 639 477 639 369 c 0
 639 264 657 176 691 114 c 0
 719 62 761 37 819 37 c 0
 933 37 995 147 995 350 c 0
 995 458 977 548 943 608 c 0
 915 659 873 685 819 685 c 0
EndSplineSet
EndChar

StartChar: afii10049
Encoding: 1071 1071 476
Width: 831
Flags: MW
LayerCount: 2
Fore
SplineSet
527 347 m 1
 471 347 l 2
 428 347 400 337 382 317 c 0
 366 298 362 286 358 229 c 1
 352 162 347 120 344 104 c 0
 327 26 271 -15 184 -15 c 0
 76 -15 14 46 14 152 c 2
 14 164 l 1
 68 164 l 1
 69 101 84 69 114 69 c 0
 125 69 137 75 143 84 c 0
 149 92 150 99 155 131 c 0
 155 135 157 145 159 159 c 2
 166 197 l 1
 181 287 219 332 306 361 c 1
 253 371 227 378 202 390 c 0
 141 421 106 476 106 541 c 0
 106 601 135 652 187 686 c 0
 225 710 292 722 384 722 c 2
 811 722 l 1
 811 668 l 1
 796 668 l 2
 744 668 723 664 714 654 c 0
 707 645 707 642 707 578 c 2
 707 145 l 2
 707 81 707 78 714 69 c 0
 723 59 744 55 796 55 c 2
 811 55 l 1
 811 1 l 1
 411 1 l 1
 411 55 l 1
 437 55 l 2
 489 55 511 59 520 69 c 0
 527 78 527 81 527 145 c 2
 527 347 l 1
527 402 m 1
 527 604 l 2
 527 661 520 668 456 668 c 2
 432 668 l 2
 339 668 297 627 297 536 c 0
 297 434 339 402 472 402 c 2
 527 402 l 1
EndSplineSet
EndChar

StartChar: afii10066
Encoding: 1073 1073 478
Width: 611
Flags: MW
LayerCount: 2
Fore
SplineSet
136 439 m 1
 183 473 240 488 308 488 c 0
 460 488 579 376 579 234 c 0
 579 91 462 -15 304 -15 c 0
 146 -15 31 91 31 236 c 2
 31 264 l 2
 31 379 42 680 286 680 c 2
 322 680 l 2
 428 680 500 683 514 750 c 1
 578 750 l 1
 578 648 558 552 344 552 c 0
 216 552 140 506 136 439 c 1
306 436 m 0
 239 436 204 368 204 236 c 0
 204 104 238 37 305 37 c 0
 369 37 406 108 406 235 c 0
 406 287 398 344 386 377 c 0
 373 412 341 436 306 436 c 0
EndSplineSet
EndChar

StartChar: afii10067
Encoding: 1074 1074 479
Width: 590
Flags: MW
LayerCount: 2
Fore
SplineSet
20 473 m 1
 371 473 l 1
 437 471 527 452 527 370 c 0
 527 286 459 258 358 248 c 1
 475 246 573 216 573 123 c 0
 573 33 483 0 386 0 c 2
 382 0 l 1
 20 0 l 1
 20 51 l 1
 35 51 l 2
 72 51 85 56 94 63 c 0
 101 68 101 85 101 126 c 2
 101 347 l 2
 101 389 101 405 94 411 c 1
 85 417 78 423 35 423 c 2
 20 423 l 1
 20 473 l 1
256 272 m 1
 296 272 l 1
 315 272 l 2
 331 272 334 273 354 283 c 0
 391 301 403 322 403 351 c 0
 403 377 387 413 317 413 c 2
 312 413 l 2
 293 413 278 410 268 405 c 0
 258 399 256 387 256 368 c 2
 256 272 l 1
256 212 m 1
 256 109 l 2
 256 87 258 78 261 73 c 0
 267 64 282 60 317 60 c 2
 322 60 l 1
 334 60 l 2
 348 60 366 61 386 70 c 0
 416 84 426 116 426 138 c 0
 426 163 411 186 378 203 c 0
 362 211 347 212 330 212 c 2
 311 212 l 1
 256 212 l 1
EndSplineSet
EndChar

StartChar: afii10068
Encoding: 1075 1075 480
Width: 538
Flags: MW
LayerCount: 2
Fore
SplineSet
256 406 m 1
 256 97 l 2
 256 58 266 51 325 51 c 1
 325 0 l 1
 20 0 l 1
 20 51 l 1
 24 51 l 2
 88 51 99 57 99 98 c 2
 99 376 l 2
 99 415 88 422 27 422 c 2
 21 422 l 1
 21 473 l 1
 500 473 l 1
 512 293 l 1
 461 293 l 1
 442 355 434 364 417 378 c 0
 392 398 377 406 307 406 c 2
 256 406 l 1
EndSplineSet
EndChar

StartChar: afii10069
Encoding: 1076 1076 481
Width: 643
Flags: MW
LayerCount: 2
Fore
SplineSet
22 51 m 1
 97 51 l 1
 147 53 188 150 188 223 c 2
 188 376 l 2
 188 416 162 422 101 422 c 2
 95 422 l 1
 95 473 l 1
 617 473 l 1
 617 422 l 1
 613 422 l 2
 550 422 539 415 539 375 c 2
 539 329 l 1
 539 152 l 1
 539 97 l 2
 539 58 539 51 600 51 c 2
 629 51 l 1
 638 -165 l 1
 587 -165 l 1
 570 -47 510 -1 441 0 c 1
 210 0 l 1
 206 0 l 2
 139 0 81 -49 64 -165 c 1
 13 -165 l 1
 22 51 l 1
382 62 m 1
 382 405 l 1
 315 405 l 2
 304 405 291 396 291 375 c 2
 291 373 l 2
 291 354 293 323 293 288 c 0
 293 220 287 137 254 84 c 0
 252 80 251 77 251 74 c 0
 251 67 256 62 269 62 c 2
 382 62 l 1
EndSplineSet
EndChar

StartChar: afii10072
Encoding: 1078 1078 483
Width: 912
Flags: MW
LayerCount: 2
Fore
SplineSet
380 273 m 1
 380 376 l 2
 380 416 369 422 304 422 c 2
 300 422 l 1
 300 473 l 1
 617 473 l 1
 617 422 l 1
 559 422 537 415 537 375 c 2
 537 273 l 1
 599 272 l 1
 673 272 573 492 775 492 c 0
 817 492 866 484 867 426 c 1
 866 362 829 356 799 354 c 1
 760 355 736 370 736 400 c 0
 736 417 753 429 753 435 c 0
 753 438 748 440 733 440 c 0
 695 440 757 268 632 238 c 1
 825 238 752 51 814 51 c 0
 838 51 844 76 844 104 c 2
 844 116 l 1
 907 115 l 1
 907 -12 843 -14 776 -14 c 0
 691 -14 638 43 638 107 c 2
 638 112 l 2
 638 154 637 200 585 200 c 1
 537 199 l 1
 537 98 l 2
 537 58 559 51 617 51 c 1
 617 0 l 1
 300 0 l 1
 300 51 l 1
 304 51 l 2
 369 51 380 57 380 97 c 2
 380 199 l 1
 332 200 l 1
 280 200 279 154 279 112 c 2
 279 107 l 2
 279 43 226 -14 141 -14 c 0
 74 -14 10 -12 10 115 c 1
 73 116 l 1
 73 104 l 2
 73 76 79 51 103 51 c 0
 165 51 92 238 285 238 c 1
 160 268 222 440 184 440 c 0
 169 440 164 438 164 435 c 0
 164 429 181 417 181 400 c 0
 181 370 157 355 118 354 c 1
 88 356 51 362 50 426 c 1
 51 484 100 492 142 492 c 0
 344 492 244 272 318 272 c 1
 380 273 l 1
EndSplineSet
EndChar

StartChar: afii10073
Encoding: 1079 1079 484
Width: 509
Flags: MW
LayerCount: 2
Fore
SplineSet
221 37 m 2
 229 37 l 2
 318 37 346 87 346 138 c 0
 346 178 334 209 243 209 c 2
 181 209 l 1
 181 282 l 1
 242 282 l 2
 323 282 346 334 346 360 c 0
 346 402 310 436 261 436 c 0
 197 436 150 402 101 320 c 1
 54 320 l 1
 58 478 l 1
 101 478 l 1
 138 456 l 1
 176 478 214 488 262 488 c 0
 374 488 460 434 460 360 c 0
 460 298 444 256 406 248 c 1
 452 238 489 205 489 133 c 0
 489 33 398 -15 227 -15 c 0
 108 -15 28 39 28 121 c 0
 28 162 58 186 93 186 c 0
 130 186 156 175 156 132 c 0
 156 103 149 105 132 84 c 0
 123 73 121 68 121 65 c 0
 121 49 192 37 221 37 c 2
EndSplineSet
EndChar

StartChar: afii10074
Encoding: 1080 1080 485
Width: 685
Flags: MW
LayerCount: 2
Fore
SplineSet
256 114 m 1
 256 97 l 2
 256 58 266 51 325 51 c 1
 325 0 l 1
 20 0 l 1
 20 51 l 1
 24 51 l 2
 88 51 99 57 99 98 c 2
 99 376 l 2
 99 415 88 422 27 422 c 2
 21 422 l 1
 21 473 l 1
 334 473 l 1
 334 422 l 1
 330 422 l 2
 267 422 256 415 256 375 c 2
 256 201 l 1
 432 350 l 1
 432 376 l 2
 432 415 421 422 360 422 c 2
 354 422 l 1
 354 473 l 1
 667 473 l 1
 667 422 l 1
 663 422 l 2
 600 422 589 415 589 375 c 2
 589 329 l 1
 589 152 l 1
 589 98 l 2
 589 57 600 51 664 51 c 2
 668 51 l 1
 668 0 l 1
 363 0 l 1
 363 51 l 1
 422 51 432 58 432 97 c 2
 432 264 l 1
 256 114 l 1
EndSplineSet
EndChar

StartChar: afii10077
Encoding: 1083 1083 488
Width: 670
Flags: MW
LayerCount: 2
Fore
SplineSet
346 405 m 2
 336 405 326 396 326 376 c 2
 326 373 l 2
 326 355 327 328 327 295 c 0
 327 175 310 -11 148 -11 c 0
 82 -11 15 24 15 92 c 1
 17 138 36 169 87 169 c 0
 130 169 156 144 156 119 c 0
 156 95 139 71 130 68 c 0
 125 66 123 64 123 61 c 0
 123 57 129 53 139 53 c 2
 141 53 l 1
 191 55 223 138 223 214 c 2
 223 376 l 1
 219 416 197 422 136 422 c 2
 130 422 l 1
 130 473 l 1
 652 473 l 1
 652 422 l 1
 648 422 l 2
 585 422 574 415 574 375 c 2
 574 329 l 1
 574 152 l 1
 574 98 l 2
 574 57 585 51 649 51 c 2
 653 51 l 1
 653 0 l 1
 348 0 l 1
 348 51 l 1
 407 51 417 58 417 97 c 2
 417 405 l 1
 346 405 l 2
EndSplineSet
EndChar

StartChar: afii10078
Encoding: 1084 1084 489
Width: 747
Flags: MW
LayerCount: 2
Fore
SplineSet
492 243 m 1
 379 -14 l 1
 294 -14 l 1
 174 238 l 1
 174 97 l 2
 174 58 184 51 243 51 c 1
 243 0 l 1
 20 0 l 1
 20 51 l 1
 24 51 l 2
 88 51 99 57 99 98 c 2
 99 376 l 2
 99 415 88 422 27 422 c 2
 21 422 l 1
 21 473 l 1
 236 473 l 1
 314 473 l 1
 314 423 l 1
 276 423 262 417 262 400 c 0
 262 394 265 384 270 374 c 2
 372 150 l 1
 452 334 l 2
 466 365 478 382 478 397 c 0
 478 400 478 403 477 406 c 0
 474 415 453 423 428 423 c 2
 423 423 l 1
 423 473 l 1
 628 473 l 1
 727 473 l 1
 727 422 l 1
 688 422 650 417 649 373 c 1
 649 98 l 2
 649 56 681 51 727 51 c 1
 727 0 l 1
 423 0 l 1
 423 51 l 1
 482 51 492 58 492 97 c 2
 492 243 l 1
EndSplineSet
EndChar

StartChar: afii10079
Encoding: 1085 1085 490
Width: 685
Flags: MW
LayerCount: 2
Fore
SplineSet
256 208 m 1
 256 97 l 2
 256 58 266 51 325 51 c 1
 325 0 l 1
 20 0 l 1
 20 51 l 1
 24 51 l 2
 88 51 99 57 99 98 c 2
 99 376 l 2
 99 415 88 422 27 422 c 2
 21 422 l 1
 21 473 l 1
 334 473 l 1
 334 422 l 1
 330 422 l 2
 267 422 256 415 256 375 c 2
 256 276 l 1
 432 276 l 1
 432 376 l 2
 432 415 421 422 360 422 c 2
 354 422 l 1
 354 473 l 1
 667 473 l 1
 667 422 l 1
 663 422 l 2
 600 422 589 415 589 375 c 2
 589 329 l 1
 589 152 l 1
 589 98 l 2
 589 57 600 51 664 51 c 2
 668 51 l 1
 668 0 l 1
 363 0 l 1
 363 51 l 1
 422 51 432 58 432 97 c 2
 432 208 l 1
 256 208 l 1
EndSplineSet
EndChar

StartChar: afii10081
Encoding: 1087 1087 492
Width: 685
Flags: MW
LayerCount: 2
Fore
SplineSet
256 405 m 1
 256 97 l 2
 256 58 266 51 325 51 c 1
 325 0 l 1
 20 0 l 1
 20 51 l 1
 24 51 l 2
 88 51 99 57 99 98 c 2
 99 376 l 2
 99 415 88 422 27 422 c 2
 21 422 l 1
 21 473 l 1
 667 473 l 1
 667 422 l 1
 663 422 l 2
 600 422 589 415 589 375 c 2
 589 329 l 1
 589 152 l 1
 589 98 l 2
 589 57 600 51 664 51 c 2
 668 51 l 1
 668 0 l 1
 363 0 l 1
 363 51 l 1
 422 51 432 58 432 97 c 2
 432 405 l 1
 256 405 l 1
EndSplineSet
EndChar

StartChar: afii10084
Encoding: 1090 1090 495
Width: 569
Flags: MW
LayerCount: 2
Fore
SplineSet
26 473 m 1
 531 473 l 1
 543 293 l 1
 492 293 l 1
 475 354 475 369 458 383 c 1
 442 404 417 406 357 406 c 1
 357 97 l 2
 357 58 367 51 426 51 c 1
 426 0 l 1
 121 0 l 1
 121 51 l 1
 125 51 l 2
 189 51 200 57 200 98 c 2
 200 406 l 1
 140 406 117 404 99 383 c 1
 82 369 83 354 65 293 c 1
 14 293 l 1
 26 473 l 1
EndSplineSet
EndChar

StartChar: afii10086
Encoding: 1092 1092 497
Width: 974
Flags: MW
LayerCount: 2
Fore
SplineSet
308 436 m 0
 242 436 207 368 207 236 c 0
 207 116 240 53 304 53 c 0
 368 53 407 129 407 253 c 0
 407 306 402 342 390 372 c 0
 374 411 342 436 308 436 c 0
404 460 m 1
 404 603 l 1
 404 605 l 2
 404 660 365 679 340 679 c 2
 325 679 l 1
 325 730 l 1
 561 737 l 1
 561 409 l 1
 606 466 649 488 717 488 c 0
 845 488 939 387 939 249 c 0
 939 99 837 -15 703 -15 c 0
 646 -15 601 6 561 50 c 1
 561 -58 l 1
 561 -105 l 2
 561 -145 572 -152 637 -152 c 2
 648 -152 l 1
 648 -202 l 1
 325 -202 l 1
 325 -152 l 1
 329 -152 l 2
 393 -152 404 -145 404 -105 c 2
 404 58 l 1
 361 8 313 -15 250 -15 c 0
 192 -15 130 12 95 53 c 1
 58 94 34 166 34 232 c 0
 34 379 143 488 289 488 c 0
 365 488 395 462 404 460 c 1
673 413 m 0
 600 413 560 347 560 229 c 0
 560 116 598 53 665 53 c 0
 728 53 766 120 766 232 c 0
 766 350 733 413 673 413 c 0
EndSplineSet
EndChar

StartChar: afii10088
Encoding: 1094 1094 499
Width: 693
Flags: MW
LayerCount: 2
Fore
SplineSet
679 51 m 1
 688 -165 l 1
 637 -165 l 1
 620 -47 560 0 491 1 c 1
 21 0 l 1
 21 51 l 1
 25 51 l 2
 88 51 99 58 99 98 c 2
 99 144 l 1
 99 321 l 1
 99 375 l 2
 99 416 88 422 24 422 c 2
 20 422 l 1
 20 473 l 1
 325 473 l 1
 325 422 l 1
 266 422 256 415 256 376 c 2
 256 68 l 1
 432 68 l 1
 432 376 l 2
 432 415 422 422 363 422 c 1
 363 473 l 1
 668 473 l 1
 668 422 l 1
 664 422 l 2
 600 422 589 416 589 375 c 2
 589 97 l 2
 589 58 589 51 650 51 c 2
 679 51 l 1
EndSplineSet
EndChar

StartChar: afii10089
Encoding: 1095 1095 500
Width: 643
Flags: MW
LayerCount: 2
Fore
SplineSet
270 165 m 0
 196 165 78 179 77 280 c 1
 77 376 l 2
 77 415 73 422 26 422 c 2
 20 422 l 1
 20 473 l 1
 291 473 l 1
 291 422 l 1
 287 422 l 2
 234 422 234 415 234 375 c 2
 234 267 l 2
 234 241 274 233 306 233 c 0
 352 233 390 245 390 267 c 2
 390 376 l 2
 390 415 379 422 318 422 c 2
 312 422 l 1
 312 473 l 1
 625 473 l 1
 625 422 l 1
 621 422 l 2
 558 422 547 415 547 375 c 2
 547 329 l 1
 547 152 l 1
 547 98 l 2
 547 57 558 51 622 51 c 2
 626 51 l 1
 626 0 l 1
 321 0 l 1
 321 51 l 1
 380 51 390 58 390 97 c 2
 390 188 l 1
 377 170 331 165 270 165 c 0
EndSplineSet
EndChar

StartChar: afii10090
Encoding: 1096 1096 501
Width: 899
Flags: MW
LayerCount: 2
Fore
SplineSet
525 68 m 1
 663 68 l 1
 663 376 l 1
 663 395 l 2
 663 417 659 422 611 422 c 1
 611 473 l 1
 882 473 l 1
 882 422 l 1
 878 422 l 2
 824 422 820 418 820 392 c 2
 820 375 l 1
 820 97 l 1
 820 82 l 2
 820 56 824 51 876 51 c 2
 882 51 l 1
 882 0 l 1
 20 0 l 1
 20 51 l 1
 26 51 l 2
 78 51 82 56 82 79 c 2
 82 98 l 1
 82 375 l 1
 82 392 l 2
 82 418 78 422 24 422 c 2
 20 422 l 1
 20 473 l 1
 291 473 l 1
 291 422 l 1
 243 422 239 417 239 395 c 2
 239 376 l 1
 239 68 l 1
 368 68 l 1
 368 376 l 1
 368 395 l 2
 368 417 364 422 316 422 c 1
 316 473 l 1
 587 473 l 1
 587 422 l 1
 583 422 l 2
 529 422 525 418 525 392 c 2
 525 375 l 1
 525 68 l 1
EndSplineSet
EndChar

StartChar: afii10091
Encoding: 1097 1097 502
Width: 896
Flags: MW
LayerCount: 2
Fore
SplineSet
694 0 m 2
 20 0 l 1
 20 51 l 1
 26 51 l 2
 78 51 82 56 82 79 c 2
 82 98 l 1
 82 375 l 1
 82 392 l 2
 82 418 78 422 24 422 c 2
 20 422 l 1
 20 473 l 1
 291 473 l 1
 291 422 l 1
 243 422 239 417 239 395 c 2
 239 376 l 1
 239 68 l 1
 368 68 l 1
 368 376 l 1
 368 395 l 2
 368 417 364 422 316 422 c 1
 316 473 l 1
 587 473 l 1
 587 422 l 1
 583 422 l 2
 529 422 525 418 525 392 c 2
 525 375 l 1
 525 68 l 1
 663 68 l 1
 663 376 l 1
 663 395 l 2
 663 417 659 422 611 422 c 1
 611 473 l 1
 882 473 l 1
 882 422 l 1
 878 422 l 2
 824 422 820 418 820 392 c 2
 820 375 l 1
 820 97 l 1
 820 82 l 2
 820 56 822 51 853 51 c 2
 882 51 l 1
 891 -165 l 1
 840 -165 l 1
 823 -47 761 0 694 0 c 2
EndSplineSet
EndChar

StartChar: afii10092
Encoding: 1098 1098 503
Width: 746
Flags: MW
LayerCount: 2
Fore
SplineSet
144 0 m 1
 144 51 l 1
 159 51 l 2
 196 51 209 56 218 63 c 0
 225 68 225 85 225 126 c 2
 225 406 l 1
 219 406 l 2
 149 406 134 398 109 378 c 0
 92 364 84 355 65 293 c 1
 14 293 l 1
 26 473 l 1
 461 473 l 1
 461 423 l 1
 446 423 l 2
 403 423 396 417 387 411 c 1
 380 405 380 389 380 347 c 2
 380 272 l 1
 380 272 420 288 448 288 c 0
 600 288 729 252 729 123 c 0
 729 32 629 0 531 0 c 2
 144 0 l 1
380 212 m 1
 380 109 l 2
 380 87 382 78 385 73 c 0
 391 64 406 60 441 60 c 2
 462 60 l 1
 476 60 l 2
 492 60 516 61 535 70 c 0
 565 84 575 116 575 138 c 0
 575 189 528 228 447 228 c 0
 419 228 380 212 380 212 c 1
EndSplineSet
EndChar

StartChar: afii10093
Encoding: 1099 1099 504
Width: 921
Flags: HMW
LayerCount: 2
Fore
SplineSet
667 347 m 2
 667 389 667 405 660 411 c 1
 651 417 644 423 601 423 c 2
 586 423 l 1
 586 473 l 1
 903 473 l 1
 903 423 l 1
 888 423 l 2
 845 423 838 417 829 411 c 1
 825 407 824 399 824 383 c 2
 824 347 l 1
 824 97 l 2
 824 58 835 51 896 51 c 2
 902 51 l 1
 902 0 l 1
 589 0 l 1
 589 51 l 1
 593 51 l 2
 656 51 667 58 667 98 c 2
 667 347 l 2
EndSplineSet
Refer: 505 1100 S 1 0 0 1 0 0 2
EndChar

StartChar: afii10094
Encoding: 1100 1100 505
Width: 631
Flags: MW
LayerCount: 2
Fore
SplineSet
337 473 m 1
 337 423 l 1
 322 423 l 2
 279 423 272 417 263 411 c 1
 256 405 256 389 256 347 c 2
 256 272 l 1
 256 272 296 288 324 288 c 0
 476 288 605 252 605 123 c 0
 605 33 508 0 411 0 c 2
 407 0 l 1
 20 0 l 1
 20 51 l 1
 35 51 l 2
 72 51 85 56 94 63 c 0
 101 68 101 85 101 126 c 2
 101 347 l 2
 101 389 101 405 94 411 c 1
 85 417 78 423 35 423 c 2
 20 423 l 1
 20 473 l 1
 337 473 l 1
256 212 m 1
 256 109 l 2
 256 87 258 78 261 73 c 0
 267 64 282 60 317 60 c 2
 338 60 l 1
 352 60 l 2
 368 60 392 61 411 70 c 0
 441 84 451 116 451 138 c 0
 451 189 404 228 323 228 c 0
 295 228 256 212 256 212 c 1
EndSplineSet
EndChar

StartChar: afii10095
Encoding: 1101 1101 506
Width: 556
Flags: MW
LayerCount: 2
Fore
SplineSet
351 208 m 1
 205 208 l 1
 205 276 l 1
 348 276 l 1
 337 369 292 420 223 420 c 0
 182 420 142 401 118 369 c 0
 103 349 94 333 80 296 c 1
 28 313 l 1
 43 360 59 390 88 420 c 1
 132 468 181 488 255 488 c 0
 416 488 524 390 524 244 c 0
 524 93 404 -15 238 -15 c 0
 117 -15 39 39 39 121 c 0
 39 162 69 186 104 186 c 0
 141 186 167 175 167 132 c 0
 167 103 160 105 143 84 c 0
 134 73 132 68 132 65 c 0
 132 49 203 37 232 37 c 0
 303 37 347 100 351 208 c 1
EndSplineSet
EndChar

StartChar: afii10096
Encoding: 1102 1102 507
Width: 932
Flags: MW
LayerCount: 2
Fore
SplineSet
354 208 m 1
 256 208 l 1
 256 97 l 2
 256 58 266 51 325 51 c 1
 325 0 l 1
 20 0 l 1
 20 51 l 1
 24 51 l 2
 88 51 99 57 99 98 c 2
 99 376 l 2
 99 415 88 422 27 422 c 2
 21 422 l 1
 21 473 l 1
 334 473 l 1
 334 422 l 1
 330 422 l 2
 267 422 256 415 256 375 c 2
 256 276 l 1
 356 276 l 1
 375 400 485 488 629 488 c 0
 781 488 900 376 900 234 c 0
 900 91 783 -15 625 -15 c 0
 477 -15 368 78 354 208 c 1
627 436 m 0
 560 436 525 368 525 236 c 0
 525 104 559 37 626 37 c 0
 690 37 727 108 727 235 c 0
 727 287 719 344 707 377 c 0
 694 412 662 436 627 436 c 0
EndSplineSet
EndChar

StartChar: afii10097
Encoding: 1103 1103 508
Width: 632
Flags: MW
LayerCount: 2
Fore
SplineSet
208 206 m 1
 124 214 52 257 52 351 c 0
 52 441 152 472 250 473 c 1
 615 473 l 1
 615 422 l 1
 600 422 l 2
 563 422 550 417 541 410 c 0
 534 405 534 388 534 347 c 2
 534 126 l 2
 534 84 534 69 541 63 c 1
 550 57 557 51 600 51 c 2
 615 51 l 1
 615 0 l 1
 298 0 l 1
 298 51 l 1
 313 51 l 2
 356 51 363 57 372 63 c 1
 379 69 379 84 379 126 c 2
 379 201 l 1
 339 201 l 2
 287 201 286 155 286 113 c 2
 286 108 l 2
 286 44 226 -13 141 -13 c 0
 74 -13 10 -11 10 116 c 1
 73 117 l 1
 73 105 l 2
 73 77 79 51 103 51 c 0
 148 51 124 174 208 206 c 1
379 261 m 1
 379 364 l 2
 379 386 377 395 374 400 c 0
 368 409 353 413 318 413 c 2
 297 413 l 1
 287 413 l 2
 277 413 266 412 246 403 c 0
 216 389 206 357 206 335 c 0
 206 310 221 287 254 270 c 0
 270 262 286 261 304 261 c 2
 324 261 l 1
 379 261 l 1
EndSplineSet
EndChar

StartChar: afii10099
Encoding: 1106 1106 511
Width: 731
Flags: MW
LayerCount: 2
Fore
SplineSet
357 272 m 1
 397 272 l 2
 432 272 480 273 480 273 c 1
 597 271 705 216 706 122 c 0
 706 33 608 0 512 0 c 2
 508 0 l 1
 121 0 l 1
 121 51 l 1
 125 51 l 2
 189 51 200 57 200 98 c 2
 200 406 l 1
 139 406 117 404 99 383 c 1
 82 369 83 354 65 293 c 1
 14 293 l 1
 26 473 l 1
 531 473 l 1
 543 293 l 1
 492 293 l 1
 475 354 475 369 458 383 c 1
 442 404 417 406 357 406 c 1
 357 272 l 1
357 212 m 1
 357 109 l 2
 357 87 359 78 362 73 c 0
 368 64 383 60 418 60 c 2
 439 60 l 1
 453 60 l 2
 469 60 492 61 512 70 c 0
 542 84 552 116 552 138 c 0
 552 163 537 186 504 203 c 0
 488 211 460 212 436 212 c 2
 412 212 l 1
 357 212 l 1
EndSplineSet
EndChar

StartChar: afii10101
Encoding: 1108 1108 513
Width: 556
Flags: MW
LayerCount: 2
Fore
SplineSet
206 276 m 1
 350 276 l 1
 350 208 l 1
 206 208 l 1
 206 130 253 53 332 53 c 0
 373 53 413 72 437 104 c 0
 452 124 461 140 475 177 c 1
 527 160 l 1
 512 113 496 83 467 53 c 1
 423 5 374 -15 300 -15 c 0
 139 -15 31 83 31 229 c 0
 31 380 151 488 317 488 c 0
 438 488 516 434 516 352 c 0
 516 311 486 287 451 287 c 0
 414 287 388 298 388 341 c 0
 388 370 395 368 412 389 c 0
 421 400 423 405 423 408 c 0
 423 424 352 436 323 436 c 0
 248 436 206 366 206 276 c 1
EndSplineSet
EndChar

StartChar: afii10106
Encoding: 1113 1113 518
Width: 948
Flags: MW
LayerCount: 2
Fore
SplineSet
574 375 m 2
 574 272 l 1
 614 272 l 2
 649 272 697 273 697 273 c 1
 814 271 922 216 923 122 c 0
 923 33 825 0 729 0 c 2
 725 0 l 1
 348 0 l 1
 348 51 l 1
 407 51 417 58 417 97 c 2
 417 405 l 1
 346 405 l 2
 336 405 326 396 326 376 c 2
 326 373 l 2
 326 355 327 328 327 295 c 0
 327 175 310 -11 148 -11 c 0
 82 -11 15 24 15 92 c 1
 17 138 36 169 87 169 c 0
 130 169 156 144 156 119 c 0
 156 95 139 71 130 68 c 0
 125 66 123 64 123 61 c 0
 123 57 129 53 139 53 c 2
 141 53 l 1
 191 55 223 138 223 214 c 2
 223 376 l 1
 219 416 197 422 136 422 c 2
 130 422 l 1
 130 473 l 1
 652 473 l 1
 652 422 l 1
 648 422 l 2
 585 422 574 415 574 375 c 2
574 212 m 1
 574 109 l 2
 574 87 576 78 579 73 c 0
 585 64 600 60 635 60 c 2
 656 60 l 1
 670 60 l 2
 686 60 710 61 729 70 c 0
 759 84 769 116 769 138 c 0
 769 163 754 186 721 203 c 0
 705 211 677 212 653 212 c 2
 629 212 l 1
 574 212 l 1
EndSplineSet
EndChar

StartChar: afii10107
Encoding: 1114 1114 519
Width: 963
Flags: MW
LayerCount: 2
Fore
SplineSet
589 375 m 2
 589 272 l 1
 629 272 l 2
 664 272 712 273 712 273 c 1
 829 271 937 216 938 122 c 0
 938 33 840 0 744 0 c 2
 740 0 l 1
 363 0 l 1
 363 51 l 1
 422 51 432 58 432 97 c 2
 432 208 l 1
 256 208 l 1
 256 97 l 2
 256 58 266 51 325 51 c 1
 325 0 l 1
 20 0 l 1
 20 51 l 1
 24 51 l 2
 88 51 99 57 99 98 c 2
 99 376 l 2
 99 415 88 422 27 422 c 2
 21 422 l 1
 21 473 l 1
 334 473 l 1
 334 422 l 1
 330 422 l 2
 267 422 256 415 256 375 c 2
 256 276 l 1
 432 276 l 1
 432 376 l 2
 432 415 421 422 360 422 c 2
 354 422 l 1
 354 473 l 1
 667 473 l 1
 667 422 l 1
 663 422 l 2
 600 422 589 415 589 375 c 2
589 212 m 1
 589 109 l 2
 589 87 591 78 594 73 c 0
 600 64 615 60 650 60 c 2
 671 60 l 1
 685 60 l 2
 701 60 724 61 744 70 c 0
 774 84 784 116 784 138 c 0
 784 163 769 186 736 203 c 0
 720 211 692 212 668 212 c 2
 644 212 l 1
 589 212 l 1
EndSplineSet
EndChar

StartChar: afii10193
Encoding: 1119 1119 524
Width: 685
Flags: MW
LayerCount: 2
Fore
SplineSet
432 68 m 1
 432 376 l 2
 432 415 422 422 363 422 c 1
 363 473 l 1
 668 473 l 1
 668 422 l 1
 664 422 l 2
 600 422 589 416 589 375 c 2
 589 97 l 2
 589 58 600 51 661 51 c 2
 667 51 l 1
 667 0 l 1
 21 0 l 1
 21 51 l 1
 25 51 l 2
 88 51 99 58 99 98 c 2
 99 144 l 1
 99 321 l 1
 99 375 l 2
 99 416 88 422 24 422 c 2
 20 422 l 1
 20 473 l 1
 325 473 l 1
 325 422 l 1
 266 422 256 415 256 376 c 2
 256 68 l 1
 432 68 l 1
EndSplineSet
EndChar

StartChar: uni048C
Encoding: 1164 1164 525
Width: 773
Flags: MW
LayerCount: 2
Fore
SplineSet
304 357 m 1
 304 115 l 2
 304 66 314 55 359 55 c 2
 399 55 l 2
 494 55 538 100 538 200 c 0
 538 315 491 357 362 357 c 2
 304 357 l 1
304 499 m 1
 304 412 l 1
 416 412 l 2
 625 412 731 341 731 201 c 0
 731 126 694 65 630 35 c 0
 576 10 517 0 417 0 c 2
 20 0 l 1
 20 55 l 1
 35 55 l 2
 87 55 108 59 117 69 c 0
 124 78 124 81 124 145 c 2
 124 499 l 1
 45 499 l 1
 45 579 l 1
 124 579 l 1
 124 642 124 645 117 654 c 0
 108 664 87 668 35 668 c 2
 20 668 l 1
 20 722 l 1
 416 722 l 1
 416 668 l 1
 394 668 l 2
 341 668 320 664 311 654 c 0
 304 645 304 642 304 579 c 1
 389 579 l 1
 389 499 l 1
 304 499 l 1
EndSplineSet
EndChar

StartChar: uni048D
Encoding: 1165 1165 526
Width: 631
Flags: MW
LayerCount: 2
Fore
SplineSet
256 212 m 1
 256 109 l 2
 256 87 258 78 261 73 c 0
 267 64 282 60 317 60 c 2
 338 60 l 1
 352 60 l 2
 368 60 392 61 411 70 c 0
 441 84 451 116 451 138 c 0
 451 163 436 186 403 203 c 0
 387 211 359 212 335 212 c 2
 311 212 l 1
 256 212 l 1
101 297 m 1
 21 297 l 1
 21 377 l 1
 101 377 l 1
 100 397 99 407 94 411 c 0
 85 417 78 423 35 423 c 2
 20 423 l 1
 20 473 l 1
 337 473 l 1
 337 423 l 1
 322 423 l 2
 279 423 272 417 263 411 c 0
 258 407 257 397 256 377 c 1
 336 377 l 1
 336 297 l 1
 256 297 l 1
 256 272 l 1
 296 272 l 2
 331 272 379 273 379 273 c 1
 496 271 604 216 605 122 c 0
 605 33 507 0 411 0 c 2
 407 0 l 1
 20 0 l 1
 20 51 l 1
 35 51 l 2
 72 51 85 56 94 63 c 0
 101 68 101 85 101 126 c 2
 101 297 l 1
EndSplineSet
EndChar

StartChar: uni048E
Encoding: 1166 1166 527
Width: 759
Flags: MW
LayerCount: 2
Fore
SplineSet
526 432 m 1
 537 455 542 485 542 522 c 0
 542 622 498 667 403 667 c 2
 363 667 l 2
 318 667 308 656 308 607 c 2
 308 365 l 1
 366 365 l 2
 408 365 441 369 466 379 c 1
 388 457 l 1
 445 514 l 1
 526 432 l 1
617 342 m 1
 688 271 l 1
 631 214 l 1
 528 318 l 1
 496 313 460 310 420 310 c 2
 308 310 l 1
 308 144 l 2
 308 80 308 77 315 68 c 0
 324 58 345 54 398 54 c 2
 420 54 l 1
 420 0 l 1
 24 0 l 1
 24 54 l 1
 39 54 l 2
 91 54 112 58 121 68 c 0
 128 77 128 80 128 144 c 2
 128 577 l 2
 128 641 128 644 121 653 c 0
 112 663 91 667 39 667 c 2
 24 667 l 1
 24 722 l 1
 421 722 l 2
 521 722 580 712 634 687 c 0
 698 657 735 596 735 521 c 0
 735 435 695 375 617 342 c 1
EndSplineSet
EndChar

StartChar: uni048F
Encoding: 1167 1167 528
Width: 667
Flags: MW
LayerCount: 2
Fore
SplineSet
452 157 m 1
 457 179 459 204 459 232 c 0
 459 350 426 413 366 413 c 0
 293 413 253 347 253 229 c 0
 253 116 291 53 358 53 c 0
 381 53 401 62 417 79 c 1
 331 164 l 1
 388 221 l 1
 452 157 l 1
556 52 m 1
 631 -22 l 1
 574 -79 l 1
 490 5 l 1
 461 -8 430 -15 396 -15 c 0
 339 -15 294 6 254 50 c 1
 254 -58 l 1
 254 -105 l 2
 254 -145 265 -152 330 -152 c 2
 341 -152 l 1
 341 -202 l 1
 18 -202 l 1
 18 -152 l 1
 22 -152 l 2
 86 -152 97 -145 97 -105 c 2
 97 -58 l 1
 97 318 l 1
 96 413 95 415 33 415 c 2
 18 415 l 1
 18 466 l 1
 254 473 l 1
 254 409 l 1
 299 466 342 488 410 488 c 0
 538 488 632 387 632 249 c 0
 632 169 603 100 556 52 c 1
EndSplineSet
EndChar

StartChar: afii10050
Encoding: 1168 1168 529
Width: 722
Flags: MW
LayerCount: 2
Fore
SplineSet
692 668 m 1
 396 668 l 2
 347 668 334 666 322 654 c 0
 309 642 306 631 306 598 c 2
 306 144 l 2
 306 81 306 77 313 69 c 0
 322 58 343 54 396 54 c 2
 418 54 l 1
 418 0 l 1
 22 0 l 1
 22 54 l 1
 37 54 l 2
 89 54 110 58 119 69 c 0
 124 75 125 79 125 110 c 2
 125 144 l 1
 125 577 l 1
 125 611 l 2
 125 643 124 647 119 653 c 0
 110 664 89 668 37 668 c 2
 22 668 l 1
 22 722 l 1
 417 722 l 2
 488 722 545 748 586 797 c 0
 613 830 631 868 651 937 c 1
 704 937 l 1
 692 668 l 1
EndSplineSet
EndChar

StartChar: afii10098
Encoding: 1169 1169 530
Width: 538
Flags: MW
LayerCount: 2
Fore
SplineSet
500 406 m 1
 256 406 l 1
 256 97 l 2
 256 58 266 51 325 51 c 1
 325 0 l 1
 20 0 l 1
 20 51 l 1
 24 51 l 2
 88 51 99 57 99 98 c 2
 99 376 l 2
 99 415 88 422 27 422 c 2
 21 422 l 1
 21 473 l 1
 307 473 l 2
 377 473 392 481 417 501 c 0
 434 515 442 524 461 586 c 1
 512 586 l 1
 500 406 l 1
EndSplineSet
EndChar

StartChar: uni0492
Encoding: 1170 1170 531
Width: 736
Flags: MW
LayerCount: 2
Fore
SplineSet
125 400 m 1
 46 400 l 1
 46 480 l 1
 125 480 l 1
 125 577 l 1
 125 611 l 2
 125 643 124 647 119 653 c 0
 110 664 89 668 37 668 c 2
 22 668 l 1
 22 722 l 1
 692 722 l 1
 704 453 l 1
 651 453 l 1
 631 522 613 560 586 593 c 0
 545 642 488 668 417 668 c 2
 396 668 l 2
 347 668 334 666 322 654 c 0
 309 642 306 631 306 598 c 2
 306 480 l 1
 390 480 l 1
 390 400 l 1
 306 400 l 1
 306 144 l 2
 306 81 306 77 313 69 c 0
 322 58 343 54 396 54 c 2
 418 54 l 1
 418 0 l 1
 22 0 l 1
 22 54 l 1
 37 54 l 2
 89 54 110 58 119 69 c 0
 124 75 125 79 125 110 c 2
 125 144 l 1
 125 400 l 1
EndSplineSet
EndChar

StartChar: uni0493
Encoding: 1171 1171 532
Width: 538
Flags: MW
LayerCount: 2
Fore
SplineSet
99 223 m 1
 21 223 l 1
 21 303 l 1
 99 303 l 1
 99 376 l 2
 99 415 88 422 27 422 c 2
 21 422 l 1
 21 473 l 1
 500 473 l 1
 512 293 l 1
 461 293 l 1
 442 355 434 364 417 378 c 0
 392 398 377 406 307 406 c 2
 256 406 l 1
 256 303 l 1
 365 303 l 1
 365 223 l 1
 256 223 l 1
 256 97 l 2
 256 58 266 51 325 51 c 1
 325 0 l 1
 20 0 l 1
 20 51 l 1
 24 51 l 2
 88 51 99 57 99 98 c 2
 99 223 l 1
EndSplineSet
EndChar

StartChar: uni0498
Encoding: 1176 1176 537
Width: 667
Flags: MW
LayerCount: 2
Fore
SplineSet
24 208 m 0
 24 255 45 288 94 288 c 0
 138 288 165 256 165 228 c 0
 165 200 154 189 138 176 c 0
 132 171 117 168 109 169 c 0
 104 170 101 174 98 174 c 0
 89 174 80 168 80 158 c 0
 80 157 80 155 81 153 c 1
 81 50 235 43 284 43 c 0
 385 43 464 92 464 204 c 0
 464 278 389 336 312 336 c 2
 222 336 l 1
 222 417 l 1
 309 417 l 2
 416 417 464 480 464 550 c 0
 464 640 409 685 330 685 c 0
 226 685 148 612 89 470 c 1
 36 470 l 1
 49 729 l 1
 94 729 l 1
 146 683 l 1
 202 721 256 737 326 737 c 0
 480 737 599 662 599 529 c 0
 599 477 561 392 508 376 c 1
 569 368 625 293 625 210 c 0
 625 21 506 -15 294 -15 c 2
 285 -15 l 1
 282 -15 l 2
 133 -15 25 49 24 208 c 0
EndSplineSet
EndChar

StartChar: uni049E
Encoding: 1182 1182 543
Width: 784
Flags: MW
LayerCount: 2
Fore
SplineSet
304 499 m 1
 304 409 l 1
 345 408 l 1
 571 408 351 736 631 736 c 0
 736 736 759 673 759 642 c 2
 759 634 l 1
 757 598 733 558 697 558 c 0
 671 558 617 564 617 608 c 1
 616 615 616 624 616 632 c 0
 616 650 619 666 636 666 c 2
 639 666 l 1
 639 666 643 670 643 674 c 0
 643 679 637 684 613 684 c 0
 553 684 615 406 495 366 c 1
 703 344 605 62 673 62 c 0
 701 62 701 106 703 162 c 1
 787 162 l 1
 787 2 703 -16 635 -16 c 0
 511 -16 491 50 491 112 c 1
 489 200 451 314 341 317 c 1
 304 317 l 1
 304 144 l 2
 304 81 304 77 311 69 c 0
 320 58 342 54 394 54 c 2
 409 54 l 1
 409 0 l 1
 20 0 l 1
 20 54 l 1
 35 54 l 2
 87 54 108 58 117 69 c 0
 122 75 123 79 123 110 c 2
 123 144 l 1
 123 499 l 1
 40 499 l 1
 40 579 l 1
 123 579 l 1
 123 612 l 2
 123 643 122 647 117 653 c 0
 108 664 87 668 35 668 c 2
 20 668 l 1
 20 722 l 1
 409 722 l 1
 409 668 l 1
 394 668 l 2
 342 668 320 664 311 653 c 0
 304 645 304 641 304 579 c 1
 384 579 l 1
 384 499 l 1
 304 499 l 1
EndSplineSet
EndChar

StartChar: uni049F
Encoding: 1183 1183 544
Width: 632
Flags: MW
LayerCount: 2
Fore
SplineSet
100 297 m 1
 28 297 l 1
 28 377 l 1
 100 377 l 1
 100 416 88 422 24 422 c 2
 20 422 l 1
 20 473 l 1
 325 473 l 1
 325 422 l 1
 268 422 257 415 257 377 c 1
 316 377 l 1
 316 297 l 1
 257 297 l 1
 257 273 l 1
 319 272 l 1
 393 272 293 492 495 492 c 0
 537 492 586 484 587 426 c 1
 586 362 549 356 519 354 c 1
 480 355 456 370 456 400 c 0
 456 417 473 429 473 435 c 0
 473 438 468 440 453 440 c 0
 415 440 477 268 352 238 c 1
 545 238 472 51 534 51 c 0
 558 51 564 76 564 104 c 2
 564 116 l 1
 627 115 l 1
 627 -12 563 -14 496 -14 c 0
 411 -14 358 43 358 107 c 2
 358 112 l 2
 358 154 357 200 305 200 c 1
 257 199 l 1
 257 98 l 2
 257 58 267 51 325 51 c 1
 325 0 l 1
 20 0 l 1
 20 51 l 1
 24 51 l 2
 89 51 100 57 100 97 c 2
 100 297 l 1
EndSplineSet
EndChar

StartChar: uni04B6
Encoding: 1206 1206 567
Width: 851
Flags: MW
LayerCount: 2
Fore
SplineSet
546 324 m 1
 516 283 474 260 396 260 c 0
 306 261 124 277 124 403 c 2
 124 577 l 2
 124 641 124 645 117 653 c 0
 108 664 87 668 35 668 c 2
 20 668 l 1
 20 722 l 1
 409 722 l 1
 409 668 l 1
 394 668 l 2
 342 668 320 664 311 653 c 0
 304 645 304 641 304 577 c 2
 304 403 l 1
 305 367 357 320 417 320 c 2
 419 320 l 1
 422 320 l 2
 479 320 514 353 546 391 c 1
 546 577 l 2
 546 640 546 645 539 653 c 0
 530 664 509 668 457 668 c 2
 442 668 l 1
 442 722 l 1
 831 722 l 1
 831 668 l 1
 816 668 l 2
 764 668 742 664 733 653 c 0
 726 645 726 641 726 577 c 2
 726 144 l 2
 726 80 726 77 733 69 c 0
 742 58 764 54 816 54 c 2
 831 54 l 1
 831 0 l 1
 442 0 l 1
 442 54 l 1
 457 54 l 2
 509 54 530 58 539 69 c 0
 546 77 546 81 546 144 c 2
 546 324 l 1
EndSplineSet
EndChar

StartChar: uni04E8
Encoding: 1256 1256 610
Width: 833
Flags: MW
LayerCount: 2
Fore
SplineSet
417 737 m 0
 515 737 593 710 660 652 c 0
 743 581 794 467 794 351 c 0
 794 234 746 132 660 63 c 0
 593 10 514 -15 412 -15 c 0
 195 -15 39 138 39 350 c 0
 39 467 89 580 173 652 c 0
 238 709 320 737 417 737 c 0
594 320 m 1
 240 320 l 1
 245 237 262 166 290 114 c 0
 318 62 360 37 418 37 c 0
 526 37 588 136 594 320 c 1
593 400 m 1
 588 486 571 558 543 608 c 0
 514 659 472 685 418 685 c 0
 359 685 319 663 290 614 c 0
 259 563 243 492 239 400 c 1
 593 400 l 1
EndSplineSet
EndChar

StartChar: uni04F8
Encoding: 1272 1272 624
Width: 1198
Flags: MW
LayerCount: 2
Fore
SplineSet
304 412 m 1
 416 412 l 2
 625 412 731 341 731 201 c 0
 731 126 694 65 630 35 c 0
 576 10 517 0 417 0 c 2
 20 0 l 1
 20 55 l 1
 35 55 l 2
 87 55 108 59 117 69 c 0
 124 78 124 81 124 145 c 2
 124 578 l 2
 124 642 124 645 117 654 c 0
 108 664 87 668 35 668 c 2
 20 668 l 1
 20 722 l 1
 416 722 l 1
 416 668 l 1
 394 668 l 2
 341 668 320 664 311 654 c 0
 304 645 304 642 304 578 c 2
 304 412 l 1
304 357 m 1
 304 115 l 2
 304 66 314 55 359 55 c 2
 399 55 l 2
 494 55 538 100 538 200 c 0
 538 315 491 357 362 357 c 2
 304 357 l 1
EndSplineSet
Refer: 362 776 S 1 0 0 1 432 270 2
Refer: 42 73 S 1 0 0 1 761 0 2
EndChar

StartChar: uni04F9
Encoding: 1273 1273 625
Width: 921
Flags: MW
LayerCount: 2
Fore
SplineSet
667 347 m 2
 667 389 667 405 660 411 c 1
 651 417 644 423 601 423 c 2
 586 423 l 1
 586 473 l 1
 903 473 l 1
 903 423 l 1
 888 423 l 2
 845 423 838 417 829 411 c 1
 825 407 824 399 824 383 c 2
 824 347 l 1
 824 97 l 2
 824 58 835 51 896 51 c 2
 902 51 l 1
 902 0 l 1
 589 0 l 1
 589 51 l 1
 593 51 l 2
 656 51 667 58 667 98 c 2
 667 347 l 2
337 473 m 1
 337 423 l 1
 322 423 l 2
 279 423 272 417 263 411 c 1
 256 405 256 389 256 347 c 2
 256 272 l 1
 281 272 l 2
 316 272 364 273 364 273 c 1
 481 271 589 216 590 122 c 0
 590 33 492 0 396 0 c 2
 392 0 l 1
 20 0 l 1
 20 51 l 1
 35 51 l 2
 72 51 85 56 94 63 c 0
 101 68 101 85 101 126 c 2
 101 347 l 2
 101 389 101 405 94 411 c 1
 85 417 78 423 35 423 c 2
 20 423 l 1
 20 473 l 1
 337 473 l 1
256 212 m 1
 256 109 l 2
 256 87 258 78 261 73 c 0
 267 64 282 60 317 60 c 2
 323 60 l 1
 337 60 l 2
 353 60 376 61 396 70 c 0
 426 84 436 116 436 138 c 0
 436 163 421 186 388 203 c 0
 372 211 344 212 320 212 c 2
 296 212 l 1
 256 212 l 1
EndSplineSet
Refer: 362 776 S 1 0 0 1 321 21 2
EndChar

StartChar: uni1D5B
Encoding: 7515 7515 626
Width: 367
Flags: MW
LayerCount: 2
Fore
SplineSet
214 264 m 1
 258 374 l 2
 267 397 269 402 269 410 c 0
 269 427 256 434 223 434 c 1
 223 464 l 1
 359 464 l 1
 359 434 l 1
 356 434 l 2
 332 434 319 421 302 381 c 2
 209 172 l 1
 158 172 l 1
 48 402 l 2
 35 428 29 433 7 434 c 1
 7 464 l 1
 176 464 l 1
 176 434 l 1
 154 434 145 430 145 420 c 0
 145 416 147 410 150 404 c 2
 214 264 l 1
EndSplineSet
EndChar

StartChar: uni1E0E
Encoding: 7694 7694 629
Width: 833
Flags: MW
LayerCount: 2
Fore
SplineSet
83 -82 m 1
 749 -82 l 1
 749 -154 l 1
 83 -154 l 1
 83 -82 l 1
EndSplineSet
Refer: 37 68 S 1 0 0 1 0 0 2
Ligature2: "CCMP" D uni0331
EndChar

StartChar: uni1E0F
Encoding: 7695 7695 630
Width: 667
Flags: MW
LayerCount: 2
Fore
SplineSet
67 -82 m 1
 601 -82 l 1
 601 -154 l 1
 67 -154 l 1
 67 -82 l 1
EndSplineSet
Refer: 69 100 S 1 0 0 1 0 0 2
Ligature2: "CCMP" d uni0331
EndChar

StartChar: uni1E34
Encoding: 7732 7732 637
Width: 815
Flags: MW
LayerCount: 2
Fore
SplineSet
82 -82 m 1
 734 -82 l 1
 734 -154 l 1
 82 -154 l 1
 82 -82 l 1
EndSplineSet
Refer: 44 75 S 1 0 0 1 0 0 2
Ligature2: "CCMP" K uni0331
EndChar

StartChar: uni1E35
Encoding: 7733 7733 638
Width: 667
Flags: MW
LayerCount: 2
Fore
SplineSet
67 -82 m 1
 601 -82 l 1
 601 -154 l 1
 67 -154 l 1
 67 -82 l 1
EndSplineSet
Refer: 76 107 S 1 0 0 1 0 0 2
Ligature2: "CCMP" k uni0331
EndChar

StartChar: uni1E3A
Encoding: 7738 7738 643
Width: 722
Flags: MW
LayerCount: 2
Fore
SplineSet
72 -82 m 1
 650 -82 l 1
 650 -154 l 1
 72 -154 l 1
 72 -82 l 1
EndSplineSet
Refer: 45 76 S 1 0 0 1 0 0 2
Ligature2: "CCMP" L uni0331
EndChar

StartChar: uni1E3B
Encoding: 7739 7739 644
Width: 352
Flags: MW
LayerCount: 2
Fore
SplineSet
35 -82 m 1
 317 -82 l 1
 317 -154 l 1
 35 -154 l 1
 35 -82 l 1
EndSplineSet
Refer: 77 108 S 1 0 0 1 0 0 2
Ligature2: "CCMP" l uni0331
EndChar

StartChar: uni1E48
Encoding: 7752 7752 653
Width: 833
Flags: MW
LayerCount: 2
Fore
SplineSet
83 -82 m 1
 749 -82 l 1
 749 -154 l 1
 83 -154 l 1
 83 -82 l 1
EndSplineSet
Refer: 47 78 S 1 0 0 1 0 0 2
Ligature2: "CCMP" N uni0331
EndChar

StartChar: uni1E49
Encoding: 7753 7753 654
Width: 685
Flags: MW
LayerCount: 2
Fore
SplineSet
69 -82 m 1
 617 -82 l 1
 617 -154 l 1
 69 -154 l 1
 69 -82 l 1
EndSplineSet
Refer: 79 110 S 1 0 0 1 0 0 2
Ligature2: "CCMP" n uni0331
EndChar

StartChar: uni1E5E
Encoding: 7774 7774 663
Width: 815
Flags: MW
LayerCount: 2
Fore
SplineSet
82 -82 m 1
 734 -82 l 1
 734 -154 l 1
 82 -154 l 1
 82 -82 l 1
EndSplineSet
Refer: 51 82 S 1 0 0 1 0 0 2
Ligature2: "CCMP" R uni0331
EndChar

StartChar: uni1E5F
Encoding: 7775 7775 664
Width: 519
Flags: MW
LayerCount: 2
Fore
SplineSet
52 -82 m 1
 327 -82 l 1
 327 -154 l 1
 52 -154 l 1
 52 -82 l 1
EndSplineSet
Refer: 83 114 S 1 0 0 1 0 0 2
Ligature2: "CCMP" r uni0331
EndChar

StartChar: uni1E6E
Encoding: 7790 7790 669
Width: 722
Flags: MW
LayerCount: 2
Fore
SplineSet
72 -82 m 1
 650 -82 l 1
 650 -154 l 1
 72 -154 l 1
 72 -82 l 1
EndSplineSet
Refer: 53 84 S 1 0 0 1 0 0 2
Ligature2: "CCMP" T uni0331
EndChar

StartChar: uni1E6F
Encoding: 7791 7791 670
Width: 426
Flags: MW
LayerCount: 2
Fore
SplineSet
43 -82 m 1
 384 -82 l 1
 384 -154 l 1
 43 -154 l 1
 43 -82 l 1
EndSplineSet
Refer: 85 116 S 1 0 0 1 0 0 2
Ligature2: "CCMP" t uni0331
EndChar

StartChar: uni1E94
Encoding: 7828 7828 679
Width: 667
Flags: MW
LayerCount: 2
Fore
SplineSet
67 -82 m 1
 601 -82 l 1
 601 -154 l 1
 67 -154 l 1
 67 -82 l 1
EndSplineSet
Refer: 59 90 S 1 0 0 1 0 0 2
Ligature2: "CCMP" Z uni0331
EndChar

StartChar: uni1E95
Encoding: 7829 7829 680
Width: 537
Flags: MW
LayerCount: 2
Fore
SplineSet
54 -82 m 1
 484 -82 l 1
 484 -154 l 1
 54 -154 l 1
 54 -82 l 1
EndSplineSet
Refer: 91 122 S 1 0 0 1 0 0 2
Ligature2: "CCMP" z uni0331
EndChar

StartChar: uni1E96
Encoding: 7830 7830 681
Width: 685
Flags: MW
LayerCount: 2
Fore
SplineSet
69 -82 m 1
 617 -82 l 1
 617 -154 l 1
 69 -154 l 1
 69 -82 l 1
EndSplineSet
Refer: 73 104 S 1 0 0 1 0 0 2
Ligature2: "CCMP" h uni0331
EndChar

StartChar: endash
Encoding: 8211 8211 684
Width: 500
Flags: MW
LayerCount: 2
Fore
SplineSet
0 296 m 1
 500 296 l 1
 500 191 l 1
 0 191 l 1
 0 296 l 1
EndSplineSet
EndChar

StartChar: emdash
Encoding: 8212 8212 685
Width: 1000
Flags: MW
LayerCount: 2
Fore
SplineSet
0 296 m 1
 1000 296 l 1
 1000 191 l 1
 0 191 l 1
 0 296 l 1
EndSplineSet
EndChar

